<svg xmlns="http://www.w3.org/2000/svg" width="19.269" height="19.269" viewBox="0 0 19.269 19.269">
  <g id="icon-exp" transform="translate(-517.438 -586.478)">
    <path id="Path_2567" data-name="Path 2567" d="M536.707,660.776v10.838a1.086,1.086,0,0,0-.036.124,2.811,2.811,0,0,1-2.824,2.4q-6.772.006-13.544,0a2.812,2.812,0,0,1-2.862-2.86q-.008-5.079,0-10.158a3.035,3.035,0,0,1,.146-.921,2.791,2.791,0,0,1,2.749-1.939q6.387,0,12.773,0c.288,0,.578-.012.865,0a2.735,2.735,0,0,1,2.426,1.576A6.085,6.085,0,0,1,536.707,660.776Zm-7.6.315h-4.073v3.075H521.97v4.066h3.075V671.3h4.066v-3.075h3.066v-4.066h-3.068Z" transform="translate(0 -68.39)" fill="#d9ae39"/>
    <path id="Path_2568" data-name="Path 2568" d="M645.944,586.478v2.246h-1.125v-1.1h-5.647v1.106h-1.131v-2.249Z" transform="translate(-114.919)" fill="#d9ae39"/>
    <path id="Path_2569" data-name="Path 2569" d="M591.5,611.769H590.4v-1.111H591.5Z" transform="translate(-69.52 -23.04)" fill="#d9ae39"/>
    <path id="Path_2570" data-name="Path 2570" d="M831.057,611.79h-1.105v-1.109h1.105Z" transform="translate(-297.785 -23.062)" fill="#d9ae39"/>
    <path id="Path_2571" data-name="Path 2571" d="M642.318,747.246v3.083h-1.8v-3.074h-3.083v-1.8h3.074V742.37h1.8v3.074H645.4v1.8Z" transform="translate(-114.345 -148.545)" fill="#d9ae39"/>
  </g>
</svg>
