<svg xmlns="http://www.w3.org/2000/svg" width="30" height="30" viewBox="0 0 30 30">
  <g id="icon-tai-mui-hong" transform="translate(-391 -3261)">
    <g id="Ellipse_161" data-name="Ellipse 161" transform="translate(391 3261)" fill="#fff" stroke="#d9ae39" stroke-width="1">
      <circle cx="15" cy="15" r="15" stroke="none"/>
      <circle cx="15" cy="15" r="14.5" fill="none"/>
    </g>
    <g id="Group_1948" data-name="Group 1948" transform="translate(306.523 3358.278)">
      <path id="Path_3168" data-name="Path 3168" d="M101.628-73.389c0-2.159,0-4.318,0-6.477a1.939,1.939,0,0,0-.571-1.441c-.049-.049-.093-.1-.142-.152a1.611,1.611,0,0,1-.44-.72,1.745,1.745,0,0,0-1.7-1.247A6.04,6.04,0,0,0,94.6-81.8c-.316.289-.622.59-.92.9a.343.343,0,0,1-.355.1,1.435,1.435,0,0,1-.921-2.2c.353-.543.724-1.074,1.081-1.615a.521.521,0,0,0,.083-.254,6.618,6.618,0,0,1,5.478-6.211,6.625,6.625,0,0,1,7.64,5.4,6.447,6.447,0,0,1-1.048,4.827,7.133,7.133,0,0,0-1.173,4.685,7.54,7.54,0,0,0,.457,2.059c.112.3.008.5-.34.714Z" transform="translate(0)" fill="#d9ae39"/>
      <path id="Path_3169" data-name="Path 3169" d="M125.7,195.235a.609.609,0,0,1-.405-.669c.013-.266,0-.532,0-.8a.749.749,0,0,0-.711-.827,2.419,2.419,0,0,1-2.09-1.757,2.876,2.876,0,0,1-.1-.657.78.78,0,0,0,.664.205c.863,0,1.725,0,2.588,0a1.573,1.573,0,0,1,1.674,1.674q0,1.415.007,2.83Z" transform="translate(-28.835 -268.624)" fill="#d9ae39"/>
      <path id="Path_3170" data-name="Path 3170" d="M251.185,263.255v-1.4h1.042v1.4Z" transform="translate(-151.642 -336.643)" fill="#d9ae39"/>
      <path id="Path_3171" data-name="Path 3171" d="M143.462,150.851V149.8h.187q1.154,0,2.309,0a3.481,3.481,0,0,1,3.493,2.918,4.264,4.264,0,0,1,.048.743.522.522,0,1,1-1.044.008,2.591,2.591,0,0,0-1.353-2.292,2.513,2.513,0,0,0-1.279-.325c-.712,0-1.423,0-2.135,0Z" transform="translate(-48.917 -229.786)" fill="#d9ae39"/>
      <path id="Path_3172" data-name="Path 3172" d="M159.883,99.474a4.752,4.752,0,0,1,1.13-.8,5.036,5.036,0,0,1,2.267-.56.789.789,0,0,1,.842.762.824.824,0,0,0,.175.4,8.242,8.242,0,0,0,.587.637.9.9,0,0,1,.278.719c-.008.143,0,.287,0,.43l-.054.043a.5.5,0,0,0-.061-.119,4.46,4.46,0,0,0-3.273-1.51c-.56-.017-1.122,0-1.683,0Z" transform="translate(-64.576 -180.502)" fill="#d9ae39"/>
    </g>
  </g>
</svg>
