<svg xmlns="http://www.w3.org/2000/svg" width="19.269" height="16.333" viewBox="0 0 19.269 16.333">
  <g id="Group_4292" data-name="Group 4292" transform="translate(351.332 -223.946)">
    <path id="Path_3224" data-name="Path 3224" d="M-291.423,240.279V240q0-7.573,0-15.146c0-.637.266-.906.9-.906h10.072c.614,0,.89.276.89.89q0,7.585,0,15.169v.273h-4.343a.756.756,0,0,1-.844-.842q0-1.3,0-2.6v-.26h-1.482v.244q0,1.31,0,2.621a.75.75,0,0,1-.828.835q-2.072,0-4.144,0Zm5.188-9.651c0,.516-.007,1.008,0,1.5a.738.738,0,0,0,.725.726.738.738,0,0,0,.751-.723c.01-.371,0-.742,0-1.113,0-.128,0-.255,0-.391.506,0,.976,0,1.446,0a.744.744,0,0,0,.776-.747.747.747,0,0,0-.786-.737c-.254,0-.509,0-.764,0h-.673c0-.511,0-.989,0-1.467a.72.72,0,0,0-.448-.7.733.733,0,0,0-1.03.672c-.011.491,0,.983,0,1.466a.357.357,0,0,1-.07.023c-.455,0-.91,0-1.365,0a.744.744,0,0,0-.788.734.748.748,0,0,0,.8.75C-287.2,230.629-286.737,230.627-286.235,230.627Z" transform="translate(-56.203)" fill="#d9ae39"/>
    <path id="Path_3225" data-name="Path 3225" d="M-349.117,343.96v8.9c-.544,0-1.083.028-1.617-.01a.7.7,0,0,1-.6-.767q0-1.8,0-3.595,0-1.844,0-3.688a.749.749,0,0,1,.826-.836C-350.051,343.959-349.6,343.96-349.117,343.96Z" transform="translate(0 -112.59)" fill="#d9ae39"/>
    <path id="Path_3226" data-name="Path 3226" d="M-75.513,343.935c.518,0,1.019-.011,1.519,0a.729.729,0,0,1,.686.692c0,.062,0,.124,0,.185q0,3.572,0,7.143c0,.6-.277.882-.874.882h-1.333Z" transform="translate(-258.758 -112.564)" fill="#d9ae39"/>
  </g>
</svg>
