<svg xmlns="http://www.w3.org/2000/svg" width="17.783" height="17.783" viewBox="0 0 17.783 17.783">
  <g id="icon-ipost" transform="translate(422 252)">
    <path id="Path_3248" data-name="Path 3248" d="M-422-141.189v-10.836a.1.1,0,0,0,.02-.028,1.394,1.394,0,0,1,1.507-1.153q2.361,0,4.722,0a1.4,1.4,0,0,1,1.348.833c.258.517.523,1.031.771,1.553a.635.635,0,0,0,.643.4q3.663-.009,7.327,0a1.384,1.384,0,0,1,1.444,1.442q0,3.768,0,7.535a1.645,1.645,0,0,1-.055.428,1.375,1.375,0,0,1-1.372,1.013h-15a1.41,1.41,0,0,1-.79-.274A1.534,1.534,0,0,1-422-141.189Zm10.454-2.466c.415,0,.808,0,1.2,0a.514.514,0,0,0,.534-.522q.008-1.042,0-2.083a.514.514,0,0,0-.537-.519c-.341,0-.683,0-1.024,0h-.173c0-.413,0-.8,0-1.188a.519.519,0,0,0-.544-.548q-1.016,0-2.031,0a.522.522,0,0,0-.549.56c0,.341,0,.683,0,1.024,0,.049-.007.1-.01.152-.394,0-.77,0-1.146,0a.528.528,0,0,0-.579.583q0,.955,0,1.91c0,.441.192.633.634.633h1.1c0,.394,0,.769,0,1.144a.531.531,0,0,0,.587.592q.972,0,1.945,0a.531.531,0,0,0,.593-.587C-411.545-142.881-411.546-143.256-411.546-143.655Z" transform="translate(0 -94.209)" fill="#d9ae39"/>
    <path id="Path_3249" data-name="Path 3249" d="M-360.626-252q0,1.606,0,3.211a1.22,1.22,0,0,0,1.3,1.3h3.2v1.806h-.187q-2.864,0-5.728,0a.244.244,0,0,1-.26-.163c-.2-.412-.4-.819-.611-1.225a2.388,2.388,0,0,0-2.26-1.392c-1.192-.006-2.384,0-3.575,0h-.218v-.188c0-.885.01-1.771-.005-2.656a.663.663,0,0,1,.387-.7Z" transform="translate(-50.573 0)" fill="#d9ae39"/>
    <path id="Path_3250" data-name="Path 3250" d="M-166.75-244.714l3.126,3.125c-.046,0-.094.009-.142.01h-2.705c-.232,0-.278-.044-.278-.268q0-1.361,0-2.723Z" transform="translate(-243.406 -6.948)" fill="#d9ae39"/>
    <path id="Path_3251" data-name="Path 3251" d="M-67.757-156.492a2.509,2.509,0,0,0-1.4-.431v-2C-68.217-158.756-67.66-157.8-67.757-156.492Z" transform="translate(-336.471 -88.758)" fill="#d9ae39"/>
    <path id="Path_3252" data-name="Path 3252" d="M-277.111-24.939c0-.39,0-.766,0-1.141a.529.529,0,0,0-.578-.583c-.38,0-.76,0-1.149,0v-1.042h.6c.191,0,.382,0,.573,0a.523.523,0,0,0,.557-.552c0-.387,0-.774,0-1.172h1.042c0,.364,0,.727,0,1.089,0,.443.191.635.631.636h1.1v1.042h-.633c-.179,0-.359,0-.538,0a.523.523,0,0,0-.557.552c0,.387,0,.774,0,1.172Z" transform="translate(-136.518 -212.243)" fill="#d9ae39"/>
  </g>
</svg>
