<svg xmlns="http://www.w3.org/2000/svg" width="18.445" height="16.969" viewBox="0 0 18.445 16.969">
  <g id="icon-heart" transform="translate(481.409 -142.514)">
    <path id="Path_3247" data-name="Path 3247" d="M-462.964,147.616v.721a1.13,1.13,0,0,0-.028.139,6.743,6.743,0,0,1-.857,2.743,14.429,14.429,0,0,1-2.4,3.115c-1.669,1.714-3.477,3.278-5.281,4.845a.866.866,0,0,1-1.325,0c-1.45-1.278-2.9-2.554-4.343-3.844a18.456,18.456,0,0,1-2.744-2.972,7.369,7.369,0,0,1-1.463-4.051,5.36,5.36,0,0,1,1.591-4.213,5.522,5.522,0,0,1,6.462-.917c.4.217.783.483,1.19.738l.16-.12a5.563,5.563,0,0,1,6.107-.651,5.053,5.053,0,0,1,2.712,3.328C-463.075,146.844-463.034,147.234-462.964,147.616Zm-8.111,1.7V147.1h-2.233v2.236h-2.224v2.236h2.229v2.22h2.236v-2.226h2.219V149.32Z" transform="translate(0)" fill="#d9ae39"/>
  </g>
</svg>
