<svg xmlns="http://www.w3.org/2000/svg" width="19.743" height="19.71" viewBox="0 0 19.743 19.71">
  <g id="icon-newspaper" transform="translate(-390 -319.65)">
    <path id="Path_3254" data-name="Path 3254" d="M390,350.068c.255-.457.418-.453,1.157-.4v.224q0,5.519,0,11.039a1.727,1.727,0,0,0,1.5,1.785,2.065,2.065,0,0,0,.326.018c.835,0,1.67,0,2.505,0a1.627,1.627,0,0,1,1.5,1.022c.014.034.022.07.041.131h-.241c-2,0-4.008-.006-6.012.005a.743.743,0,0,1-.777-.429Z" transform="translate(0 -28.45)" fill="#d9ae39"/>
    <path id="Path_3255" data-name="Path 3255" d="M703.042,633.458a2.153,2.153,0,0,1-1.018-.686c-.332-.348-.68-.682-1.02-1.022-.044-.044-.086-.092-.141-.152a5,5,0,0,0,1.905-1.909c.164.168.31.32.458.469.258.259.51.526.779.773a2,2,0,0,1,.618.949v.462a5.633,5.633,0,0,1-.355.668,1.393,1.393,0,0,1-.763.448Z" transform="translate(-294.88 -294.099)" fill="#d9ae39"/>
    <path id="Path_3256" data-name="Path 3256" d="M440.779,334.871a3,3,0,0,0-1.469-1.475,2.831,2.831,0,0,0-1.2-.251h-2.448a.591.591,0,0,1-.667-.661q0-6.078,0-12.156a.588.588,0,0,1,.656-.652c.867,0,1.735-.012,2.6,0a3.8,3.8,0,0,1,2.405.9.35.35,0,0,1,.116.237q.008,6.982,0,13.965C440.783,334.809,440.78,334.84,440.779,334.871Z" transform="translate(-42.685 -0.02)" fill="#d9ae39"/>
    <path id="Path_3257" data-name="Path 3257" d="M575.778,328.64a4.918,4.918,0,0,0-5.763,2.574.7.7,0,0,1-.012-.1q0-5.156,0-10.313a.372.372,0,0,1,.124-.252,3.783,3.783,0,0,1,2.37-.89c.893-.019,1.786-.007,2.68,0a.571.571,0,0,1,.6.587q0,4.166,0,8.331A.476.476,0,0,1,575.778,328.64Z" transform="translate(-170.748)" fill="#d9ae39"/>
    <path id="Path_3258" data-name="Path 3258" d="M591.616,517.347a3.663,3.663,0,1,1-3.655-3.668A3.654,3.654,0,0,1,591.616,517.347Z" transform="translate(-184.301 -184.053)" fill="#d9ae39"/>
    <path id="Path_3259" data-name="Path 3259" d="M706.149,358.677c-.364-.3-.723-.585-1.075-.881A.281.281,0,0,1,705,357.6c-.006-.641,0-1.282,0-1.924v-5.918a5.475,5.475,0,0,1,.693.006.554.554,0,0,1,.462.54c0,.038,0,.077,0,.115q0,4.049,0,8.1Z" transform="translate(-298.796 -28.554)" fill="#d9ae39"/>
  </g>
</svg>
