<svg id="star" xmlns="http://www.w3.org/2000/svg" width="13.051" height="12.45" viewBox="0 0 13.051 12.45">
  <g id="Group_3901" data-name="Group 3901" transform="translate(0 0)">
    <path id="Path_2463" data-name="Path 2463" d="M13.033,16.524a.382.382,0,0,0-.309-.26l-4.046-.588L6.869,12.009a.382.382,0,0,0-.686,0l-1.81,3.666-4.046.588a.382.382,0,0,0-.212.652l2.928,2.854L2.352,23.8a.382.382,0,0,0,.555.4l3.619-1.9,3.619,1.9a.382.382,0,0,0,.555-.4l-.691-4.03,2.928-2.854A.382.382,0,0,0,13.033,16.524Z" transform="translate(0 -11.796)" fill="#ffbd06"/>
  </g>
</svg>
