<svg xmlns="http://www.w3.org/2000/svg" width="37.11" height="32.249" viewBox="0 0 37.11 32.249"><path data-name="Path 60" d="M15.243 7.524a2.006 2.006 0 0 1 2.005-2.006h8.073l-1.884-2.215a2.006 2.006 0 0 1 3.056-2.6l4.687 5.522a2 2 0 0 1 0 2.6l-4.687 5.519a2.006 2.006 0 1 1-3.056-2.6l1.884-2.217h-8.073a2.005 2.005 0 0 1-2.005-2.003zm-3.238.922a.677.677 0 0 0 .15-.713 1.993 1.993 0 0 0-.636-.9L4.265 1.19a1.456 1.456 0 0 0-.441-.254.889.889 0 0 0-.466-.1.59.59 0 0 0-.605.247L1.386 2.769l9.391 7.267zm11.754 15.77c-.6-.184-1.042-.323-1.341-.413s-.487-.158-.571-.193a8.005 8.005 0 0 1-1.536-.9l-8.442-6.651a6.78 6.78 0 0 1-1.29-1.252 9.717 9.717 0 0 1-.863-1.3 1.886 1.886 0 0 1-.163-1.76 2.435 2.435 0 0 1 .305-.478L.537 3.939q-1.485 3.51 1.138 9.721a20.687 20.687 0 0 0 3.565 5.294 46.677 46.677 0 0 0 6.326 5.81 40.027 40.027 0 0 0 5.721 3.785q2.953 1.6 5.867 2.835a10.344 10.344 0 0 0 2.911.753 20.651 20.651 0 0 0 3.451.074 15.233 15.233 0 0 0 3.143-.438 5.412 5.412 0 0 0 2.1-1.08l-9.324-7.324c-.524.748-1.081 1.033-1.676.847zm12.465 1.953l-6.767-5.261a2.93 2.93 0 0 0-.656-.362.97.97 0 0 0-1.34.289l-1.261 1.54 9.32 7.329 1.264-1.562a4.185 4.185 0 0 0 .319-.986c.033-.228-.26-.556-.879-.987z" fill="#fff"/></svg>