<?xml version="1.0" encoding="utf-8"?>
<!-- Generator: Adobe Illustrator 19.0.0, SVG Export Plug-In . SVG Version: 6.00 Build 0)  -->
<svg version="1.1" id="Layer_1" xmlns="http://www.w3.org/2000/svg" xmlns:xlink="http://www.w3.org/1999/xlink" x="0px" y="0px"
	 width="488.2px" height="140.4px" viewBox="0 0 488.2 140.4" style="enable-background:new 0 0 488.2 140.4;" xml:space="preserve"
	>
<style type="text/css">
	.st0{fill:#0A6E40;}
	.st1{fill:#F2A82F;}
	.st2{fill:#FFFFFF;}
</style>
<g id="XMLID_24_">
	<g id="XMLID_489_">
		<g id="XMLID_1124_">
			<g id="XMLID_217_">
				<path id="XMLID_218_" class="st0" d="M72.1,68.5c2.5,2.3,4.1,5.8,2.5,10c-0.6,1.5-1.6,2.7-2.8,3.7v7.8c0.9,0.5,1.5,1.5,1.5,2.7
					c0,1.5-1.1,2.8-2.6,3c-0.2,0-0.3,0-0.5,0c-0.2,0-0.4,0-0.6,0c-1.5-0.3-2.5-1.5-2.5-3c0-1.1,0.6-2.1,1.5-2.6v-5.8
					c-5,2.5-11,3.7-10.9,9.1c0,2.7,1.1,4.7,2.5,6.2c2.4,2.5,6.1,3.4,9.6,2.7c0.1,0,0.2,0,0.2,0c0.3-0.1,0.5-0.1,0.8-0.2
					c5.8-1.5,10.7-6,12.5-12.2C85.7,80.8,80.8,71.5,72.1,68.5z"/>
			</g>
		</g>
		<g id="XMLID_1118_">
			<g id="XMLID_104_">
				<path id="XMLID_105_" class="st0" d="M73.3,15.6v28.1c0,1.7-1.4,3.1-3.1,3.1h0c-1.7,0-3.1-1.4-3.1-3.1V15.6
					c0-1.7,1.4-3.1,3.1-3.1h0C71.9,12.5,73.3,13.9,73.3,15.6z"/>
			</g>
		</g>
		<g id="XMLID_1095_">
			<g id="XMLID_228_">
				<g id="XMLID_231_">
					<path id="XMLID_232_" class="st1" d="M74.1,127.9c0,0-3.5-11.2,3.4-21.5S96,94.2,100.1,92.1c4.2-2.1,6.5-4.1,6.6-4.5
						c1.2,1.1,3.2,3.7,0.3,7.5c-3,3.9-6.3,5.4-9.2,6.3c-3.2,0.9-5.8,3-5.4,4c0.5,1,7.6,0.9,12.8-4.8c5.2-5.8,8.9-11.1,10.4-14.8
						c1.8-4.4,6.3-10.3,10.4-10.3c0.1,4-3,15.8-6.5,21.4c-2.4,3.8-8.7,13.5-17.6,19.2c-7.8,4.9-14,6.6-19,7.4
						C78,124.1,74.6,126.7,74.1,127.9z"/>
				</g>
				<g id="XMLID_229_">
					<path id="XMLID_230_" class="st1" d="M66.4,127.9c0,0,3.5-11.2-3.4-21.5S44.5,94.2,40.4,92.1c-4.2-2.1-6.5-4.1-6.6-4.5
						c-1.2,1.1-3.2,3.7-0.3,7.5c3,3.9,6.3,5.4,9.2,6.3c3.2,0.9,5.8,3,5.4,4c-0.5,1-7.6,0.9-12.8-4.8c-5.2-5.8-8.9-11.1-10.4-14.8
						c-1.8-4.4-6.3-10.3-10.4-10.3c-0.1,4,3,15.8,6.5,21.4c2.4,3.8,8.7,13.5,17.6,19.2c7.8,4.9,14,6.6,19,7.4
						C62.5,124.1,65.9,126.7,66.4,127.9z"/>
				</g>
			</g>
		</g>
		<g id="XMLID_871_">
			<g id="XMLID_402_">
				<g id="XMLID_425_">
					<circle id="XMLID_426_" class="st0" cx="116.2" cy="48.8" r="5.2"/>
				</g>
				<g id="XMLID_423_">
					<circle id="XMLID_424_" class="st0" cx="119.8" cy="64.2" r="6.2"/>
				</g>
				<g id="XMLID_421_">
					<circle id="XMLID_422_" class="st0" cx="110" cy="36.8" r="3.9"/>
				</g>
				<g id="XMLID_419_">
					<circle id="XMLID_420_" class="st0" cx="101.8" cy="27.6" r="3.2"/>
				</g>
				<g id="XMLID_417_">
					<circle id="XMLID_418_" class="st0" cx="91.5" cy="21.7" r="3.2"/>
				</g>
				<g id="XMLID_415_">
					<circle id="XMLID_416_" class="st0" cx="81.3" cy="17" r="2"/>
				</g>
				<g id="XMLID_413_">
					<circle id="XMLID_414_" class="st0" cx="24.2" cy="48.8" r="5.2"/>
				</g>
				<g id="XMLID_411_">
					<circle id="XMLID_412_" class="st0" cx="20.6" cy="64.2" r="6.2"/>
				</g>
				<g id="XMLID_409_">
					<circle id="XMLID_410_" class="st0" cx="30.4" cy="36.8" r="3.9"/>
				</g>
				<g id="XMLID_407_">
					<circle id="XMLID_408_" class="st0" cx="38.6" cy="27.6" r="3.2"/>
				</g>
				<g id="XMLID_405_">
					<circle id="XMLID_406_" class="st0" cx="48.9" cy="21.7" r="3.2"/>
				</g>
				<g id="XMLID_403_">
					<circle id="XMLID_404_" class="st0" cx="59.1" cy="17" r="2"/>
				</g>
			</g>
		</g>
		<g id="XMLID_811_">
			<g id="XMLID_286_">
				<g id="XMLID_294_">
					<path id="XMLID_295_" class="st0" d="M70.7,46.8v8.6c-0.2,0-0.3-0.1-0.5-0.1c-0.2,0-0.4,0-0.5,0.1v-8.6H70.7z"/>
				</g>
				<g id="XMLID_289_">
					<g id="XMLID_292_">
						<path id="XMLID_293_" class="st0" d="M81.4,58.5v0.1c0,4.6-4,6.3-8.2,8.2L72.7,67c-0.6,0.3-1.2,0.5-1.8,0.8
							c-0.3,0.2-0.7,0.3-1,0.5c-2.8,1.4-4.5,3.1-5.4,5.2c-2.1,5,0.6,8,1.5,8.8l1.8,1.7l-2.3-0.8C56.5,80.1,52.2,71.4,54.9,62
							c1.8-6.5,7.1-11.4,13.6-12.7l0.4-0.1v1l-0.2,0.1c-6.2,1.3-11.1,6-12.8,12c-2.3,8.2,0.9,15.7,7.9,19.2
							c-1.2-1.9-1.7-4.8-0.3-8.2c1.7-4.1,5.7-5.8,9.3-7.4c4-1.7,7.7-3.3,7.6-7.3c0-2.3-0.8-4.3-2.3-5.8c-1.6-1.6-3.8-2.6-6.3-2.7
							l-0.3,0v-1l0.3,0c2.8,0.1,5.2,1.2,7,3C80.5,53.8,81.4,56,81.4,58.5z"/>
					</g>
					<path id="XMLID_291_" class="st0" d="M70.7,67.4v28.4c-0.2,0-0.3,0-0.5,0c-0.2,0-0.4,0-0.6,0V67.9C70,67.7,70.4,67.5,70.7,67.4
						z"/>
					<path id="XMLID_290_" class="st0" d="M70.7,95.8v32.1h-1.1V95.8c0.2,0,0.4,0,0.6,0C70.4,95.8,70.6,95.8,70.7,95.8z"/>
				</g>
				<g id="XMLID_287_">
					<path id="XMLID_288_" class="st0" d="M73.3,58.5c0,1.5-1.1,2.8-2.6,3c-0.2,0-0.3,0.1-0.5,0.1c-0.2,0-0.4,0-0.5-0.1
						c-1.5-0.3-2.5-1.5-2.5-3c0-1.5,1.1-2.8,2.5-3c0.2,0,0.4-0.1,0.5-0.1c0.2,0,0.4,0,0.5,0.1C72.2,55.7,73.3,57,73.3,58.5z"/>
				</g>
			</g>
		</g>
		<g id="XMLID_490_">
			<g id="XMLID_470_">
				<g id="XMLID_471_">
					<g id="XMLID_544_">
						<path id="XMLID_545_" class="st0" d="M140.4,72l-5.1-0.1c0,2.9-0.4,5.7-0.8,8.6l-1.7-0.3c0.5-3.3,0.8-6.7,0.8-10h-1.7
							c0,3.8-0.4,7.6-1.1,11.3l5,0.9c0.6-2.9,0.8-5.8,1.1-8.7l1.7,0.1c-0.4,6.6-1.7,13.2-3.9,19.4l-1.6-0.6c1-2.8,1.8-5.6,2.4-8.5
							l-5-1.1c-0.7,3.2-1.6,6.3-2.8,9.3l1.6,0.6c1-2.6,1.8-5.3,2.5-8l1.7,0.4c-0.7,2.8-1.5,5.5-2.6,8.2l4.8,1.8
							C138.6,88.1,140.2,80.1,140.4,72z"/>
					</g>
					<g id="XMLID_542_">
						<path id="XMLID_543_" class="st0" d="M135,97.3l-4.7-2c-1.1,2.6-2.4,5.2-3.8,7.7l-1.5-0.9c1.7-2.9,3.2-5.9,4.4-9l-1.6-0.6
							c-1.4,3.5-3.1,7-5.1,10.2l4.3,2.7c1.5-2.5,3-5.1,4.1-7.8l1.6,0.7c-2.7,6.1-6.3,11.7-10.7,16.7l-1.3-1.1c1.9-2.2,3.7-4.6,5.3-7
							l-4.3-2.8c-1.8,2.7-3.8,5.3-6,7.7l1.3,1.1c1.8-2.1,3.6-4.2,5.2-6.5l1.4,1c-1.6,2.4-3.5,4.6-5.3,6.7l3.8,3.4
							C127.5,111.5,131.9,104.7,135,97.3z"/>
					</g>
					<g id="XMLID_540_">
						<path id="XMLID_541_" class="st0" d="M120.8,118.8l-3.7-3.5c-2,2.1-4.1,4-6.3,5.8l-1.1-1.3c2.6-2.1,5.1-4.4,7.3-6.8l-1.3-1.1
							c-2.6,2.8-5.4,5.4-8.4,7.7l3.1,4.1c2.3-1.8,4.6-3.7,6.7-5.8l1.2,1.2c-4.7,4.7-10.1,8.6-16,11.7l-0.8-1.5
							c2.6-1.4,5.1-2.9,7.5-4.7l-3-4.2c-2.6,1.9-5.4,3.6-8.4,5l0.8,1.5c2.5-1.2,4.9-2.7,7.2-4.2l1,1.4c-2.4,1.6-4.8,3.1-7.4,4.3
							l2.3,4.6C108.7,129.5,115.2,124.6,120.8,118.8z"/>
					</g>
					<g id="XMLID_538_">
						<path id="XMLID_539_" class="st0" d="M99.8,133.8l-2.2-4.6c-2.6,1.2-5.3,2.2-8,3.1l-0.5-1.6c3.2-1,6.3-2.3,9.3-3.8l-0.8-1.5
							c-3.4,1.7-7,3.1-10.6,4.1l1.4,4.9c2.8-0.8,5.6-1.8,8.3-3l0.7,1.6c-6.1,2.6-12.6,4.4-19.1,5.2l-0.2-1.7
							c2.9-0.3,5.8-0.9,8.7-1.6l-1.3-5c-3.2,0.8-6.4,1.3-9.6,1.6l0.2,1.7c2.8-0.3,5.5-0.7,8.3-1.3l0.4,1.7c-2.8,0.7-5.6,1.1-8.5,1.4
							l0.5,5.1C84.7,139.3,92.5,137.3,99.8,133.8z"/>
					</g>
					<g id="XMLID_536_">
						<path id="XMLID_537_" class="st0" d="M74.8,140.2l-0.3-5.1c-2.9,0.2-5.7,0.2-8.6,0l0.1-1.7c3.3,0.2,6.7,0.2,10-0.1l-0.2-1.7
							c-3.8,0.4-7.6,0.4-11.4,0l-0.5,5.1c2.9,0.3,5.9,0.3,8.8,0.2l0.1,1.7c-6.6,0.3-13.3-0.4-19.7-2.1l0.4-1.7
							c2.9,0.7,5.7,1.3,8.7,1.6l0.6-5.1c-3.2-0.4-6.4-1-9.6-1.9l-0.5,1.6c2.7,0.8,5.4,1.3,8.2,1.8l-0.2,1.7c-2.8-0.4-5.6-1-8.4-1.8
							l-1.4,4.9C58.7,139.9,66.8,140.8,74.8,140.2z"/>
					</g>
					<g id="XMLID_534_">
						<path id="XMLID_535_" class="st0" d="M49.2,137.2l1.5-4.9c-2.7-0.9-5.4-1.9-8-3.1l0.7-1.5c3,1.4,6.2,2.6,9.4,3.5l0.5-1.6
							c-3.7-1-7.2-2.4-10.6-4.1l-2.3,4.6c2.6,1.3,5.3,2.5,8.1,3.4L48,135c-6.3-2.1-12.2-5.2-17.6-9.1l1-1.4c2.4,1.7,4.9,3.2,7.5,4.7
							l2.4-4.5c-2.9-1.5-5.6-3.3-8.2-5.3l-1,1.4c2.2,1.7,4.5,3.2,7,4.6l-0.8,1.5c-2.5-1.4-4.9-3-7.2-4.7l-3.1,4.1
							C34.3,131,41.5,134.8,49.2,137.2z"/>
					</g>
					<g id="XMLID_532_">
						<path id="XMLID_533_" class="st0" d="M26.4,125.1l3.2-4c-2.2-1.8-4.4-3.7-6.3-5.8l1.2-1.2c2.3,2.4,4.8,4.7,7.5,6.7l1-1.4
							c-3-2.3-5.9-4.9-8.4-7.7l-3.8,3.4c2,2.1,4.1,4.2,6.4,6.1l-1.1,1.3c-5.1-4.3-9.5-9.3-13.2-14.8l1.4-0.9c1.6,2.4,3.4,4.8,5.3,7
							l3.9-3.3c-2.1-2.5-4.1-5.1-5.8-7.9l-1.4,0.9c1.5,2.4,3.1,4.6,4.9,6.8l-1.3,1.1c-1.8-2.2-3.5-4.5-5-7l-4.3,2.7
							C14.7,114,20.2,120.1,26.4,125.1z"/>
					</g>
					<g id="XMLID_530_">
						<path id="XMLID_531_" class="st0" d="M9.6,105.6L14,103c-1.5-2.5-2.7-5.1-3.8-7.7l1.6-0.7c1.3,3.1,2.8,6.1,4.6,8.9l1.4-0.9
							c-2-3.2-3.7-6.6-5.1-10.2l-4.8,1.8c1,2.8,2.3,5.4,3.7,8l-1.5,0.8C6.9,97.3,4.6,91,3.2,84.6l1.7-0.4c0.6,2.9,1.4,5.7,2.4,8.5
							l4.8-1.7c-1.1-3.1-1.9-6.2-2.5-9.4l-1.7,0.3c0.5,2.7,1.2,5.5,2.1,8.1l-1.6,0.5c-0.9-2.7-1.6-5.5-2.1-8.3l-5,0.9
							C2.7,91,5.5,98.6,9.6,105.6z"/>
					</g>
					<g id="XMLID_528_">
						<path id="XMLID_529_" class="st0" d="M0.9,81.3l5.1-0.8c-0.4-2.8-0.7-5.7-0.8-8.6l1.7,0c0.1,3.3,0.4,6.7,1,10l1.7-0.3
							c-0.7-3.7-1-7.5-1.1-11.3H3.4C3.5,73.1,3.6,76.1,4,79l-1.7,0.2c-0.9-6.6-0.8-13.3,0.2-19.8l1.7,0.3c-0.4,2.9-0.7,5.8-0.8,8.8
							l5.1,0.1c0.1-3.3,0.4-6.5,1-9.7l-1.7-0.3c-0.6,2.7-0.8,5.5-1,8.3l-1.7-0.1c0.2-2.9,0.5-5.7,1-8.5l-5-0.9
							C-0.3,65.2-0.4,73.3,0.9,81.3z"/>
					</g>
					<g id="XMLID_526_">
						<path id="XMLID_527_" class="st0" d="M1.5,55.5l5,1.1c0.6-2.8,1.4-5.6,2.3-8.3l1.6,0.6c-1.1,3.1-2,6.4-2.6,9.7l1.7,0.3
							c0.7-3.7,1.7-7.4,3.1-10.9l-4.8-1.8c-1.1,2.7-1.9,5.5-2.6,8.4l-1.7-0.4c1.6-6.4,4.1-12.7,7.4-18.4l1.5,0.9
							c-1.5,2.5-2.8,5.2-3.9,7.9l4.7,2c1.3-3,2.8-5.9,4.5-8.7l-1.4-0.9c-1.5,2.4-2.8,4.8-3.9,7.4l-1.6-0.7c1.1-2.6,2.5-5.1,4-7.6
							l-4.3-2.7C6.3,40.1,3.2,47.6,1.5,55.5z"/>
					</g>
					<g id="XMLID_524_">
						<path id="XMLID_525_" class="st0" d="M11.5,31.7l4.3,2.8c1.6-2.4,3.3-4.7,5.2-6.8l1.3,1.1c-2.2,2.5-4.2,5.2-6,8.1l1.4,0.9
							c2-3.2,4.3-6.3,6.9-9.1l-3.8-3.4c-1.9,2.2-3.8,4.5-5.5,6.9l-1.4-1c3.8-5.4,8.4-10.3,13.5-14.5l1.1,1.3
							c-2.3,1.8-4.5,3.8-6.5,5.9l3.7,3.5c2.3-2.3,4.7-4.5,7.3-6.5l-1-1.4c-2.2,1.7-4.3,3.5-6.3,5.5l-1.2-1.2c2-2,4.2-3.9,6.5-5.6
							l-3.1-4.1C21.5,19,15.9,25,11.5,31.7z"/>
					</g>
					<g id="XMLID_522_">
						<path id="XMLID_523_" class="st0" d="M29.4,13.1l3,4.2c2.3-1.7,4.8-3.2,7.3-4.5l0.8,1.5c-2.9,1.6-5.8,3.4-8.5,5.4l1,1.4
							c3-2.3,6.3-4.3,9.7-6l-2.3-4.6c-2.6,1.3-5.2,2.8-7.6,4.4l-1-1.4c5.5-3.7,11.5-6.6,17.9-8.6l0.5,1.6c-2.8,0.9-5.6,1.9-8.2,3.2
							l2.2,4.6c2.9-1.4,6-2.5,9.1-3.4l-0.5-1.6C50.2,10,47.5,10.9,45,12l-0.7-1.6c2.6-1.1,5.3-2.1,8.1-2.9L51,2.7
							C43.2,4.8,35.9,8.4,29.4,13.1z"/>
					</g>
					<g id="XMLID_520_">
						<path id="XMLID_521_" class="st0" d="M52.8,2.2l1.3,5c2.8-0.7,5.6-1.3,8.4-1.6l0.2,1.7c-3.3,0.4-6.6,1.1-9.8,2l0.5,1.6
							c3.7-1,7.4-1.7,11.2-2.1L64,3.7c-2.9,0.3-5.8,0.7-8.7,1.4L55,3.4c6.5-1.5,13.1-2,19.8-1.6l-0.1,1.7c-2.9-0.2-5.9-0.2-8.8,0
							l0.3,5.1c3.3-0.2,6.5-0.2,9.8,0.1L76,7.1c-2.8-0.2-5.6-0.3-8.4-0.2l-0.1-1.7c2.9-0.1,5.7,0,8.6,0.2l0.5-5.1
							C68.7-0.4,60.6,0.2,52.8,2.2z"/>
					</g>
					<g id="XMLID_518_">
						<path id="XMLID_519_" class="st0" d="M78.5,0.5l-0.6,5.1c2.9,0.3,5.7,0.9,8.4,1.6l-0.4,1.7C82.7,8,79.4,7.4,76,7.1l-0.2,1.7
							c3.8,0.4,7.5,1,11.2,2.1L88.5,6c-2.8-0.8-5.7-1.4-8.6-1.8l0.2-1.7c6.6,1,13,2.9,19,5.7l-0.7,1.5c-2.7-1.3-5.4-2.3-8.2-3.2
							l-1.5,4.9c3.1,1,6.1,2.2,9,3.7l0.8-1.5c-2.5-1.2-5.1-2.3-7.7-3.2l0.6-1.6c2.7,0.9,5.4,2,7.9,3.3l2.3-4.6
							C94.3,3.8,86.5,1.4,78.5,0.5z"/>
					</g>
					<g id="XMLID_516_">
						<path id="XMLID_517_" class="st0" d="M103.1,8.2l-2.4,4.5c2.5,1.4,5,2.8,7.3,4.5l-1,1.4c-2.7-2-5.6-3.7-8.6-5.2L97.7,15
							c3.4,1.7,6.6,3.7,9.7,6l3.1-4.1c-2.4-1.7-4.8-3.4-7.4-4.8l0.8-1.5c5.8,3.3,11.1,7.4,15.6,12.2l-1.2,1.2
							c-2-2.1-4.2-4.1-6.5-5.9l-3.2,4c2.5,2,4.9,4.3,7.1,6.7l1.3-1.1c-1.9-2-3.9-4-6-5.8l1.1-1.3c2.2,1.8,4.2,3.9,6.2,5.9l3.8-3.4
							C116.7,17,110.2,12,103.1,8.2z"/>
					</g>
					<g id="XMLID_474_">
						<path id="XMLID_515_" class="st0" d="M123.3,24.3l-3.9,3.3c1.9,2.2,3.6,4.5,5.2,6.8l-1.4,0.9c-1.8-2.8-3.9-5.4-6.1-7.9
							l-1.3,1.1c2.6,2.8,4.9,5.9,6.9,9.1L127,35c-1.5-2.5-3.3-4.9-5.1-7.2l1.3-1.1c4.2,5.1,7.7,10.9,10.2,17l-1.6,0.7
							c-1.2-2.7-2.4-5.4-3.9-7.9l-4.4,2.6c1.7,2.8,3.1,5.7,4.2,8.8l1.6-0.6c-1-2.6-2.2-5.1-3.5-7.6l1.5-0.8c1.3,2.5,2.6,5.1,3.6,7.8
							l4.8-1.8C132.8,37.3,128.5,30.4,123.3,24.3z"/>
					</g>
					<g id="XMLID_472_">
						<path id="XMLID_473_" class="st0" d="M136.3,46.6l-4.8,1.7c1,2.7,1.7,5.5,2.3,8.3l-1.7,0.4c-0.7-3.3-1.7-6.5-2.9-9.6l-1.6,0.6
							c1.4,3.5,2.4,7.2,3.1,10.9l5-0.9c-0.5-2.9-1.3-5.7-2.2-8.5l1.6-0.5c2.1,6.3,3.2,12.9,3.4,19.5l-1.7,0c0-2.9-0.4-5.9-0.8-8.8
							l-5.1,0.8c0.5,3.2,0.7,6.5,0.8,9.7h1.7c-0.1-2.8-0.2-5.6-0.6-8.3l1.7-0.2c0.4,2.8,0.5,5.7,0.6,8.6h5.1
							C140.4,62.2,139,54.1,136.3,46.6z"/>
					</g>
				</g>
			</g>
		</g>
	</g>
	<g id="XMLID_160_">
		<g id="XMLID_551_">
			<path id="XMLID_591_" class="st0" d="M170.7,29.4l-0.3,1l-0.3,1.5l-0.1,0.9l-0.5,0c-0.3-0.5-0.7-0.9-1.1-1
				c-0.6-0.2-1.3-0.4-2.1-0.4c-0.4,0-0.7,0-1,0l-0.1,2l0,8.6c0,2.1,0.1,3.7,0.4,4.7l-1.3,0l-2.8,0l-1.2,0c0-0.3,0.1-0.7,0.2-1.1
				c0.1-1.2,0.1-2.4,0.1-3.6l0-10.6l-0.2,0c-1,0-1.8,0-2.3,0.1c-0.3,0.1-0.7,0.2-1,0.3c-0.5,0.2-1,0.6-1.5,1.1l-0.5-0.3l0.2-1
				l0.2-1.3l0.2-1.1c2.3,0.1,4.7,0.1,7.3,0.1C165.8,29.5,168.3,29.5,170.7,29.4z"/>
			<path id="XMLID_589_" class="st0" d="M179.7,34.4l-0.2,1.4l-0.3,1.7l-0.1,1.3l-0.5,0.1c-0.4-0.7-0.9-1.1-1.5-1.1
				c-0.5,0-0.9,0.2-1.2,0.7s-0.4,1.1-0.4,1.9l0,1.7l0,0.4c0,0.3,0,0.6,0,0.8c0,1.2,0.2,2.4,0.5,3.5l-1.3,0l-2.1,0l-1.2,0
				c0.1-0.4,0.1-0.7,0.2-1.1c0.1-0.6,0.1-1.8,0.1-3.6l0.1-2.8c0-1.1,0-1.9-0.2-2.6c-0.1-0.5-0.4-0.8-1-0.8h-0.2l0.5-1.2l1.1,0l1.9,0
				l1.3-0.1l-0.1,2.8L176,36c0.5-0.7,0.9-1.2,1.3-1.5s0.9-0.4,1.4-0.4C179,34.1,179.4,34.2,179.7,34.4z"/>
			<path id="XMLID_587_" class="st0" d="M193,45.5l-0.5,1.2l-0.9,0l-2,0.1l-1.3,0.1l-0.2-2.1l-1,0.9c-1,0.9-2,1.3-3.1,1.3
				c-1.1,0-2-0.4-2.6-1.2c-0.5-0.7-0.8-1.7-0.7-3.1l0-3.6c0-1,0-2.2-0.2-3.6c-0.1-0.5-0.1-0.9-0.3-1.2l1.3,0.1l2.1,0l1.2,0
				c-0.1,0.4-0.1,0.8-0.1,1.1c-0.1,0.9-0.2,2.1-0.2,3.6l0,2.6c0,0.6,0,1,0.1,1.3c0.2,0.7,0.7,1,1.4,1c0.6,0,1.1-0.2,1.4-0.7
				c0.3-0.4,0.5-1.2,0.5-2.3l0-1.9c0-1.3-0.1-2.5-0.2-3.6c0-0.3-0.1-0.6-0.3-1.2l1.3,0.1l2.1,0l1.2,0c0,0.3-0.1,0.7-0.2,1.1
				c-0.1,0.9-0.1,2.1-0.1,3.6l0,2.8c0,1.2,0,1.9,0,2.1c0.1,0.9,0.5,1.3,1.1,1.3L193,45.5z"/>
			<path id="XMLID_585_" class="st0" d="M206.4,46.9l-1.3,0l-2.1,0l-1.2,0c0-0.3,0.1-0.7,0.1-1.1c0.1-0.8,0.1-2,0.1-3.6l0-2.4
				c0-0.7,0-1.2-0.1-1.5c-0.2-0.7-0.7-1-1.4-1c-0.6,0-1.1,0.2-1.5,0.7c-0.3,0.4-0.5,1.2-0.5,2.3l0,1.9c0,2.1,0.1,3.7,0.4,4.7l-1.3,0
				l-2.1,0l-1.2,0c0-0.4,0.1-0.7,0.1-1.1c0.1-0.7,0.1-1.9,0.1-3.6l0-2.8c0-1.2,0-2-0.2-2.6c-0.1-0.5-0.4-0.8-1-0.8l-0.2,0l0.5-1.2
				l1.1,0l2.1,0l1.3-0.1l-0.1,2.1l0.9-0.8c1-0.9,2-1.3,3.2-1.3c1.2,0,2.1,0.4,2.7,1.1c0.5,0.6,0.8,1.7,0.7,3.1l0,3.5
				C206,44.3,206.1,45.8,206.4,46.9z"/>
			<path id="XMLID_581_" class="st0" d="M220.3,34.8l-0.4,0.8l-0.4,0.9l-1-0.1c0,0-0.1,0-0.2,0c-0.1,0-0.2,0-0.3,0l-0.2,0
				c0.2,0.5,0.4,1,0.4,1.6c0,1.3-0.5,2.4-1.4,3.1s-2.3,1.1-4,1.1c-0.5,0-1,0-1.5-0.1c-0.3,0.3-0.5,0.6-0.5,0.9c0,0.7,0.9,1,2.7,1
				l0.5,0l1.3,0c2.7,0,4,1.2,4,3.6c0,1.6-0.6,2.9-1.9,3.9s-2.9,1.5-5,1.5c-1.6,0-2.9-0.3-3.8-1c-1-0.7-1.5-1.5-1.5-2.5
				c0-1,0.6-1.8,1.8-2.4l0.5-0.2l-0.5-0.2c-0.9-0.4-1.4-1-1.4-1.8c0-0.6,0.3-1.2,1-1.8l1.3-1.2c-1.3-0.8-2-1.9-1.9-3.4
				c0-1.3,0.5-2.3,1.4-3c0.9-0.7,2.2-1.1,3.9-1.1c0.5,0,1,0,1.4,0.1c0.5,0.1,1,0.2,1.4,0.4l2.1,0l1.1,0l0.8-0.1L220.3,34.8z
				 M216.1,49c0-0.6-0.2-1-0.7-1.2c-0.2-0.1-0.5-0.2-0.8-0.3c-0.7-0.1-1.4-0.2-1.9-0.1l-0.6,0c-0.3,0-0.6,0-0.9,0.1
				c-0.2,0-0.4,0.1-0.6,0.2c-0.5,0.3-0.8,0.8-0.8,1.3c0,0.6,0.3,1.1,0.8,1.4c0.6,0.4,1.3,0.5,2.2,0.5c1,0,1.7-0.2,2.4-0.6
				C215.8,50,216.1,49.6,216.1,49z M214.5,38.6c0-1.8-0.5-2.8-1.4-2.8l0,0c-0.5,0-0.8,0.2-1,0.5c-0.2,0.3-0.3,0.9-0.3,1.6
				c0,1.8,0.5,2.8,1.4,2.8C214,40.7,214.5,40,214.5,38.6z"/>
			<path id="XMLID_579_" class="st0" d="M234.3,34.9l-0.3,1l-0.3,1.1c-0.7-0.1-1.3-0.1-1.8-0.1l-0.9,0l-0.1,2l0,2.9
				c0,0.9,0.1,1.6,0.2,2c0.2,0.7,0.7,1.1,1.4,1.1c0.5,0,0.9-0.1,1.3-0.4l0.4,0.2l-0.3,0.9l-0.3,1.2c-1.3,0.4-2.3,0.6-3,0.6
				c-1.8,0-2.8-0.8-3.2-2.4c-0.1-0.5-0.2-1.3-0.2-2.4l0-3.3c0-1.2-0.1-2.1-0.2-2.6c-0.1-0.5-0.4-0.7-1-0.7l-0.4,0l0.5-1.3l1.3,0
				l0-0.4c0-0.5-0.1-1-0.1-1.5l1.1-0.4l1.8-0.8l0.9-0.5l0.3,0.4c-0.2,0.9-0.2,2-0.3,3.3l1.6,0c0.5,0,1-0.1,1.5-0.2L234.3,34.9z"/>
			<path id="XMLID_575_" class="st0" d="M245.7,45.7l-0.4,1.3l-0.9,0l-2,0.1l-1.2,0.1l-0.1-1.7l-1,0.9c-0.8,0.7-1.7,1.1-2.6,1.1
				c-1,0-1.7-0.4-2.3-1.1c-0.6-0.7-0.9-1.6-0.9-2.7c0-1.9,0.9-3.1,2.7-3.5c0.5-0.1,1.2-0.2,2.3-0.4c0.5-0.1,0.8-0.2,0.9-0.2
				c0.3-0.1,0.4-0.4,0.4-0.8c0-1.2-0.7-1.8-2-1.8c-1.1,0-2,0.4-2.8,1.2l-0.4-0.2l0.3-2.8c1.3-0.5,2.7-0.8,4.1-0.8
				c2.3,0,3.8,0.8,4.3,2.3c0.2,0.4,0.2,1.2,0.2,2.3l0,3.5l0,1.5c0,1.1,0.4,1.7,1.1,1.7h0.1L245.7,45.7z M242.8,33.5l-0.4,0.3
				l-0.4,0.3l-1.2-1.2l-1.2-1.1l-1.2,1.1l-1.2,1.1l-0.4-0.3l-0.4-0.3l0.5-0.8l0.7-1.2l0.4-0.8l0.8,0l1.5,0l1-0.1l0.4,0.9l0.7,1.2
				L242.8,33.5z M240.7,42.3L240.7,42.3l0-1c-0.9,0.1-1.5,0.2-1.9,0.4c-0.5,0.3-0.7,0.8-0.7,1.5c0,0.4,0.1,0.8,0.3,1.2
				c0.2,0.3,0.5,0.5,0.9,0.5c0.4,0,0.8-0.2,1-0.6C240.6,44,240.7,43.3,240.7,42.3z"/>
			<path id="XMLID_573_" class="st0" d="M266.1,47l-1.3,0l-2.1,0l-1.2,0c0.1-0.4,0.1-0.8,0.1-1.1c0.1-0.7,0.1-2,0.2-3.6l0-2.5
				c0-0.6,0-1.1-0.1-1.4c-0.2-0.7-0.6-1-1.4-1c-0.6,0-1.1,0.2-1.4,0.7c-0.2,0.2-0.3,0.4-0.3,0.6c-0.1,0.3-0.1,0.8-0.1,1.7l0,2.2
				c0,1.9,0.1,3.4,0.4,4.4l-1.3,0l-2.1,0l-1.2,0c0-0.3,0.1-0.7,0.2-1.1c0.1-0.8,0.1-2.1,0.1-3.6l0-2.5c0-0.7,0-1.2-0.1-1.4
				c-0.2-0.7-0.6-1-1.4-1c-0.6,0-1.1,0.2-1.5,0.7c-0.3,0.4-0.5,1.2-0.5,2.3l0,1.9c0,2.2,0.1,3.8,0.4,4.7l-1.3,0l-2.1,0l-1.2,0
				c0.1-0.4,0.1-0.7,0.2-1.1c0.1-0.6,0.1-1.8,0.1-3.6l0.1-2.8c0-1.1,0-1.9-0.2-2.6c-0.1-0.5-0.4-0.8-1-0.8l-0.2,0l0.5-1.2l1.1,0
				l2.1,0l1.3-0.1l-0.1,2.1l0.9-0.9c0.9-0.9,2-1.3,3.1-1.3c1.7,0,2.7,0.8,3.1,2.3l1-0.9c0.9-0.9,2-1.3,3.1-1.3c1.5,0,2.5,0.6,3,1.9
				c0.2,0.5,0.3,1.3,0.3,2.4l0,3.5C265.7,44.5,265.8,46.1,266.1,47z"/>
			<path id="XMLID_570_" class="st0" d="M291,29.2c-0.1,0.6-0.3,1.2-0.9,1.6c-0.5,0.4-0.9,0.8-1.2,0.9c0,0.3,0,0.7,0,1.3
				c0,0.6,0,1,0,1.3l0,7.3c0,2-0.7,3.6-2.2,4.6c-1.3,0.9-2.9,1.3-4.8,1.3c-0.6,0-1.3-0.1-2-0.2c-2.6-0.4-4.2-1.6-4.7-3.6
				c-0.2-0.8-0.3-1.9-0.3-3.3l0-1.5l0-4.7c0-1.1,0-2-0.2-2.6c-0.1-0.5-0.5-0.8-1.2-0.8h-0.2l0.5-1.4l1.3,0l3.1,0l1.3,0
				c-0.2,1.9-0.2,3.3-0.2,4.1l0,5.2c0,1.4,0,2.3,0.1,2.9c0.2,1.2,0.6,2,1.2,2.5c0.5,0.4,1.1,0.6,1.8,0.6c1.8,0,2.9-0.9,3.2-2.8
				c0.1-0.6,0.2-1.7,0.2-3.3l0-4.6c0-1-0.1-2.1-0.3-3.5c-0.1-0.4-0.2-0.8-0.3-1.2l1.3,0l2.2,0c0-0.5-0.1-1-0.5-1.5l0-0.2
				c0.2-0.1,0.4-0.1,0.6-0.2l0.1,0c0.6-0.2,1-0.2,1.2-0.2c0.3,0,0.6,0.2,0.8,0.6C291,28.5,291.1,28.9,291,29.2z M286.7,26.3
				l-1.2,0.9l-3,2.5l-0.4-0.4l-0.5-0.3l0.5-0.8l0.7-1.2l0.4-0.8l0.9,0l1.8,0l0.5-0.1L286.7,26.3z"/>
			<path id="XMLID_568_" class="st0" d="M303.8,47.1l-1.3,0l-2.1,0l-1.2,0c0-0.3,0.1-0.7,0.1-1.1c0.1-0.8,0.1-2,0.1-3.6l0-2.4
				c0-0.7,0-1.2-0.1-1.5c-0.2-0.7-0.7-1-1.4-1c-0.6,0-1.1,0.2-1.5,0.7c-0.3,0.4-0.5,1.2-0.5,2.3l0,1.9c0,2.1,0.1,3.7,0.4,4.7l-1.3,0
				l-2.1,0l-1.2,0c0-0.4,0.1-0.7,0.1-1.1c0.1-0.7,0.1-1.9,0.1-3.6l0-2.8c0-1.2,0-2-0.2-2.6c-0.1-0.5-0.4-0.8-1-0.8l-0.2,0l0.5-1.2
				l1.1,0l2.1,0l1.3-0.1l-0.1,2.1l0.9-0.8c1-0.9,2-1.3,3.2-1.3c1.2,0,2.1,0.4,2.7,1.1c0.5,0.6,0.8,1.7,0.7,3.1l0,3.5
				C303.4,44.5,303.5,46,303.8,47.1z"/>
			<path id="XMLID_564_" class="st0" d="M317.7,35l-0.4,0.8l-0.4,0.9l-1-0.1c0,0-0.1,0-0.2,0c-0.1,0-0.2,0-0.3,0l-0.2,0
				c0.2,0.5,0.4,1,0.4,1.6c0,1.3-0.5,2.4-1.4,3.1c-0.9,0.7-2.3,1.1-4,1.1c-0.5,0-1,0-1.5-0.1c-0.3,0.3-0.5,0.6-0.5,0.9
				c0,0.7,0.9,1,2.7,1l0.5,0l1.3,0c2.7,0,4,1.2,4,3.6c0,1.6-0.6,2.9-1.9,3.9c-1.2,1-2.9,1.5-5,1.5c-1.6,0-2.9-0.3-3.8-1
				c-1-0.7-1.5-1.5-1.5-2.5c0-1,0.6-1.8,1.8-2.4L307,47l-0.5-0.2c-0.9-0.4-1.4-1-1.4-1.8c0-0.6,0.3-1.2,1-1.8l1.3-1.2
				c-1.3-0.8-2-1.9-1.9-3.4c0-1.3,0.5-2.3,1.4-3c0.9-0.7,2.2-1.1,3.9-1.1c0.5,0,1,0,1.4,0.1c0.5,0.1,1,0.2,1.4,0.4l2.1,0l1.1,0
				l0.8-0.1L317.7,35z M313.5,49.2c0-0.6-0.2-1-0.7-1.2c-0.2-0.1-0.5-0.2-0.8-0.3c-0.7-0.1-1.4-0.2-1.9-0.1l-0.6,0
				c-0.3,0-0.6,0-0.9,0.1c-0.2,0-0.4,0.1-0.6,0.2c-0.5,0.3-0.8,0.8-0.8,1.3c0,0.6,0.3,1.1,0.8,1.4c0.6,0.4,1.3,0.5,2.2,0.5
				c1,0,1.7-0.2,2.4-0.6C313.2,50.2,313.5,49.8,313.5,49.2z M311.9,38.8c0-1.8-0.5-2.8-1.4-2.8l0,0c-0.5,0-0.8,0.2-1,0.5
				c-0.2,0.3-0.3,0.9-0.3,1.6c0,1.8,0.5,2.8,1.4,2.8C311.4,40.9,311.9,40.2,311.9,38.8z"/>
			<path id="XMLID_561_" class="st0" d="M335.2,47.1l-1,0l-1.8,0.1l-1.2,0.1l-0.2-2.1l-0.9,0.8c-0.7,0.6-1.3,1-1.8,1.1
				c-0.3,0.1-0.7,0.1-1.2,0.1c-1.3,0-2.3-0.5-2.9-1.5c-0.7-1-1-2.4-1-4.3c0-2.2,0.5-3.9,1.6-5.1c1.1-1.2,2.6-1.8,4.6-1.8
				c0.5,0,0.9,0,1.5,0.1l0-1.6c0-1.1-0.1-2-0.2-2.5c-0.1-0.5-0.4-0.7-1-0.7l-0.2,0l0.5-1.2l1.1,0l2.4-0.1l1.3-0.1
				c-0.1,1.9-0.2,3.3-0.2,4.2l0,9.2c0,1.2,0.1,2.4,0.2,3.6C334.9,46.1,335,46.6,335.2,47.1z M330.9,41.2l0-1.6c0-1.2-0.1-2-0.4-2.5
				c-0.2-0.5-0.7-0.7-1.3-0.7c-1.3,0-2,1.4-2,4.3c0,2.7,0.6,4,1.9,4c0.4,0,0.8-0.2,1.1-0.5C330.7,43.7,330.9,42.7,330.9,41.2z"/>
			<path id="XMLID_558_" class="st0" d="M349.9,45.9l-0.5,1.2l-0.9,0l-2,0.1l-1.3,0.1l-0.2-2.1l-1,0.9c-1,0.9-2,1.3-3.1,1.3
				c-2.2,0-3.3-1.4-3.3-4.2l0-3.6c0-1,0-2.2-0.2-3.6c-0.1-0.5-0.1-0.8-0.3-1.2l1.3,0.1l2.1,0l1.2,0c0,0.2-0.1,0.6-0.1,1.1
				c-0.1,1.1-0.2,2.3-0.2,3.6l0,2.6c0,0.6,0,1,0.1,1.3c0.2,0.7,0.7,1,1.4,1c1.3,0,1.9-1,1.9-3.1l0-1.9c0-1.3-0.1-2.5-0.2-3.6
				c0-0.3-0.1-0.7-0.3-1.2l1.3,0.1l2.1,0l1.2,0c-0.2,1.3-0.3,2.9-0.3,4.8l0,2.8c0,1.2,0,1.9,0,2.1c0.1,0.9,0.5,1.3,1.1,1.3
				L349.9,45.9z M344.3,49.7c0,0.8-0.1,1.4-0.4,1.6c-0.2,0.2-0.8,0.4-1.5,0.4c-0.5,0-0.9-0.1-1-0.3c-0.2-0.2-0.2-0.6-0.2-1.2
				c0-0.9,0.1-1.6,0.3-1.8c0.2-0.3,0.7-0.4,1.6-0.4c0.5,0,0.9,0.1,1.1,0.4c0.1,0.2,0.2,0.6,0.2,1.2V49.7z"/>
			<path id="XMLID_556_" class="st0" d="M363.4,47.2l-1.3,0l-2.1,0l-1.2,0c0-0.3,0.1-0.7,0.1-1.1c0.1-0.8,0.1-2,0.1-3.6l0-2.4
				c0-0.7,0-1.2-0.1-1.5c-0.2-0.7-0.7-1-1.4-1c-0.6,0-1.1,0.2-1.5,0.7c-0.3,0.4-0.5,1.2-0.5,2.3l0,1.9c0,2.1,0.1,3.7,0.4,4.7l-1.3,0
				l-2.1,0l-1.2,0c0-0.4,0.1-0.7,0.1-1.1c0.1-0.7,0.1-1.9,0.1-3.6l0-2.8c0-1.2,0-2-0.2-2.6c-0.1-0.5-0.4-0.8-1-0.8l-0.2,0L351,35
				l1.1,0l2.1,0l1.3-0.1l-0.1,2.1l0.9-0.8c1-0.9,2-1.3,3.2-1.3c1.2,0,2.1,0.4,2.7,1.1c0.5,0.6,0.8,1.7,0.7,3.1l0,3.5
				C362.9,44.6,363.1,46.2,363.4,47.2z"/>
			<path id="XMLID_552_" class="st0" d="M377.3,35.1l-0.4,0.8l-0.4,0.9l-1-0.1c0,0-0.1,0-0.2,0c-0.1,0-0.2,0-0.3,0l-0.2,0
				c0.2,0.5,0.4,1,0.4,1.6c0,1.3-0.5,2.4-1.4,3.1c-0.9,0.7-2.3,1.1-4,1.1c-0.5,0-1,0-1.5-0.1c-0.3,0.3-0.5,0.6-0.5,0.9
				c0,0.7,0.9,1,2.7,1l0.5,0l1.3,0c2.7,0,4,1.2,4,3.6c0,1.6-0.6,2.9-1.9,3.9c-1.2,1-2.9,1.5-5,1.5c-1.6,0-2.9-0.3-3.8-1
				c-1-0.7-1.5-1.5-1.5-2.5c0-1,0.6-1.8,1.8-2.4l0.5-0.2l-0.5-0.2c-0.9-0.4-1.4-1-1.4-1.8c0-0.6,0.3-1.2,1-1.8l1.3-1.2
				c-1.3-0.8-2-1.9-1.9-3.4c0-1.3,0.5-2.3,1.4-3c0.9-0.7,2.2-1.1,3.9-1.1c0.5,0,1,0,1.4,0.1c0.5,0.1,1,0.2,1.4,0.4l2.1,0l1.1,0
				l0.8-0.1L377.3,35.1z M373,49.3c0-0.6-0.2-1-0.7-1.2c-0.2-0.1-0.5-0.2-0.8-0.3c-0.7-0.1-1.4-0.2-1.9-0.1l-0.6,0
				c-0.3,0-0.6,0-0.9,0.1c-0.2,0-0.4,0.1-0.6,0.2c-0.5,0.3-0.8,0.8-0.8,1.3c0,0.6,0.3,1.1,0.8,1.4c0.6,0.4,1.3,0.5,2.2,0.5
				c1,0,1.7-0.2,2.4-0.6C372.7,50.4,373,49.9,373,49.3z M371.5,38.9c0-1.8-0.5-2.8-1.4-2.8l0,0c-0.5,0-0.8,0.2-1,0.5
				c-0.2,0.3-0.3,0.9-0.3,1.6c0,1.8,0.5,2.8,1.4,2.8C371,41,371.4,40.3,371.5,38.9z"/>
		</g>
	</g>
	<g id="XMLID_123_">
		<g id="XMLID_475_">
			<path id="XMLID_512_" class="st0" d="M157.3,71.7l-2.1,0l0-3.5l2.1,0.3l0-3.2c0-1.6,0-2.5-0.1-2.8c-0.2-1-0.7-1.6-1.5-1.6l-0.2,0
				l0.5-1.9l0.9,0l2.8,0c1,0,2.1,0,3.2,0l2,0c1.1,0,2.1,0,2.9,0c2.4,0.1,4.2,0.6,5.4,1.6c2.1,1.7,3.1,4.5,3.1,8.4c0,2.7-0.5,5-1.5,7
				c-1.1,2.2-2.6,3.7-4.5,4.7c-1.5,0.7-3.4,1.1-5.8,1.1c-0.2,0-0.3,0-0.4,0l-6.1-0.1l-1.1,0.1c0.2-1,0.3-2.3,0.3-3.8l0.1-2.4
				L157.3,71.7z M166.7,72.1l-3.9-0.3l0,2.7c0,0.2,0,0.8,0,1.6c0.1,1.1,0.3,1.9,0.6,2.3c0.3,0.4,1,0.6,1.9,0.6c3.4,0,5-2.8,5.1-8.3
				c0-2.8-0.4-4.9-1.2-6.3c-0.9-1.6-2.5-2.4-4.8-2.4c-0.5,0-1,0.1-1.6,0.2l-0.1,2.8l0,3.7l3.9,0L166.7,72.1z"/>
			<path id="XMLID_508_" class="st0" d="M199.2,70.1c0,3.9-1.1,7-3.2,9.3c-2,2.2-4.7,3.3-8,3.3c-3.2,0-5.7-1-7.5-3.1
				c-1.9-2.1-2.9-5.1-2.8-8.8c0-3.8,1-6.8,3.1-9.1s4.7-3.4,7.9-3.4c4.5,0,7.6,1.9,9.3,5.8C198.8,65.9,199.2,67.9,199.2,70.1z
				 M193.2,70.7c0-2.5-0.3-4.5-0.8-6.2c-0.8-2.3-2.1-3.4-3.8-3.4c-3.2,0-4.8,3-4.8,9.1c0,2.5,0.3,4.6,0.9,6.2
				c0.8,2.2,2.1,3.4,3.9,3.4C191.6,79.8,193.2,76.8,193.2,70.7z M192.6,57.1l-0.5,0.4l-0.4,0.4l-1.5-1.5l-1.5-1.4l-1.5,1.4l-1.5,1.5
				l-0.4-0.4l-0.5-0.4l0.6-1l0.8-1.6l0.5-1l1-0.1l1.9,0l1.2-0.1l0.5,1.2l0.8,1.5L192.6,57.1z"/>
			<path id="XMLID_506_" class="st0" d="M219.9,82.1l-2.3,0l-2.3,0c-0.8-1.5-1.4-2.6-1.8-3.2l-7.9-12.4l0,1.7l0.1,7.6
				c0,1.7,0.2,3.2,0.4,4.6c0.1,0.5,0.2,1,0.4,1.6l-1.5,0l-1.4,0l-1.4,0c0.1-0.4,0.1-0.9,0.2-1.5c0.1-1,0.2-2.6,0.2-4.7l0-10.3
				c0-1.5-0.1-2.6-0.2-3.4c-0.1-0.7-0.6-1-1.3-1l-0.2,0l0.6-1.9l1.6,0.1l3.8,0l1.7-0.1c0.8,1.8,1.4,3,1.8,3.6l6.3,10.4l0-2.3
				l-0.1-5.4c-0.1-2-0.2-3.5-0.3-4.6c-0.1-0.5-0.2-1-0.4-1.6l1.5,0.1l1.5,0l1.4-0.1c-0.1,0.5-0.2,1-0.2,1.4c0,0.5-0.1,1.3-0.1,2.4
				l-0.1,2.4l0,10.4c0,0.5,0,1.1,0,2C219.5,79.2,219.7,80.6,219.9,82.1z"/>
			<path id="XMLID_504_" class="st0" d="M241.2,71.2c-0.1,1.8-0.2,3-0.2,3.5l0,2l0,3.6l0.1,0.8c-0.6,0.2-1.3,0.4-2.3,0.6
				c-2,0.5-3.8,0.7-5.5,0.7c-2.8,0-5.1-0.7-6.8-2c-1.3-1-2.3-2.4-3.1-4c-0.7-1.7-1.1-3.6-1.1-5.7c0-3.8,1.1-6.8,3.2-9
				c2.1-2.2,5-3.3,8.6-3.3c1.1,0,2.3,0.1,3.4,0.4c0.9,0.2,2,0.6,3.3,1.2l-0.4,1.7l-0.6,3.4l-0.7,0.1c-0.6-1.1-1.2-2-1.8-2.5
				c-1-0.9-2.2-1.4-3.5-1.4c-1.7,0-3,0.8-4,2.3s-1.4,3.7-1.4,6.4c0,3,0.4,5.3,1.3,7c0.9,1.7,2,2.6,3.5,2.6c0.8,0,1.4-0.2,1.9-0.6
				c0.4-0.3,0.6-1,0.6-2.1c0-0.3,0-0.5,0-0.7l-0.1-1.3c0-0.8-0.2-1.3-0.4-1.6c-0.2-0.3-0.6-0.4-1.2-0.4l-0.2,0l0.5-1.9l1.6,0
				L241.2,71.2z"/>
			<path id="XMLID_502_" class="st0" d="M267.6,65.3c0,2.6-0.8,4.5-2.3,5.8c-1.3,1.1-3.1,1.6-5.5,1.6c-0.1,0-0.3,0-0.7,0
				c-0.3,0-0.6,0-0.8,0l-0.6,0l0.2-1.3l0.2-1.5c0.4,0.1,0.8,0.1,1.1,0.1c0.9,0,1.6-0.4,2-1.1c0.5-0.7,0.7-1.7,0.7-3
				c0-2.7-1.1-4.1-3.3-4.1c-0.3,0-0.8,0-1.4,0.1l-0.1,2.6l0,11.2c0,2.8,0.2,4.9,0.5,6.2l-1.5,0l-3.4,0l-1.4,0
				c0.1-0.4,0.1-0.9,0.2-1.5c0.1-1,0.1-2.6,0.2-4.7l0.1-10.3c0-1.5-0.1-2.6-0.2-3.4c-0.1-0.7-0.6-1-1.4-1l-0.2,0l0.6-1.9l1.6,0
				l6.7,0c0.7,0,1.8,0,3.3,0c2,0,3.4,0.5,4.2,1.5C267.2,61.9,267.6,63.4,267.6,65.3z"/>
			<path id="XMLID_500_" class="st0" d="M288.9,82.1l-1.5,0l-3.4,0l-1.4,0c0.1-0.4,0.1-0.9,0.2-1.5c0.1-1.1,0.2-2.7,0.2-4.7l0-4.5
				l-1.4,0l-1.5,0l-1.7,0l-1.2,0l-1.2,0l0,4.5c0,2.8,0.2,4.9,0.5,6.2l-1.5,0l-3.4,0l-1.4,0c0.1-0.4,0.1-0.9,0.2-1.5
				c0.1-1,0.1-2.6,0.2-4.7l0.1-10.3c0-1.5-0.1-2.6-0.2-3.4c-0.1-0.7-0.6-1-1.4-1l-0.2,0l0.6-1.9l1.6,0l3.8,0l1.6,0
				c-0.1,2.2-0.2,4-0.2,5.4l0,3.5l2.4,0.1l1.7,0l1.4-0.1l1.4,0l0-2.7c0-2.8-0.2-4.9-0.5-6.2l1.5,0l3.1,0l1.6,0l-0.1,1.8
				c-0.1,1.4-0.1,2.6-0.1,3.6l0,11.2C288.3,78.7,288.5,80.8,288.9,82.1z"/>
			<path id="XMLID_498_" class="st0" d="M312.4,58.8c-0.1,0.9-0.4,1.6-1,2.1c-0.6,0.6-1.1,1-1.4,1.2c0,0.4,0,0.9,0,1.7
				c0,0.8,0,1.3,0,1.7l0,9.6c0,2.7-0.9,4.7-2.7,6.1c-1.5,1.1-3.4,1.7-5.8,1.7c-0.8,0-1.6-0.1-2.4-0.2c-3.1-0.5-5-2.1-5.6-4.7
				c-0.3-1-0.4-2.5-0.4-4.3l0-2l0-6.2c0-1.5,0-2.6-0.2-3.4c-0.1-0.7-0.6-1-1.4-1l-0.2,0l0.6-1.9l1.6,0l3.8,0l1.6,0
				c-0.2,2.5-0.3,4.3-0.3,5.4l0,6.9c0,1.8,0,3.1,0.1,3.8c0.2,1.5,0.7,2.6,1.4,3.3c0.6,0.5,1.3,0.8,2.2,0.8c2.2,0,3.5-1.2,3.9-3.7
				c0.1-0.8,0.2-2.2,0.2-4.3l0-6c0-1.3-0.1-2.8-0.4-4.6c-0.1-0.5-0.2-1-0.4-1.6l1.5,0l2.7,0c0-0.6-0.2-1.3-0.6-2l0.1-0.3
				c0.2-0.1,0.5-0.2,0.7-0.2l0.1,0c0.7-0.2,1.2-0.3,1.4-0.3c0.4,0,0.7,0.3,0.9,0.8C312.4,57.8,312.5,58.3,312.4,58.8z"/>
			<path id="XMLID_495_" class="st0" d="M334.9,58.9c-0.1,0.9-0.4,1.6-1.1,2.2c-0.1,0.2-0.4,0.4-0.8,0.8c-0.2,0.2-0.6,0.4-1,0.7
				c1.4,2.2,2.2,4.8,2.2,7.9c0,3.9-1.1,7-3.2,9.3c-2,2.2-4.7,3.3-8,3.3c-3.2,0-5.7-1-7.5-3.1c-1.9-2.1-2.9-5.1-2.8-8.8
				c0-3.8,1-6.8,3.1-9.1c2.1-2.3,4.7-3.4,7.9-3.4c3.2,0,5.7,1,7.5,2.9c0.6-0.6,0.9-1.2,1-1.8c0.1-0.7-0.2-1.4-0.6-2.1l0.1-0.3
				c0.2-0.1,0.5-0.2,0.7-0.2l0.1,0c0.7-0.2,1.2-0.3,1.4-0.3c0.4,0,0.7,0.3,0.9,0.8C334.8,57.9,334.9,58.4,334.9,58.9z M328.1,71
				c0-2.5-0.3-4.5-0.8-6.2c-0.8-2.3-2.1-3.4-3.8-3.4c-3.2,0-4.8,3-4.8,9.1c0,2.5,0.3,4.6,0.9,6.2c0.8,2.2,2.1,3.4,3.9,3.4
				C326.5,80.1,328.1,77,328.1,71z"/>
			<path id="XMLID_493_" class="st0" d="M354.8,82.4l-2.3,0l-2.3,0c-0.8-1.6-1.4-2.6-1.8-3.2l-7.9-12.4l0,1.7l0.1,7.6
				c0,1.7,0.2,3.2,0.4,4.6c0.1,0.5,0.2,1,0.4,1.6l-1.5,0l-1.4,0l-1.4,0c0.1-0.4,0.1-0.9,0.2-1.5c0.1-1,0.2-2.6,0.2-4.7l0-10.3
				c0-1.5-0.1-2.6-0.2-3.4c-0.1-0.7-0.6-1-1.3-1h-0.2l0.6-1.9l1.6,0.1l3.8,0l1.7-0.1c0.8,1.8,1.4,3,1.8,3.6l6.3,10.4l0-2.3l-0.1-5.4
				c0-2-0.2-3.5-0.3-4.6c-0.1-0.5-0.2-1-0.4-1.6l1.5,0.1l1.5,0l1.4-0.1c-0.1,0.5-0.2,1-0.2,1.4c0,0.5-0.1,1.3-0.1,2.4l-0.1,2.4
				l0,10.4c0,0.5,0,1.1,0,2C354.4,79.4,354.6,80.9,354.8,82.4z"/>
			<path id="XMLID_491_" class="st0" d="M376.1,71.5c-0.1,1.8-0.2,3-0.2,3.5l0,2l0,3.6l0.1,0.8c-0.6,0.2-1.3,0.4-2.3,0.6
				c-2,0.5-3.8,0.7-5.5,0.7c-2.8,0-5.1-0.7-6.8-2c-1.3-1-2.3-2.4-3.1-4c-0.7-1.7-1.1-3.6-1.1-5.7c0-3.8,1.1-6.8,3.2-9
				c2.1-2.2,5-3.3,8.6-3.3c1.1,0,2.3,0.1,3.4,0.4c0.9,0.2,2,0.6,3.3,1.2l-0.4,1.7l-0.6,3.4l-0.7,0.1c-0.6-1.1-1.2-2-1.8-2.5
				c-1-0.9-2.2-1.4-3.5-1.4c-1.7,0-3,0.8-4,2.3s-1.4,3.7-1.4,6.4c0,3,0.4,5.3,1.3,7s2,2.6,3.5,2.6c0.8,0,1.4-0.2,1.9-0.6
				c0.4-0.3,0.6-1,0.6-2.1c0-0.3,0-0.5,0-0.7l-0.1-1.3c0-0.8-0.2-1.3-0.4-1.6c-0.2-0.3-0.6-0.4-1.2-0.4l-0.2,0l0.5-1.9l1.6,0
				L376.1,71.5z"/>
			<path id="XMLID_487_" class="st0" d="M402.3,60c-0.4,0.5-0.6,0.9-0.7,1c-0.9,1.4-1.7,2.8-2.3,4.3l-2.4,5.6l-1.1,2.8l0,2.8
				c0,2.5,0.2,4.4,0.5,5.8l-1.5,0l-3.4,0l-1.4,0c0.1-0.4,0.1-0.9,0.2-1.5c0.1-1.1,0.2-2.7,0.2-4.7l0-2.4l-1.1-2.6l-3.3-7.6
				c-0.4-0.9-0.7-1.5-1-1.8c-0.2-0.2-0.5-0.3-1-0.3l-0.2,0l0.5-1.9l1.6,0l3.7,0l1.5,0c0.2,1.4,0.5,2.8,1,4.2l2.3,6.1l2-5.3
				c0.5-1.5,0.8-2.9,0.8-4.2c0-0.3,0-0.5,0-0.8l1.6,0l2.2,0l1.4,0L402.3,60z"/>
			<path id="XMLID_484_" class="st0" d="M427.2,65.6c0,2.6-0.8,4.5-2.3,5.8c-1.3,1.1-3.1,1.6-5.5,1.6c-0.1,0-0.3,0-0.7,0
				s-0.6,0-0.8,0l-0.6,0l0.2-1.3l0.2-1.5c0.4,0.1,0.8,0.1,1.1,0.1c0.9,0,1.6-0.4,2-1.1c0.5-0.7,0.7-1.7,0.7-3c0-2.7-1.1-4.1-3.3-4.1
				c-0.3,0-0.8,0-1.4,0.1l-0.1,2.7l0,11.2c0,2.8,0.2,4.9,0.5,6.2l-1.5,0l-3.4,0l-1.4,0c0.1-0.4,0.1-0.9,0.2-1.5
				c0.1-1,0.1-2.6,0.2-4.7l0.1-10.3c0-1.5-0.1-2.6-0.2-3.4c-0.1-0.7-0.6-1-1.4-1h-0.2l0.6-1.9l1.6,0l6.7,0c0.7,0,1.8,0,3.3,0
				c2,0,3.4,0.5,4.2,1.5C426.7,62.2,427.2,63.8,427.2,65.6z"/>
			<path id="XMLID_482_" class="st0" d="M448.4,82.4l-1.5,0l-3.4,0l-1.4,0c0.1-0.4,0.1-0.9,0.2-1.5c0.1-1.1,0.2-2.7,0.2-4.7l0-4.5
				l-1.4,0l-1.5,0l-1.7,0l-1.2,0l-1.2,0l0,4.5c0,2.8,0.2,4.9,0.5,6.2l-1.5,0l-3.4,0l-1.4,0c0.1-0.4,0.1-0.9,0.2-1.5
				c0.1-1,0.1-2.6,0.2-4.7l0.1-10.3c0-1.5-0.1-2.6-0.2-3.4c-0.1-0.7-0.6-1-1.4-1l-0.2,0l0.6-1.9l1.6,0l3.8,0l1.6,0
				c-0.1,2.2-0.2,4-0.2,5.4l0,3.5l2.4,0.1l1.7,0l1.4-0.1l1.4,0l0-2.7c0-2.8-0.2-4.9-0.5-6.2l1.5,0l3.1,0l1.6,0l-0.1,1.8
				c-0.1,1.4-0.1,2.6-0.1,3.6l0,11.2C447.9,79.1,448.1,81.1,448.4,82.4z"/>
			<path id="XMLID_478_" class="st0" d="M470,82.5l-1.5,0l-3.5,0l-2,0c0-1.5-0.2-3-0.6-4.5l-0.6-2.4l-2,0l-2.4,0l-2.1,0l-0.6,2.5
				c-0.2,0.9-0.4,1.8-0.4,2.8c0,0.6,0.1,1.1,0.2,1.7l-0.9,0l-2.6,0l-1.4,0l-0.1-0.4l0.1-0.2l0.5-1.1c0.1-0.2,0.3-0.8,0.7-1.9
				c0.2-0.4,0.4-1.1,0.8-2l4.4-13.2c0.5-1.5,0.9-2.9,1.1-4.1l1.4-0.1l3.1-0.3l1.6-0.3c0.2,1.2,0.4,2.3,0.7,3.4l4,14.4
				C468.5,78.9,469.2,80.8,470,82.5z M461.1,72.7l-2.3-9.6l-2.7,9.5l1.6,0l1.6,0L461.1,72.7z M465,53.5l-1.5,1.2l-3.6,3.2l-0.5-0.5
				l-0.5-0.4l0.6-1l0.9-1.6l0.5-1l1.1-0.1l2.2-0.1l0.6-0.1L465,53.5z"/>
			<path id="XMLID_476_" class="st0" d="M487.8,65.8c0,2.6-0.8,4.5-2.3,5.8c-1.3,1.1-3.1,1.6-5.5,1.6c-0.1,0-0.3,0-0.7,0
				s-0.6,0-0.8,0l-0.6,0l0.2-1.3l0.2-1.5c0.4,0.1,0.8,0.1,1.1,0.1c0.9,0,1.6-0.4,2-1.1c0.5-0.7,0.7-1.7,0.7-3c0-2.7-1.1-4.1-3.3-4.1
				c-0.3,0-0.8,0-1.4,0.1l-0.1,2.7l0,11.2c0,2.8,0.2,4.9,0.5,6.2l-1.5,0l-3.4,0l-1.4,0c0.1-0.4,0.1-0.9,0.2-1.5
				c0.1-1,0.1-2.6,0.2-4.7l0.1-10.3c0-1.5-0.1-2.6-0.2-3.4c-0.1-0.7-0.6-1-1.4-1l-0.2,0l0.6-1.9l1.6,0l6.7,0c0.7,0,1.8,0,3.3,0
				c2,0,3.4,0.5,4.2,1.5C487.3,62.4,487.8,63.9,487.8,65.8z"/>
		</g>
	</g>
	<g id="XMLID_22_">
		<path id="XMLID_485_" class="st1" d="M451.1,115.4l-293-0.2c-1.6,0-2.9-1.6-2.9-3.6l0-17.6c0-2,1.3-3.6,2.9-3.5l293,0.2
			c1.6,0,2.9,1.6,2.9,3.6l0,17.6C454,113.9,452.7,115.4,451.1,115.4z"/>
		<g id="XMLID_9_">
			<g id="XMLID_791_">
				<path id="XMLID_877_" class="st2" d="M179,96.9l-0.5,2.4l-1.1,0c0-0.5-0.1-0.9-0.1-1.1c-0.1-0.2-0.2-0.4-0.4-0.6
					c-0.2-0.1-0.4-0.2-0.7-0.2c-0.2,0-0.5,0.1-0.8,0.2c-0.3,0.1-0.5,0.3-0.8,0.5c-0.3,0.3-0.6,0.6-0.8,1c-0.3,0.4-0.5,0.9-0.7,1.5
					c-0.2,0.4-0.3,1-0.5,1.5c-0.1,0.6-0.2,1.1-0.3,1.6c-0.1,0.5-0.1,0.9-0.1,1.3c0,0.5,0,0.8,0.1,1.2c0.1,0.3,0.2,0.5,0.4,0.7
					s0.5,0.3,0.9,0.3c0.4,0,0.8-0.1,1.1-0.2c0.3-0.1,0.6-0.3,0.8-0.6c0.2-0.3,0.4-0.6,0.6-1.1l1.1,0l-0.5,2.4
					c-0.5,0.2-1.1,0.3-1.6,0.3c-0.5,0.1-1.1,0.1-1.7,0.1c-1.2,0-2.1-0.3-2.7-1c-0.6-0.6-0.9-1.6-0.9-2.8c0-0.4,0-0.8,0.1-1.3
					c0.1-0.7,0.3-1.4,0.5-2.1c0.3-0.8,0.6-1.4,1-2c0.4-0.6,0.9-1,1.4-1.4c0.5-0.4,1.1-0.6,1.6-0.8c0.6-0.2,1.2-0.3,1.9-0.3
					c0.5,0,1,0,1.4,0.1C178.1,96.7,178.6,96.8,179,96.9z"/>
				<path id="XMLID_875_" class="st2" d="M182.7,101.1l0.1,0c0.4-0.5,0.9-0.9,1.4-1.2c0.5-0.3,1-0.4,1.5-0.4s1,0.2,1.3,0.5
					c0.3,0.3,0.5,0.8,0.5,1.3c0,0.4-0.1,0.8-0.2,1.3l-0.7,3.1c-0.1,0.3-0.1,0.5-0.1,0.6c0,0.1,0,0.3,0,0.4c0,0.2,0.1,0.4,0.2,0.5
					c0.1,0.1,0.3,0.2,0.6,0.2l-0.1,0.5l-3.4,0l1-4.5c0.2-0.6,0.2-1.1,0.3-1.3s0.1-0.4,0.1-0.6c0-0.2-0.1-0.4-0.2-0.6
					c-0.1-0.1-0.3-0.2-0.5-0.2c-0.2,0-0.4,0.1-0.6,0.2c-0.2,0.1-0.4,0.3-0.7,0.6s-0.5,0.6-0.6,0.9c-0.2,0.3-0.3,0.7-0.4,1.2
					l-0.9,4.3l-2.4,0l2.1-9.4c0.1-0.5,0.2-0.9,0.2-1.2c0-0.1,0-0.2,0-0.3c0-0.1-0.1-0.1-0.1-0.2s-0.1-0.1-0.2-0.1
					c-0.1,0-0.2-0.1-0.5-0.1l0.1-0.5l2.5-0.1l0.9,0L182.7,101.1z"/>
				<path id="XMLID_873_" class="st2" d="M190,99.7l3.4,0l-1,4.5c-0.2,0.6-0.2,1.1-0.3,1.3s-0.1,0.4-0.1,0.6c0,0.3,0.1,0.4,0.2,0.6
					c0.1,0.1,0.3,0.2,0.5,0.2c0.1,0,0.2,0,0.4-0.1c0.1-0.1,0.3-0.1,0.4-0.2c0.1-0.1,0.3-0.2,0.5-0.4c0.2-0.2,0.3-0.4,0.5-0.6
					c0.1-0.2,0.3-0.4,0.3-0.7c0.1-0.2,0.2-0.5,0.3-0.9l0.9-4.3l2.4,0l-1.3,5.9c0,0.1-0.1,0.3-0.1,0.6c0,0.2-0.1,0.5-0.1,0.6
					c0,0.2,0.1,0.4,0.2,0.5c0.1,0.1,0.3,0.1,0.6,0.2l-0.1,0.5l-3.1,0l0.5-1.7l-0.1,0c-0.5,0.6-1,1.1-1.5,1.4c-0.5,0.3-1,0.4-1.6,0.4
					c-0.6,0-1-0.2-1.3-0.5c-0.3-0.3-0.5-0.8-0.5-1.3c0-0.4,0.1-0.8,0.2-1.3l0.7-3.1c0.1-0.3,0.1-0.5,0.1-0.6s0-0.3,0-0.4
					c0-0.2-0.1-0.4-0.2-0.5c-0.1-0.1-0.3-0.2-0.6-0.2L190,99.7z"/>
				<path id="XMLID_858_" class="st2" d="M202.9,108.1c-0.6,0-1.1-0.1-1.6-0.3c-0.5-0.2-0.8-0.6-1.1-1c-0.3-0.4-0.4-1-0.4-1.6
					c0-0.2,0-0.5,0.1-0.8c0-0.4,0.1-0.8,0.2-1.2c0.1-0.5,0.3-0.9,0.5-1.2c0.2-0.4,0.5-0.7,0.7-1c0.3-0.3,0.6-0.5,0.9-0.7
					c0.3-0.2,0.7-0.3,1.1-0.4c0.5-0.1,0.9-0.2,1.4-0.2c0.7,0,1.3,0.1,1.7,0.4c0.5,0.3,0.8,0.6,1,1.1s0.3,1,0.3,1.6
					c0,0.7-0.1,1.5-0.4,2.2s-0.6,1.4-1,1.8c-0.4,0.5-0.9,0.9-1.5,1.1C204.3,108,203.6,108.1,202.9,108.1z M202,105.7
					c0,0.5,0.1,0.9,0.3,1.2c0.2,0.3,0.4,0.4,0.8,0.4c0.2,0,0.4,0,0.6-0.1c0.2-0.1,0.4-0.2,0.5-0.4c0.2-0.2,0.3-0.5,0.5-0.8
					c0.1-0.3,0.3-0.7,0.4-1.2c0.1-0.5,0.2-0.9,0.3-1.4c0.1-0.4,0.1-0.9,0.1-1.3c0-0.6-0.1-1-0.3-1.2s-0.4-0.4-0.8-0.4
					c-0.5,0-0.9,0.2-1.2,0.7c-0.3,0.4-0.6,1.1-0.9,2.1C202.1,104.2,202,105,202,105.7z M206.3,96.3l1.1,2.4l-0.7,0.4l-1.2-1.6
					l-0.1,0l-2.2,1.5l-0.5-0.6l2.3-2.3L206.3,96.3z M208,93.7l0.6,0.5c-0.3,0.5-0.6,0.8-0.8,1.1c-0.2,0.2-0.4,0.4-0.6,0.5
					c-0.2,0.1-0.4,0.1-0.6,0.1c-0.2,0-0.4,0-0.5-0.1c-0.1-0.1-0.3-0.2-0.6-0.4l-0.2-0.2c-0.1-0.1-0.1-0.1-0.2-0.1
					c-0.1,0-0.1-0.1-0.2-0.1s-0.1,0-0.2,0c-0.1,0-0.3,0-0.4,0.1c-0.1,0-0.2,0.1-0.3,0.3c-0.1,0.1-0.3,0.3-0.4,0.6l-0.7-0.5
					c0.3-0.5,0.6-0.8,0.8-1c0.2-0.2,0.4-0.4,0.6-0.5s0.4-0.2,0.6-0.2c0.1,0,0.2,0,0.3,0c0.1,0,0.2,0.1,0.3,0.1
					c0.1,0.1,0.2,0.2,0.4,0.3c0.2,0.1,0.3,0.3,0.4,0.3c0.1,0.1,0.2,0.1,0.2,0.1c0.1,0,0.2,0,0.3,0c0.2,0,0.4-0.1,0.5-0.2
					C207.6,94.3,207.8,94,208,93.7z"/>
				<path id="XMLID_855_" class="st2" d="M212.1,105.8c-0.1,0.3-0.1,0.5-0.1,0.6c0,0.1,0,0.2,0,0.3c0,0.2,0.1,0.4,0.2,0.5
					c0.1,0.1,0.3,0.2,0.6,0.2l-0.1,0.5l-3.5,0l1.3-5.8c0.1-0.3,0.1-0.6,0.1-0.8c0-0.2,0-0.3,0-0.5c0-0.2,0-0.4-0.2-0.5
					c-0.1-0.1-0.3-0.2-0.6-0.2l0.1-0.5l2.4-0.1l0.9,0L212.1,105.8z M214.1,96.5l-0.4,2l-2.1,0l0.5-2L214.1,96.5z"/>
				<path id="XMLID_852_" class="st2" d="M220.3,102.2c0.1-0.6,0.2-1,0.2-1.2c0-0.2-0.1-0.4-0.2-0.5c-0.1-0.1-0.3-0.2-0.6-0.2
					l0.1-0.5l2.3-0.1l0.9,0l-0.5,1.8l0.1,0c0.4-0.5,0.7-0.9,1-1.1c0.3-0.3,0.6-0.5,1-0.6c0.3-0.1,0.7-0.2,1.1-0.2
					c0.4,0,0.7,0.1,1,0.3c0.3,0.2,0.5,0.5,0.7,0.9c0.2,0.4,0.3,0.9,0.3,1.5c0,0.6-0.1,1.2-0.2,1.8c-0.1,0.6-0.3,1.1-0.6,1.7
					c-0.3,0.5-0.6,0.9-1,1.3c-0.4,0.4-0.9,0.6-1.4,0.8c-0.5,0.2-1.1,0.3-1.7,0.3c-0.5,0-1-0.1-1.4-0.3l-0.4,1.8c0,0.1,0,0.2,0,0.3
					c0,0.1,0,0.2,0,0.2c0,0.1,0,0.1,0,0.2c0,0.2,0.1,0.4,0.2,0.5c0.1,0.1,0.3,0.2,0.6,0.2l-0.1,0.5l-3.5,0L220.3,102.2z M222,105
					c-0.1,0.4-0.1,0.8-0.1,1.2c0,0.4,0.1,0.7,0.2,0.9c0.1,0.2,0.4,0.3,0.7,0.3c0.2,0,0.4,0,0.6-0.1c0.2-0.1,0.3-0.2,0.5-0.3
					c0.2-0.2,0.3-0.4,0.5-0.7c0.2-0.4,0.4-0.8,0.6-1.2s0.3-1,0.4-1.5c0.1-0.5,0.1-1,0.1-1.4c0-0.4-0.1-0.7-0.2-0.9
					c-0.1-0.2-0.3-0.3-0.6-0.3c-0.4,0-0.7,0.2-1.1,0.5c-0.4,0.4-0.7,0.8-0.9,1.2c-0.2,0.5-0.4,1.1-0.6,2L222,105z"/>
				<path id="XMLID_850_" class="st2" d="M232.8,101.2l0.1,0c0.4-0.5,0.9-0.9,1.4-1.2c0.5-0.3,1-0.4,1.5-0.4c0.6,0,1,0.2,1.3,0.5
					c0.3,0.3,0.5,0.8,0.5,1.3c0,0.4-0.1,0.8-0.2,1.3l-0.7,3.1c-0.1,0.3-0.1,0.5-0.1,0.6c0,0.1,0,0.3,0,0.4c0,0.2,0.1,0.4,0.2,0.5
					c0.1,0.1,0.3,0.2,0.6,0.2l-0.1,0.5l-3.4,0l1-4.5c0.2-0.6,0.2-1.1,0.3-1.3c0-0.2,0-0.4,0-0.6c0-0.2-0.1-0.4-0.2-0.6
					c-0.1-0.1-0.3-0.2-0.5-0.2c-0.2,0-0.4,0.1-0.6,0.2c-0.2,0.1-0.4,0.3-0.7,0.6c-0.3,0.3-0.5,0.6-0.6,0.9c-0.2,0.3-0.3,0.7-0.4,1.2
					l-0.9,4.3l-2.4,0l2.1-9.4c0.1-0.5,0.2-0.9,0.2-1.2c0-0.1,0-0.2,0-0.3c0-0.1-0.1-0.1-0.1-0.2c0,0-0.1-0.1-0.2-0.1
					c-0.1,0-0.2-0.1-0.5-0.1l0.1-0.5l2.5-0.1l0.9,0L232.8,101.2z"/>
				<path id="XMLID_846_" class="st2" d="M242.6,108.2c-0.6,0-1.1-0.1-1.6-0.3c-0.5-0.2-0.8-0.6-1.1-1c-0.3-0.4-0.4-1-0.4-1.6
					c0-0.2,0-0.5,0.1-0.8c0-0.4,0.1-0.8,0.2-1.2c0.1-0.5,0.3-0.9,0.5-1.2c0.2-0.4,0.5-0.7,0.7-1c0.3-0.3,0.6-0.5,0.9-0.7
					c0.3-0.2,0.7-0.3,1.1-0.4c0.5-0.1,0.9-0.2,1.4-0.2c0.7,0,1.3,0.1,1.7,0.4c0.5,0.3,0.8,0.6,1,1.1c0.2,0.4,0.3,1,0.3,1.6
					c0,0.7-0.1,1.5-0.4,2.2c-0.2,0.7-0.6,1.4-1,1.8s-0.9,0.9-1.5,1.1C244,108.1,243.4,108.2,242.6,108.2z M241.8,105.8
					c0,0.5,0.1,0.9,0.3,1.2c0.2,0.3,0.4,0.4,0.8,0.4c0.2,0,0.4,0,0.6-0.1c0.2-0.1,0.4-0.2,0.5-0.4c0.2-0.2,0.3-0.5,0.5-0.8
					c0.1-0.3,0.3-0.7,0.4-1.2c0.1-0.5,0.2-0.9,0.3-1.4c0.1-0.4,0.1-0.9,0.1-1.3c0-0.6-0.1-1-0.3-1.2c-0.2-0.3-0.4-0.4-0.8-0.4
					c-0.5,0-0.9,0.2-1.2,0.7c-0.3,0.4-0.6,1.1-0.9,2.1C241.9,104.3,241.8,105.1,241.8,105.8z M244.7,95.8l1.1,2.8l-0.7,0.4l-2-2.7
					l0.1-0.5L244.7,95.8z"/>
				<path id="XMLID_844_" class="st2" d="M257.3,108.1l-3.4,0l1-4.5c0.2-0.6,0.2-1.1,0.3-1.3c0-0.2,0-0.4,0-0.6
					c0-0.2-0.1-0.4-0.2-0.6c-0.1-0.1-0.3-0.2-0.5-0.2c-0.2,0-0.4,0.1-0.6,0.2c-0.2,0.1-0.4,0.3-0.7,0.6c-0.3,0.3-0.5,0.6-0.6,0.9
					c-0.2,0.3-0.3,0.7-0.4,1.2l-0.9,4.3l-2.4,0l1.3-5.9c0-0.1,0.1-0.3,0.1-0.6c0-0.2,0.1-0.5,0.1-0.6c0-0.2-0.1-0.4-0.2-0.5
					s-0.3-0.1-0.6-0.2l0.1-0.5l2.3-0.1l0.9,0l-0.5,1.8l0.1,0c0.4-0.5,0.7-0.8,1.1-1.1s0.7-0.5,1-0.6c0.3-0.1,0.7-0.2,1.1-0.2
					c0.6,0,1,0.2,1.3,0.5c0.3,0.3,0.5,0.8,0.5,1.3c0,0.4-0.1,0.8-0.2,1.3l-0.7,3.1c-0.1,0.3-0.1,0.5-0.1,0.6c0,0.1,0,0.3,0,0.4
					c0,0.2,0.1,0.4,0.2,0.5c0.1,0.1,0.3,0.2,0.6,0.2L257.3,108.1z"/>
				<path id="XMLID_841_" class="st2" d="M260.1,108.8c-0.1,0.2-0.3,0.4-0.3,0.5c-0.1,0.2-0.1,0.3-0.1,0.5c0,0.4,0.1,0.7,0.4,0.8
					c0.3,0.2,0.7,0.3,1.2,0.3c0.4,0,0.7-0.1,1-0.2c0.3-0.1,0.6-0.3,0.9-0.6c0.3-0.3,0.5-0.7,0.7-1.3c0.2-0.6,0.4-1.3,0.6-2.3
					l-0.1-0.1c-0.4,0.5-0.7,0.8-1,1.1c-0.3,0.3-0.6,0.4-0.9,0.6c-0.3,0.1-0.7,0.2-1.1,0.2c-0.4,0-0.7-0.1-1-0.3
					c-0.3-0.2-0.5-0.5-0.7-0.9c-0.2-0.4-0.3-0.9-0.3-1.5c0-0.8,0.1-1.5,0.3-2.2c0.2-0.7,0.5-1.4,0.9-1.9c0.4-0.5,0.9-0.9,1.5-1.2
					c0.6-0.3,1.3-0.4,2.1-0.4c0.4,0,0.8,0,1.1,0.1c0.3,0.1,0.7,0.2,1,0.5l0.7-0.6l0.9,0.1l-0.7,3.2c-0.1,0.5-0.2,1-0.3,1.5l-0.5,2.6
					c-0.1,0.7-0.3,1.3-0.4,1.7c-0.1,0.4-0.3,0.7-0.4,1c-0.1,0.3-0.3,0.5-0.5,0.7c-0.2,0.2-0.4,0.4-0.6,0.5c-0.2,0.1-0.5,0.3-0.8,0.4
					c-0.3,0.1-0.7,0.2-1.1,0.3c-0.4,0.1-0.9,0.1-1.4,0.1c-0.8,0-1.4-0.1-2-0.2s-0.9-0.3-1.2-0.6c-0.3-0.3-0.4-0.6-0.4-1
					c0-0.3,0.1-0.7,0.4-1c0.2-0.3,0.6-0.6,1.1-0.9L260.1,108.8z M265.2,103c0.1-0.4,0.1-0.8,0.1-1.2c0-0.4-0.1-0.7-0.2-0.9
					c-0.1-0.2-0.4-0.3-0.7-0.3c-0.5,0-0.9,0.2-1.3,0.7c-0.4,0.5-0.7,1.2-1,2.1s-0.4,1.7-0.4,2.4c0,0.4,0.1,0.7,0.2,0.9
					c0.1,0.2,0.3,0.3,0.6,0.3c0.2,0,0.5-0.1,0.7-0.2c0.2-0.2,0.5-0.4,0.8-0.7c0.3-0.3,0.5-0.7,0.7-1.1s0.3-1,0.5-1.7L265.2,103z"/>
				<path id="XMLID_839_" class="st2" d="M279.2,106.6c-0.4,0.4-0.7,0.8-1.1,1c-0.3,0.2-0.6,0.4-1,0.5c-0.3,0.1-0.7,0.2-1.2,0.2
					c-0.4,0-0.8-0.1-1.1-0.2c-0.3-0.2-0.5-0.4-0.6-0.7c-0.1-0.3-0.2-0.6-0.2-0.9c0-0.3,0-0.5,0.1-0.7c0-0.2,0.1-0.6,0.2-1.2l0.9-3.6
					l-1.1,0l0.1-0.5c0.3,0,0.6-0.1,0.8-0.2c0.2-0.1,0.4-0.2,0.5-0.4c0.1-0.2,0.3-0.4,0.4-0.7c0.1-0.3,0.3-0.7,0.4-1.3l2,0l-0.5,2.1
					l2,0l-0.2,1l-2,0l-0.9,3.8c0,0.2-0.1,0.3-0.1,0.5c0,0.2-0.1,0.3-0.1,0.5c0,0.1,0,0.3,0,0.4c0,0.1,0,0.2,0,0.3
					c0,0.3,0,0.4,0.1,0.6s0.2,0.2,0.4,0.2c0.2,0,0.5-0.1,0.8-0.3c0.3-0.2,0.5-0.5,0.9-0.8L279.2,106.6z"/>
				<path id="XMLID_837_" class="st2" d="M287.5,102.2l-1.5,0c0-0.4,0-0.6-0.1-0.8c-0.1-0.1-0.2-0.2-0.4-0.2c-0.1,0-0.2,0-0.3,0.1
					s-0.2,0.1-0.3,0.2c-0.1,0.1-0.3,0.2-0.4,0.4s-0.3,0.4-0.4,0.6c-0.1,0.2-0.2,0.4-0.3,0.6c-0.1,0.2-0.2,0.5-0.2,0.8l-0.9,4.3
					l-2.4,0l1.3-5.9c0.1-0.5,0.2-0.9,0.2-1.2c0-0.2-0.1-0.4-0.2-0.5c-0.1-0.1-0.3-0.1-0.6-0.2l0.1-0.5l2.3-0.1l0.9,0l-0.6,1.9l0.1,0
					c0.5-0.7,1-1.2,1.5-1.5s1.1-0.5,1.7-0.5c0.4,0,0.8,0.1,1.2,0.2L287.5,102.2z"/>
				<path id="XMLID_833_" class="st2" d="M290.5,109.5l-0.4,2l-2.3,0l0.4-2L290.5,109.5z M291.2,106c-0.1,0.3-0.1,0.5-0.1,0.6
					c0,0.1,0,0.2,0,0.3c0,0.2,0.1,0.4,0.2,0.5c0.1,0.1,0.3,0.2,0.6,0.2l-0.1,0.5l-3.5,0l1.3-5.8c0.1-0.3,0.1-0.6,0.2-0.8
					c0-0.2,0-0.3,0-0.5c0-0.2,0-0.4-0.2-0.5c-0.1-0.1-0.3-0.2-0.6-0.2l0.1-0.5l2.4-0.1l0.9,0L291.2,106z M293.2,96.6l-0.4,2l-2.1,0
					l0.5-2L293.2,96.6z"/>
				<path id="XMLID_831_" class="st2" d="M302.1,96.3l0.9,0l-2.2,9.7c-0.1,0.3-0.1,0.5-0.1,0.6c0,0.1,0,0.3,0,0.4
					c0,0.2,0.1,0.4,0.2,0.5c0.1,0.1,0.3,0.2,0.6,0.2l-0.1,0.5l-3.5,0l2.1-9.4c0.1-0.5,0.2-0.9,0.2-1.2c0-0.1,0-0.2,0-0.3
					c0-0.1-0.1-0.1-0.1-0.2c0,0-0.1-0.1-0.2-0.1c-0.1,0-0.2-0.1-0.5-0.1l0.1-0.5L302.1,96.3z"/>
				<path id="XMLID_828_" class="st2" d="M306.5,106c-0.1,0.3-0.1,0.5-0.1,0.6c0,0.1,0,0.2,0,0.3c0,0.2,0.1,0.4,0.2,0.5
					c0.1,0.1,0.3,0.2,0.6,0.2l-0.1,0.5l-3.5,0l1.3-5.8c0.1-0.3,0.1-0.6,0.2-0.8c0-0.2,0-0.3,0-0.5c0-0.2,0-0.4-0.2-0.5
					c-0.1-0.1-0.3-0.2-0.6-0.2l0.1-0.5l2.4-0.1l0.9,0L306.5,106z M308.4,96.7l-0.4,2l-2.1,0l0.5-2L308.4,96.7z"/>
				<path id="XMLID_823_" class="st2" d="M316.2,106.5c-0.6,0.6-1.2,1.1-1.8,1.4s-1.3,0.5-2.1,0.5c-0.6,0-1.2-0.1-1.7-0.3
					s-0.8-0.6-1-1c-0.2-0.4-0.3-1-0.3-1.6c0-0.3,0-0.7,0.1-1.1c0.1-0.6,0.3-1.2,0.5-1.6c0.3-0.6,0.6-1.1,1.1-1.5
					c0.4-0.4,1-0.7,1.5-1c0.6-0.2,1.2-0.3,1.9-0.3c0.8,0,1.5,0.2,1.9,0.5c0.4,0.3,0.6,0.8,0.6,1.4c0,0.4-0.1,0.8-0.3,1.1
					c-0.2,0.3-0.5,0.6-0.8,0.9s-0.9,0.5-1.7,0.6c-0.7,0.2-1.6,0.2-2.6,0.3c-0.1,0.3-0.1,0.7-0.1,1c0,0.2,0,0.4,0.1,0.6
					c0,0.2,0.1,0.4,0.2,0.5c0.1,0.1,0.2,0.3,0.4,0.3s0.4,0.1,0.6,0.1c0.5,0,0.9-0.1,1.3-0.3s0.9-0.5,1.4-1L316.2,106.5z
					 M313.2,109.5l-0.4,2l-2.3,0l0.4-2L313.2,109.5z M311.8,103.7c1,0,1.8-0.2,2.3-0.6c0.5-0.4,0.8-0.9,0.8-1.5
					c0-0.3-0.1-0.5-0.2-0.6c-0.1-0.1-0.3-0.2-0.5-0.2c-0.5,0-1,0.3-1.4,0.8C312.4,102,312.1,102.7,311.8,103.7z M315.6,96l1.1,2.8
					l-0.7,0.4l-1.2-1.8h-0.1l-2.2,1.8l-0.5-0.6l2.3-2.6L315.6,96z"/>
				<path id="XMLID_821_" class="st2" d="M318.8,100l3.4,0l-1,4.5c-0.1,0.6-0.2,1.1-0.3,1.3c0,0.2-0.1,0.4-0.1,0.6
					c0,0.3,0,0.4,0.2,0.6c0.1,0.1,0.3,0.2,0.5,0.2c0.1,0,0.2,0,0.4-0.1s0.3-0.1,0.4-0.2s0.3-0.2,0.5-0.4c0.2-0.2,0.3-0.4,0.5-0.6
					c0.1-0.2,0.3-0.4,0.3-0.7c0.1-0.2,0.2-0.5,0.3-0.9l0.9-4.3l2.4,0l-1.3,5.9c0,0.1-0.1,0.3-0.1,0.6c0,0.2-0.1,0.5-0.1,0.6
					c0,0.2,0.1,0.4,0.2,0.5c0.1,0.1,0.3,0.1,0.6,0.2l-0.1,0.5l-3.1,0l0.5-1.7l-0.1,0c-0.5,0.6-1,1.1-1.5,1.4c-0.5,0.3-1,0.4-1.6,0.4
					c-0.6,0-1-0.2-1.3-0.5c-0.3-0.3-0.5-0.8-0.5-1.3c0-0.4,0.1-0.8,0.2-1.3l0.7-3.1c0.1-0.3,0.1-0.5,0.1-0.6s0-0.3,0-0.4
					c0-0.2-0.1-0.4-0.2-0.5c-0.1-0.1-0.3-0.2-0.6-0.2L318.8,100z"/>
				<path id="XMLID_819_" class="st2" d="M333.6,105.9c0,0.4,0.1,0.7,0.2,1c0.1,0.2,0.3,0.4,0.5,0.5c0.2,0.1,0.4,0.1,0.7,0.1
					c0.4,0,0.8-0.1,1-0.3c0.2-0.2,0.4-0.5,0.4-0.9c0-0.2,0-0.4-0.1-0.6c-0.1-0.2-0.2-0.3-0.4-0.5c-0.2-0.2-0.5-0.4-0.9-0.6
					c-0.6-0.3-1-0.7-1.2-1c-0.3-0.4-0.4-0.8-0.4-1.2c0-0.8,0.3-1.4,0.9-1.9c0.6-0.4,1.5-0.7,2.6-0.7c0.4,0,0.9,0,1.4,0.1
					c0.5,0.1,0.9,0.2,1.3,0.3l-0.4,2l-1.1,0c0-0.5-0.2-0.9-0.4-1.1c-0.2-0.2-0.5-0.4-0.9-0.4c-0.4,0-0.7,0.1-0.9,0.3
					c-0.2,0.2-0.3,0.4-0.3,0.8c0,0.2,0,0.4,0.1,0.5c0.1,0.2,0.2,0.3,0.4,0.5c0.2,0.2,0.5,0.3,0.8,0.6c0.6,0.4,1,0.7,1.3,1.1
					c0.3,0.4,0.4,0.8,0.4,1.3c0,0.6-0.2,1-0.5,1.4c-0.3,0.4-0.7,0.7-1.2,0.9c-0.5,0.2-1.1,0.3-1.8,0.3c-0.6,0-1.1,0-1.7-0.1
					c-0.5-0.1-1-0.2-1.4-0.3l0.5-2.1L333.6,105.9z"/>
				<path id="XMLID_814_" class="st2" d="M343.7,108.4c-0.6,0-1.1-0.1-1.6-0.3c-0.5-0.2-0.8-0.6-1.1-1c-0.3-0.4-0.4-1-0.4-1.6
					c0-0.2,0-0.5,0.1-0.8c0-0.4,0.1-0.8,0.2-1.2c0.1-0.5,0.3-0.9,0.5-1.2c0.2-0.4,0.5-0.7,0.7-1c0.3-0.3,0.6-0.5,0.9-0.7
					c0.3-0.2,0.7-0.3,1.1-0.4c0.5-0.1,0.9-0.2,1.4-0.2c0.7,0,1.3,0.1,1.7,0.4c0.5,0.3,0.8,0.6,1,1.1c0.2,0.4,0.3,1,0.3,1.6
					c0,0.7-0.1,1.5-0.4,2.2c-0.2,0.7-0.6,1.4-1,1.8s-0.9,0.9-1.5,1.1C345.1,108.3,344.5,108.4,343.7,108.4z M342.9,106
					c0,0.5,0.1,0.9,0.3,1.2c0.2,0.3,0.4,0.4,0.8,0.4c0.2,0,0.4,0,0.6-0.1c0.2-0.1,0.4-0.2,0.5-0.4c0.2-0.2,0.3-0.5,0.5-0.8
					c0.1-0.3,0.3-0.7,0.4-1.2s0.2-0.9,0.3-1.4c0.1-0.4,0.1-0.9,0.1-1.3c0-0.6-0.1-1-0.3-1.2c-0.2-0.3-0.4-0.4-0.8-0.4
					c-0.5,0-0.9,0.2-1.2,0.7c-0.3,0.5-0.6,1.1-0.9,2.1C343,104.5,342.9,105.3,342.9,106z M347.2,96.1l1.1,2.8l-0.7,0.4l-1.2-1.8
					h-0.1l-2.2,1.8l-0.5-0.6l2.4-2.6L347.2,96.1z M351.2,95.3l-0.1,0.5l-2.5,2l-0.6-0.5l1.6-2L351.2,95.3z"/>
				<path id="XMLID_812_" class="st2" d="M359.8,105.7c-0.1,0.5-0.2,0.8-0.2,1c0,0.2,0.1,0.4,0.2,0.5c0.1,0.1,0.3,0.2,0.6,0.2
					c0.3,0,0.7,0.1,1.2,0.1l-0.2,0.8l-6.8,0l0.2-0.8c0.6,0,1-0.1,1.3-0.1c0.3,0,0.5-0.1,0.6-0.2s0.3-0.2,0.3-0.4
					c0.1-0.2,0.2-0.5,0.3-0.9l1.2-5.4c0.1-0.3,0.1-0.5,0.1-0.7c0-0.2,0-0.3-0.1-0.3c-0.1-0.1-0.2-0.1-0.3-0.1c-0.1,0-0.2,0-0.4,0.1
					c-0.1,0-0.3,0.1-0.5,0.2c-0.2,0.1-0.6,0.3-1.1,0.6l-0.4-0.9l4.8-2.5l1.1,0c-0.2,0.6-0.3,1.3-0.5,2.2L359.8,105.7z"/>
				<path id="XMLID_809_" class="st2" d="M375.9,100.6c0.3-0.6,0.5-1,0.7-1.3c0.1-0.3,0.2-0.5,0.2-0.6c0-0.2,0.1-0.3,0.1-0.5
					c0-0.4-0.2-0.6-0.7-0.7l0.1-0.5l3.5,0l-0.1,0.5c-0.2,0-0.3,0.1-0.4,0.2c-0.1,0.1-0.2,0.2-0.4,0.3c-0.1,0.1-0.2,0.3-0.3,0.5
					c-0.1,0.2-0.2,0.4-0.4,0.6l-5.2,9.3l-2.1,0l-0.3-8.9c0-0.3,0-0.6-0.1-0.8c0-0.2-0.1-0.4-0.1-0.5s-0.1-0.3-0.2-0.3
					c-0.1-0.1-0.1-0.2-0.2-0.2c-0.1-0.1-0.2-0.1-0.3-0.1l0.1-0.5l4.3,0l-0.1,0.5c-0.2,0-0.4,0.1-0.6,0.2c-0.1,0.1-0.2,0.2-0.3,0.4
					c-0.1,0.2-0.1,0.4-0.1,0.8l0,0.4c0,0.1,0,0.3,0,0.4l0.1,4.1c0,0.8,0,1.4,0,1.9h0.1L375.9,100.6z"/>
				<path id="XMLID_806_" class="st2" d="M382.1,106.1c-0.1,0.3-0.1,0.5-0.1,0.6c0,0.1,0,0.2,0,0.3c0,0.2,0.1,0.4,0.2,0.5
					c0.1,0.1,0.3,0.2,0.6,0.2l-0.1,0.5l-3.5,0l1.3-5.8c0.1-0.3,0.1-0.6,0.2-0.8c0-0.2,0-0.3,0-0.5c0-0.2,0-0.4-0.2-0.5
					c-0.1-0.1-0.3-0.2-0.6-0.2l0.1-0.5l2.4-0.1l0.9,0L382.1,106.1z M384,96.8l-0.4,2l-2.1,0l0.5-2L384,96.8z"/>
				<path id="XMLID_801_" class="st2" d="M391.8,106.7c-0.6,0.6-1.2,1.1-1.8,1.4s-1.3,0.5-2.1,0.5c-0.6,0-1.2-0.1-1.7-0.3
					s-0.8-0.6-1-1c-0.2-0.4-0.3-1-0.3-1.6c0-0.3,0-0.7,0.1-1.1c0.1-0.6,0.3-1.2,0.5-1.6c0.3-0.6,0.6-1.1,1.1-1.5
					c0.4-0.4,1-0.7,1.5-1c0.6-0.2,1.2-0.3,1.9-0.3c0.8,0,1.5,0.2,1.9,0.5c0.4,0.3,0.6,0.8,0.6,1.4c0,0.4-0.1,0.8-0.3,1.1
					c-0.2,0.3-0.5,0.6-0.8,0.9s-0.9,0.5-1.7,0.6c-0.7,0.2-1.6,0.2-2.6,0.3c-0.1,0.3-0.1,0.7-0.1,1c0,0.2,0,0.4,0.1,0.6
					c0,0.2,0.1,0.3,0.2,0.5c0.1,0.1,0.2,0.3,0.4,0.3c0.2,0.1,0.4,0.1,0.6,0.1c0.5,0,0.9-0.1,1.3-0.3s0.9-0.5,1.4-1L391.8,106.7z
					 M388.8,109.7l-0.4,2l-2.3,0l0.4-2L388.8,109.7z M387.4,103.9c1,0,1.8-0.2,2.3-0.6c0.5-0.4,0.8-0.9,0.8-1.5
					c0-0.3-0.1-0.5-0.2-0.6c-0.1-0.1-0.3-0.2-0.5-0.2c-0.5,0-1,0.3-1.4,0.8C388,102.1,387.7,102.9,387.4,103.9z M391.2,96.2l1.1,2.8
					l-0.7,0.4l-1.2-1.8h-0.1l-2.2,1.8l-0.5-0.6l2.3-2.6L391.2,96.2z"/>
				<path id="XMLID_799_" class="st2" d="M399.2,106.9c-0.4,0.4-0.7,0.8-1.1,1c-0.3,0.2-0.6,0.4-1,0.5c-0.3,0.1-0.7,0.2-1.2,0.2
					c-0.4,0-0.8-0.1-1.1-0.2c-0.3-0.2-0.5-0.4-0.6-0.7c-0.1-0.3-0.2-0.6-0.2-0.9c0-0.3,0-0.5,0.1-0.7c0-0.2,0.1-0.6,0.2-1.2l0.9-3.6
					l-1.1,0l0.1-0.5c0.3,0,0.6-0.1,0.8-0.2c0.2-0.1,0.4-0.2,0.5-0.4c0.1-0.2,0.3-0.4,0.4-0.7c0.1-0.3,0.3-0.7,0.4-1.3l2,0l-0.5,2.1
					l2,0l-0.2,1l-2,0l-0.9,3.8c0,0.2-0.1,0.3-0.1,0.5c0,0.2-0.1,0.3-0.1,0.5c0,0.1,0,0.3,0,0.4c0,0.1,0,0.2,0,0.3
					c0,0.3,0,0.4,0.1,0.6c0.1,0.1,0.2,0.2,0.4,0.2c0.2,0,0.5-0.1,0.8-0.3c0.3-0.2,0.5-0.5,0.9-0.8L399.2,106.9z"/>
				<path id="XMLID_797_" class="st2" d="M406.3,97.1l3.2,0l1.6,4.7c0.4,1.3,0.8,2.4,1,3.4h0.1c0.2-1,0.4-2,0.6-3.2l0.6-2.7
					c0.1-0.3,0.1-0.7,0.1-1c0-0.2-0.1-0.4-0.2-0.5c-0.1-0.1-0.3-0.2-0.5-0.2l0.1-0.5l3.1,0l-0.1,0.5c-0.2,0.1-0.4,0.2-0.5,0.3
					c-0.1,0.1-0.2,0.3-0.3,0.5c-0.1,0.2-0.2,0.5-0.3,0.9l-2,9.1l-1.9,0l-2-5.8c-0.2-0.5-0.3-0.9-0.4-1.3c-0.1-0.4-0.3-0.9-0.4-1.5
					l-0.1,0c0,0.4-0.1,0.9-0.3,1.5c-0.1,0.6-0.3,1.4-0.4,2.1l-0.6,2.7c0,0.1-0.1,0.3-0.1,0.3c0,0.1,0,0.2,0,0.3c0,0.1,0,0.2,0,0.4
					c0,0.2,0.1,0.4,0.2,0.5c0.1,0.1,0.3,0.2,0.5,0.2l-0.1,0.5l-3.1,0l0.1-0.5c0.2-0.1,0.4-0.2,0.5-0.3c0.1-0.1,0.2-0.3,0.3-0.5
					c0.1-0.2,0.2-0.5,0.3-0.9l1.5-6.8c0.1-0.3,0.1-0.7,0.1-1c0-0.2-0.1-0.4-0.2-0.5c-0.1-0.1-0.3-0.2-0.5-0.2L406.3,97.1z"/>
				<path id="XMLID_794_" class="st2" d="M423.2,100.7l0.7-0.6l0.9,0.1l-1.3,5.8c-0.1,0.3-0.1,0.5-0.1,0.7c0,0.2,0,0.3,0,0.4
					c0,0.2,0.1,0.4,0.2,0.5c0.1,0.1,0.3,0.2,0.6,0.2l-0.1,0.5l-3.2,0l0.5-1.7l-0.1,0c-0.4,0.5-0.7,0.9-1.1,1.1
					c-0.3,0.3-0.6,0.5-1,0.6c-0.3,0.1-0.7,0.2-1.1,0.2c-0.4,0-0.7-0.1-1-0.3c-0.3-0.2-0.5-0.5-0.7-0.9c-0.2-0.4-0.3-0.9-0.3-1.5
					c0-0.6,0.1-1.2,0.2-1.8c0.1-0.6,0.3-1.1,0.6-1.7c0.3-0.5,0.6-0.9,1-1.3c0.4-0.4,0.9-0.6,1.4-0.8c0.5-0.2,1.1-0.3,1.7-0.3
					C421.9,100.1,422.6,100.3,423.2,100.7z M421.9,103.3c0-0.2,0.1-0.4,0.1-0.6c0-0.2,0-0.4,0-0.6c0-0.4-0.1-0.6-0.2-0.8
					c-0.1-0.2-0.4-0.3-0.7-0.3c-0.5,0-1,0.3-1.4,0.8c-0.4,0.5-0.7,1.2-1,2.1c-0.2,0.9-0.4,1.7-0.4,2.3c0,0.4,0.1,0.7,0.2,0.9
					c0.1,0.2,0.3,0.3,0.6,0.3c0.4,0,0.7-0.2,1.1-0.5c0.4-0.4,0.7-0.8,0.9-1.3s0.4-1.1,0.6-2L421.9,103.3z"/>
				<path id="XMLID_792_" class="st2" d="M434.7,101.8c0.5-0.6,0.9-1,1.4-1.3c0.5-0.3,1-0.4,1.6-0.4c0.6,0,1,0.2,1.3,0.5
					c0.3,0.3,0.5,0.8,0.5,1.3c0,0.4-0.1,0.8-0.2,1.3l-0.7,3.1c-0.1,0.3-0.1,0.5-0.1,0.6c0,0.1,0,0.3,0,0.4c0,0.2,0.1,0.4,0.2,0.5
					c0.1,0.1,0.3,0.2,0.6,0.2l-0.1,0.5l-3.4,0l1.2-5c0.1-0.3,0.1-0.5,0.1-0.6s0.1-0.3,0.1-0.4s0-0.2,0-0.3c0-0.2,0-0.4-0.2-0.6
					s-0.3-0.2-0.5-0.2c-0.2,0-0.4,0.1-0.6,0.2c-0.2,0.1-0.5,0.3-0.7,0.6c-0.3,0.3-0.5,0.6-0.6,0.9c-0.2,0.3-0.3,0.7-0.4,1.2
					l-0.9,4.3l-2.4,0l1.2-5.2c0.1-0.2,0.1-0.4,0.1-0.5s0-0.2,0-0.3c0-0.1,0-0.2,0-0.3c0-0.3,0-0.5-0.1-0.6s-0.3-0.2-0.5-0.2
					c-0.3,0-0.6,0.2-0.9,0.5c-0.4,0.3-0.6,0.7-0.8,1c-0.2,0.4-0.4,0.8-0.5,1.4l-0.9,4.3l-2.4,0l1.3-5.9c0-0.1,0.1-0.3,0.1-0.6
					c0-0.2,0.1-0.5,0.1-0.6c0-0.2-0.1-0.4-0.2-0.5c-0.1-0.1-0.3-0.1-0.6-0.2l0.1-0.5l2.3-0.1l0.9,0l-0.5,1.8l0.1,0
					c0.4-0.5,0.7-0.8,1.1-1.1s0.6-0.5,1-0.6c0.3-0.1,0.7-0.2,1.1-0.2c0.6,0,1,0.2,1.3,0.5C434.6,100.9,434.7,101.3,434.7,101.8z"/>
			</g>
		</g>
	</g>
</g>
</svg>
