<svg xmlns="http://www.w3.org/2000/svg" width="30" height="30" viewBox="0 0 30 30">
  <g id="icon-da-lieu" transform="translate(-391 -3215)">
    <g id="Ellipse_160" data-name="Ellipse 160" transform="translate(391 3215)" fill="#fff" stroke="#d9ae39" stroke-width="1">
      <circle cx="15" cy="15" r="15" stroke="none"/>
      <circle cx="15" cy="15" r="14.5" fill="none"/>
    </g>
    <g id="Group_1949" data-name="Group 1949" transform="translate(259.85 3288.01)">
      <path id="Path_3173" data-name="Path 3173" d="M141.988-47.824v-.252c0-1.094,0-2.189,0-3.283a.81.81,0,0,0-.316-.686,3.368,3.368,0,0,1-.958-1.561,13.275,13.275,0,0,1-.683-3.427c-.142-1.684-.29-3.367-.435-5.05-.04-.466-.084-.932-.113-1.4a.763.763,0,0,1,.637-.895.829.829,0,0,1,.954.643c.222.884.422,1.774.631,2.661.091.389.181.778.273,1.166a1.524,1.524,0,0,0,.061.162c0-1.774,0-3.516,0-5.257,0-.355-.012-.71,0-1.064a.81.81,0,0,1,1.058-.812.763.763,0,0,1,.557.674c.139.993.271,1.987.4,2.981q.211,1.581.419,3.162a.317.317,0,0,0,.064.153c.019-.307.039-.613.056-.92q.182-3.277.365-6.554a.809.809,0,0,1,1.2-.715.805.805,0,0,1,.432.722q.143,2.52.278,5.04c.045.819.092,1.638.17,2.459q.14-1.108.28-2.217c.139-1.107.273-2.215.415-3.322a.807.807,0,0,1,.912-.742.775.775,0,0,1,.712.861q-.033,3.6-.073,7.2a.73.73,0,0,0,.042.288c.043-.063.086-.125.128-.189.585-.9,1.168-1.8,1.757-2.69a.824.824,0,0,1,1.179-.275.844.844,0,0,1,.3,1.182c-.646,1.328-1.3,2.653-1.942,3.983-.348.719-.673,1.449-1.026,2.165a4.424,4.424,0,0,1-1.275,1.7.646.646,0,0,0-.228.565c0,1.094,0,2.189,0,3.283v.256Zm.453-1.5.145.024c.489.072.675-.066.669-.554a1.426,1.426,0,0,1,.413-1.039c.283-.3.564-.609.816-.937a.544.544,0,0,0,.068-.727,1.13,1.13,0,0,0-.934-.4.594.594,0,0,1-.664-.137,3.536,3.536,0,0,0-.329-.276,1.793,1.793,0,0,0-.44-.222.7.7,0,0,0-.741.323c-.122.2.078.312.155.449a1.142,1.142,0,0,0,.3.363,1.343,1.343,0,0,1,.547,1.242C142.423-50.587,142.441-49.961,142.441-49.321Zm4.635-3.632.024-.064c.03,0,.06,0,.09,0,.361-.015.434-.112.476-.471a.778.778,0,0,1,.223-.422c.152-.152.36-.246.526-.387a2.294,2.294,0,0,0,.433-.451.325.325,0,0,0-.165-.534,2.511,2.511,0,0,0-.809-.162.89.89,0,0,1-.7-.295,2.787,2.787,0,0,0-.45-.408.467.467,0,0,0-.667.093.744.744,0,0,0-.193.861,2.069,2.069,0,0,1,.144,1.369.428.428,0,0,0,.221.537C146.5-53.15,146.792-53.062,147.076-52.953Zm-4.424-4.792a1.088,1.088,0,0,0,.268-.1c.216-.17.429-.346.63-.534a.206.206,0,0,0-.017-.334c-.112-.094-.212-.055-.318.035-.2.172-.426.321-.626.5a.316.316,0,0,0-.1.242C142.5-57.869,142.6-57.808,142.651-57.746Zm-1.257.617c.287-.135.532-.246.773-.366a.2.2,0,0,0,.105-.3c-.073-.142-.19-.151-.326-.09-.2.093-.419.168-.614.278a.306.306,0,0,0-.141.239C141.2-57.287,141.313-57.218,141.395-57.128Zm2.994-2.063c-.087-.06-.227-.187-.251-.168a2.613,2.613,0,0,0-.43.44.526.526,0,0,0,.216.219C144.04-58.659,144.345-59,144.389-59.191Zm-3.928,1.8.049.43c.392-.075.482-.147.442-.329S140.784-57.5,140.46-57.388Z" transform="translate(0 0)" fill="#d9ae39"/>
    </g>
  </g>
</svg>
