<svg xmlns="http://www.w3.org/2000/svg" width="15.151" height="17.258" viewBox="0 0 15.151 17.258">
  <path id="Exclusion_1" data-name="Exclusion 1" d="M7879.5-539.493V-541.6h-2.418a1.55,1.55,0,0,1-1.548-1.549V-555.2a1.551,1.551,0,0,1,1.548-1.551h12.052a1.552,1.552,0,0,1,1.55,1.551v.222a1.355,1.355,0,0,0-.907-.346h-7.21a1.737,1.737,0,0,0-1.736,1.735,1.737,1.737,0,0,0,1.736,1.735h3.032l-4.909,6.761a1.362,1.362,0,0,0-.111,1.42,1.36,1.36,0,0,0,1.214.743h7.652a1.722,1.722,0,0,0,1.239-.521v.3a1.551,1.551,0,0,1-1.55,1.549h-6.7l-2.932,2.106Zm11.185-6.388v0a1.723,1.723,0,0,0-1.238-.519h-3.529l4.769-6.5v7.016Z" transform="translate(-7875.533 556.752)" fill="#fff"/>
</svg>
