<svg xmlns="http://www.w3.org/2000/svg" width="30" height="30" viewBox="0 0 30 30">
  <g id="icon-than-kinh" transform="translate(-391 -3353)">
    <g id="Ellipse_163" data-name="Ellipse 163" transform="translate(391 3353)" fill="#fff" stroke="#d9ae39" stroke-width="1">
      <circle cx="15" cy="15" r="15" stroke="none"/>
      <circle cx="15" cy="15" r="14.5" fill="none"/>
    </g>
    <g id="Group_1951" data-name="Group 1951" transform="translate(338.294 3414.347)">
      <path id="Path_3176" data-name="Path 3176" d="M58-47.184c.088-.334.172-.669.268-1A2.614,2.614,0,0,1,58.4-48.5a10.67,10.67,0,0,0,.742,1.085,3.691,3.691,0,0,0,2.69,1.327.607.607,0,0,0,.682-.58.618.618,0,0,0-.65-.637,2.586,2.586,0,0,1-2.4-2.215,1.614,1.614,0,0,1,.219-1,4.963,4.963,0,0,1,3.209-2.38,1.564,1.564,0,0,1,1.657.795,1.26,1.26,0,0,1,.1.474.606.606,0,0,0,.6.663.609.609,0,0,0,.628-.639,2.249,2.249,0,0,0-.655-1.644c-.1-.105-.209-.2-.338-.322a9.4,9.4,0,0,1,5.458-.35c-.121.1-.22.176-.312.26a4.711,4.711,0,0,0-1.485,2.907,7.035,7.035,0,0,0-.038,1.152.6.6,0,0,0,.648.615.6.6,0,0,0,.563-.676,4.3,4.3,0,0,1,.321-1.943,2.8,2.8,0,0,1,1.642-1.531.793.793,0,0,1,.7.042,7.593,7.593,0,0,1,.726.445.831.831,0,0,1,.3.96,2.1,2.1,0,0,1-.6.93,1.206,1.206,0,0,1-.4.229.624.624,0,0,0-.452.7.607.607,0,0,0,.638.5,1.4,1.4,0,0,0,.78-.311A3.351,3.351,0,0,0,74.53-51.2c.027-.07.052-.141.074-.2.229.218.471.421.68.654.43.479.848.97,1.26,1.465a3.612,3.612,0,0,1,.827,1.761,3.1,3.1,0,0,1-.575,2.328c-.057.082-.118.162-.184.251a2.025,2.025,0,0,1,.441,1.7,3.2,3.2,0,0,1-.785,1.573A5.3,5.3,0,0,1,73.5-40.018l-.184.046c-.005,0-.01.008-.035.028.042.182.085.376.132.569a.624.624,0,0,1-.671.856c-.36,0-.72-.005-1.08,0a.752.752,0,0,1-.616-.272c-.54-.61-1.09-1.212-1.632-1.82a.372.372,0,0,0-.291-.135,3,3,0,0,1-1.5-.389.6.6,0,0,1-.2-.145c-.169-.258-.4-.21-.647-.168a3.787,3.787,0,0,1-2.265-.209c-.221-.1-.424-.243-.659-.38a3.633,3.633,0,0,0,.922-1.112,4.277,4.277,0,0,0,.55-2.512,1.8,1.8,0,0,0-.077-.35.61.61,0,0,0-.752-.433.612.612,0,0,0-.418.777,2.661,2.661,0,0,1-1.251,2.761,2.647,2.647,0,0,1-3.509-.894c-.189-.283-.4-.55-.593-.831a3.965,3.965,0,0,1-.689-1.744.459.459,0,0,0-.03-.089Zm13.686,1.731a3.6,3.6,0,0,0,.227-1.485,2.105,2.105,0,0,0-1.079-1.8.765.765,0,0,0-.43-.089.557.557,0,0,0-.495.458.581.581,0,0,0,.275.652.952.952,0,0,1,.47.612,2.027,2.027,0,0,1-.085,1.125c-.311-.041-.609-.1-.909-.114a2.164,2.164,0,0,0-2.112,1.066.765.765,0,0,0-.089.43.562.562,0,0,0,.477.5.581.581,0,0,0,.633-.277.905.905,0,0,1,.747-.485,2.778,2.778,0,0,1,2.429,1.107.9.9,0,0,1,.189.712.6.6,0,0,0,.5.685.6.6,0,0,0,.694-.493,2.028,2.028,0,0,0-.349-1.547A3.907,3.907,0,0,0,71.686-45.453ZM65.84-48.085a7.54,7.54,0,0,0,.595.548,1.585,1.585,0,0,0,1.6.249.61.61,0,0,0,.391-.788.629.629,0,0,0-.806-.366.683.683,0,0,1-.409-.044,1.271,1.271,0,0,1-.3-.256c-.089-.08-.09-.153-.024-.26a1.528,1.528,0,0,0,.187-1.253.612.612,0,0,0-.712-.472.6.6,0,0,0-.476.738.488.488,0,0,1-.151.5,1.62,1.62,0,0,1-1.217.475.708.708,0,0,1-.42-.169.63.63,0,0,0-.9-.069.612.612,0,0,0-.013.9,1.685,1.685,0,0,0,1.256.567A2.983,2.983,0,0,0,65.84-48.085Zm7.8,1.745c.3-.064.7-.127,1.092-.237a.575.575,0,0,0,.363-.7.6.6,0,0,0-.634-.459c-.368.057-.734.128-1.1.216a.592.592,0,0,0-.43.67A.643.643,0,0,0,73.645-46.34Z" transform="translate(0 0)" fill="#d9ae39"/>
    </g>
  </g>
</svg>
