<svg xmlns="http://www.w3.org/2000/svg" width="13.815" height="14.06" viewBox="0 0 13.815 14.06">
  <g id="icon-doctor" transform="translate(198.064 -193)">
    <path id="Path_3201" data-name="Path 3201" d="M-70.261,193c.249.053.5.089.748.163a3.476,3.476,0,0,1,2.435,3.636,3.486,3.486,0,0,1-2.843,3.126,3.5,3.5,0,0,1-4.094-2.949,3.5,3.5,0,0,1,3.061-3.952.62.62,0,0,0,.091-.024Z" transform="translate(-120.606)" fill="#d9ae39"/>
    <path id="Path_3202" data-name="Path 3202" d="M68,453.779q0-2.018,0-4.035a.465.465,0,0,1,.095-.289c.6-.833,1.187-1.67,1.786-2.5a1.2,1.2,0,0,1,.282-.252c.091-.065.345.086.345.2,0,.906,0,1.812,0,2.718,0,.092-.043.122-.115.157a1.183,1.183,0,1,0,1.068.029.215.215,0,0,1-.14-.226c.007-.718,0-1.437,0-2.155v-.154c.05.027.086.043.117.065a6.823,6.823,0,0,1,2.969,4.7,12.155,12.155,0,0,1,.08,1.231c.009.173.009.346.014.52Zm.97-1.314a.409.409,0,0,0,.412-.39.407.407,0,1,0-.412.39Z" transform="translate(-258.757 -246.719)" fill="#d9ae39"/>
    <path id="Path_3203" data-name="Path 3203" d="M-198.062,453.65a9.956,9.956,0,0,1,.11-1.956,6.856,6.856,0,0,1,3.092-4.587c.022-.015.046-.026.084-.048,0,.045.008.079.008.112,0,.728,0,1.455,0,2.183,0,.092-.019.132-.118.156a2.008,2.008,0,0,0-1.532,1.909c-.007.265,0,.529,0,.8h.818c0-.065,0-.128,0-.19a5.339,5.339,0,0,1,.038-.833,1.179,1.179,0,0,1,1.3-.925,1.2,1.2,0,0,1,1.057,1.164c.005.246,0,.492,0,.745h.806a2.343,2.343,0,0,0-.745-2.285,6.114,6.114,0,0,0-.778-.442l-.03.034v-.163c0-.86,0-1.721,0-2.581a.235.235,0,0,1,.065-.155.135.135,0,0,1,.2.016,2.864,2.864,0,0,1,.275.28q.877,1.22,1.741,2.449a.4.4,0,0,1,.08.208q.007,2.018,0,4.036c0,.023,0,.045-.006.068Z" transform="translate(0 -246.59)" fill="#d9ae39"/>
    <path id="Path_3204" data-name="Path 3204" d="M19.8,474.649a4.529,4.529,0,0,0,1.838,0l-.919,1.293Z" transform="translate(-211.885 -273.915)" fill="#d9ae39"/>
    <path id="Path_3205" data-name="Path 3205" d="M161.351,585.295a.362.362,0,1,1-.351-.365A.36.36,0,0,1,161.351,585.295Z" transform="translate(-348.841 -381.167)" fill="#d9ae39"/>
  </g>
</svg>
