<svg xmlns="http://www.w3.org/2000/svg" width="30" height="30" viewBox="0 0 30 30">
  <g id="icon-xuong-khop" transform="translate(-391 -3123)">
    <g id="Ellipse_158" data-name="Ellipse 158" transform="translate(391 3123)" fill="#fff" stroke="#d9ae39" stroke-width="1">
      <circle cx="15" cy="15" r="15" stroke="none"/>
      <circle cx="15" cy="15" r="14.5" fill="none"/>
    </g>
    <g id="Group_1955" data-name="Group 1955" transform="translate(335.31 3220.185)">
      <path id="Path_3183" data-name="Path 3183" d="M236.071,168.772a.427.427,0,0,0-.054-.037.565.565,0,0,1-.311-.756c.068-.2.136-.4.188-.6a2.071,2.071,0,0,0-.085-1.038,4.443,4.443,0,0,1-.085-1.81,2.15,2.15,0,0,1,1.7-1.756,3.221,3.221,0,0,1,3.2,1.184,1.863,1.863,0,0,1,.211,1.954,9.516,9.516,0,0,1-.47.94,1.359,1.359,0,0,0-.2.786c.012.14-.008.282,0,.421a.636.636,0,0,1-.437.715Z" transform="translate(-165.626 -241.956)" fill="#d9ae39"/>
      <path id="Path_3184" data-name="Path 3184" d="M68.658,47.018a.65.65,0,0,1-.43-.718c.058-1.458.094-2.917.151-4.375a1.917,1.917,0,0,0-.789-1.671c-1.776-1.409-3.542-2.832-5.313-4.246a.612.612,0,0,1-.284-.567.525.525,0,0,1,.342-.453.563.563,0,0,1,.593.1q.877.7,1.756,1.406Q66.5,37.945,68.32,39.4A2.928,2.928,0,0,1,69.5,41.9q-.071,2.258-.145,4.516a.617.617,0,0,1-.452.6Z" transform="translate(-0.112 -120.202)" fill="#d9ae39"/>
      <path id="Path_3185" data-name="Path 3185" d="M72.282-71.54a2.431,2.431,0,0,1-2.036-.976,17.573,17.573,0,0,0-4.018-3.827,21.909,21.909,0,0,0-3.809-2.1c-.07-.03-.141-.058-.209-.092a.553.553,0,0,1-.169-.909q1.463-1.483,2.939-2.954a.552.552,0,0,1,.888.116,12.667,12.667,0,0,0,1.639,1.969,14.119,14.119,0,0,0,5.034,3.1c.493.183,1,.333,1.5.5a1.775,1.775,0,0,1,1.216,2.289,4.4,4.4,0,0,1-2.216,2.672A3.273,3.273,0,0,1,72.282-71.54Z" transform="translate(0 -8.211)" fill="#d9ae39"/>
      <path id="Path_3186" data-name="Path 3186" d="M216.654-80.379a9.3,9.3,0,0,1-.309,2.064q-.495,2.3-.989,4.6a.572.572,0,0,1-.555.495.547.547,0,0,1-.544-.414.781.781,0,0,1,0-.328c.388-1.831.82-3.655,1.163-5.495a4.709,4.709,0,0,0-1.816-4.818c-2.479-1.964-5-3.879-7.5-5.812a.646.646,0,0,1-.33-.579.558.558,0,0,1,.917-.389c.524.395,1.04.8,1.559,1.2,2.015,1.559,4.04,3.107,6.043,4.681A6.017,6.017,0,0,1,216.654-80.379Z" transform="translate(-137.145 0)" fill="#d9ae39"/>
      <path id="Path_3187" data-name="Path 3187" d="M335.512,105.267a2.93,2.93,0,0,1,.475-1.628,1.08,1.08,0,0,1,1.866.008,2.917,2.917,0,0,1,0,3.236,1.08,1.08,0,0,1-1.866,0A2.956,2.956,0,0,1,335.512,105.267Z" transform="translate(-260.787 -185.163)" fill="#d9ae39"/>
    </g>
  </g>
</svg>
