<svg xmlns="http://www.w3.org/2000/svg" width="30" height="30" viewBox="0 0 30 30">
  <g id="icon-benh-than" transform="translate(-391 -3445)">
    <g id="Ellipse_165" data-name="Ellipse 165" transform="translate(391 3445)" fill="#fff" stroke="#d9ae39" stroke-width="1">
      <circle cx="15" cy="15" r="15" stroke="none"/>
      <circle cx="15" cy="15" r="14.5" fill="none"/>
    </g>
    <g id="Group_1953" data-name="Group 1953" transform="translate(338.294 3505.446)">
      <path id="Path_3179" data-name="Path 3179" d="M58-46.575c.089-.418.152-.844.271-1.253a5.719,5.719,0,0,1,2.669-3.558,4.834,4.834,0,0,1,4.066-.456,3.028,3.028,0,0,1,.8.423,1.942,1.942,0,0,1,.664,2.47,4.554,4.554,0,0,1-1.361,1.675c-.223.185-.459.355-.708.545a.96.96,0,0,0,.754.462,2.131,2.131,0,0,1,2.159,1.845,2.013,2.013,0,0,1,.019.321q0,3.459,0,6.919a.454.454,0,0,1-.375.511.449.449,0,0,1-.528-.393,1.647,1.647,0,0,1-.006-.227q0-3.393,0-6.786a1.216,1.216,0,0,0-.668-1.146.238.238,0,0,0-.293,0,8.579,8.579,0,0,0-.694.519.63.63,0,0,0-.1.89,2.376,2.376,0,0,0,.461.547,1.079,1.079,0,0,1,.379.812,2.658,2.658,0,0,1-3.645,2.736A4.835,4.835,0,0,1,59.8-41.3a8.1,8.1,0,0,1-1.772-4.219A1.323,1.323,0,0,0,58-45.665Z" transform="translate(0 -0.063)" fill="#d9ae39"/>
      <path id="Path_3180" data-name="Path 3180" d="M259.969-46.8a7.479,7.479,0,0,1-1.508-1.311,2.713,2.713,0,0,1-.756-1.83,2,2,0,0,1,1.168-1.754,4.078,4.078,0,0,1,2.8-.384,5.486,5.486,0,0,1,4.307,3.827,6.557,6.557,0,0,1-.4,5.249,6.9,6.9,0,0,1-2.168,2.73,3.241,3.241,0,0,1-2.044.683,2.64,2.64,0,0,1-2.448-3.287.958.958,0,0,1,.2-.332c.183-.224.4-.422.564-.659a.628.628,0,0,0-.1-.9,6,6,0,0,0-.749-.539.227.227,0,0,0-.188.007,1.16,1.16,0,0,0-.706,1.079c-.01.834,0,1.668,0,2.5q0,2.227,0,4.454c0,.314-.141.5-.394.536a.445.445,0,0,1-.513-.409c0-.038,0-.076,0-.114q0-3.459,0-6.918a2.108,2.108,0,0,1,1.677-2.1,2.662,2.662,0,0,1,.489-.051A1.028,1.028,0,0,0,259.969-46.8Z" transform="translate(-188.944 0)" fill="#d9ae39"/>
    </g>
  </g>
</svg>
