<svg xmlns="http://www.w3.org/2000/svg" width="19.743" height="19.983" viewBox="0 0 19.743 19.983">
  <g id="icon-reward" transform="translate(-757.886 -14.783)">
    <path id="Path_3270" data-name="Path 3270" d="M775.147,14.783a1.644,1.644,0,0,1,.426.284.975.975,0,0,1,.242.537,7.969,7.969,0,0,1-1.3,4.682,3.668,3.668,0,0,1-2.544,1.63.325.325,0,0,0-.218.119A9.926,9.926,0,0,1,769.175,25c-.411.337-.849.643-1.281.954a.3.3,0,0,0-.144.274c.007.442.01.884,0,1.325a.278.278,0,0,0,.167.278q1.742,1.037,3.479,2.084c.047.028.092.058.184.116h-9.405c.1-.064.159-.1.219-.139,1.129-.677,2.257-1.357,3.39-2.029a.326.326,0,0,0,.186-.333q-.018-.63,0-1.262a.352.352,0,0,0-.18-.341,13.191,13.191,0,0,1-2.924-2.577c-.324-.4-.586-.852-.881-1.278-.039-.056-.1-.129-.157-.138a4.144,4.144,0,0,1-3.263-2.8,8.927,8.927,0,0,1-.677-3.42.954.954,0,0,1,.683-.926Zm-15.4,1.809c.032.2.054.373.088.545a5.17,5.17,0,0,0,.848,2.149,2.054,2.054,0,0,0,.776.665V16.592Zm12.5,3.393c1.251-.826,1.492-2.095,1.725-3.389h-1.725Z" transform="translate(0 0)" fill="#d9ae39"/>
    <path id="Path_3271" data-name="Path 3271" d="M1033.778,256.694a.561.561,0,0,1-.547.345,1.325,1.325,0,0,0-1.228,1.132c-.013.083-.018.167-.029.25a.446.446,0,0,1-.436.4.463.463,0,0,1-.453-.415,2.309,2.309,0,0,0-.139-.608,1.291,1.291,0,0,0-1.184-.771.445.445,0,0,1-.447-.316.4.4,0,0,1,.139-.471.6.6,0,0,1,.287-.1,1.354,1.354,0,0,0,1.344-1.367.453.453,0,0,1,.453-.434.426.426,0,0,1,.434.424,1.38,1.38,0,0,0,1.384,1.376c.212,0,.314.155.421.3Z" transform="translate(-256.149 -227.322)" fill="#d9ae39"/>
    <path id="Path_3272" data-name="Path 3272" d="M1033.777,143.088a.645.645,0,0,1-.549.313,1.322,1.322,0,0,0-1.237,1.2c-.007.056-.01.112-.016.167a.448.448,0,0,1-.44.423.476.476,0,0,1-.454-.438,2.267,2.267,0,0,0-.186-.679,1.286,1.286,0,0,0-1.115-.68c-.3-.022-.486-.188-.49-.44s.185-.434.5-.456a1.351,1.351,0,0,0,1.3-1.3.462.462,0,0,1,.437-.5c.256-.009.43.177.461.492a1.345,1.345,0,0,0,1.338,1.3.513.513,0,0,1,.458.341Z" transform="translate(-256.147 -119.485)" fill="#d9ae39"/>
    <path id="Path_3273" data-name="Path 3273" d="M821.887,302.406h10.761c0,.078.01.146.01.214q0,2.071,0,4.142a.91.91,0,0,1-1.025,1.019h-8.726a.914.914,0,0,1-1.02-1.009q0-2.082,0-4.163Z" transform="translate(-60.403 -273.016)" fill="#d9ae39"/>
    <path id="Path_3274" data-name="Path 3274" d="M762.407,192.8a.438.438,0,0,1-.4.438c-.131.021-.266.023-.393.057a1.323,1.323,0,0,0-.987,1.2,1.244,1.244,0,0,1-.023.187.443.443,0,0,1-.868,0c-.031-.15-.032-.307-.071-.455a1.322,1.322,0,0,0-1.188-.972c-.028,0-.056,0-.084,0a.452.452,0,1,1-.009-.9,2.592,2.592,0,0,0,.271-.029,1.338,1.338,0,0,0,1.058-1.229,1.138,1.138,0,0,1,.025-.187.428.428,0,0,1,.443-.341.422.422,0,0,1,.419.344c.031.143.031.293.067.434a1.322,1.322,0,0,0,1.207,1C762.229,192.359,762.411,192.517,762.407,192.8Z" transform="translate(-0.044 -166.793)" fill="#d9ae39"/>
  </g>
</svg>
