<svg xmlns="http://www.w3.org/2000/svg" width="30" height="30" viewBox="0 0 30 30">
  <g id="icon-tieu-hoa" transform="translate(-391 -3307)">
    <g id="Ellipse_162" data-name="Ellipse 162" transform="translate(391 3307)" fill="#fff" stroke="#d9ae39" stroke-width="1">
      <circle cx="15" cy="15" r="15" stroke="none"/>
      <circle cx="15" cy="15" r="14.5" fill="none"/>
    </g>
    <g id="Group_1950" data-name="Group 1950" transform="translate(300.789 3364.913)">
      <path id="Path_3174" data-name="Path 3174" d="M97.834,121.154H96.377a.3.3,0,0,1-.024-.081c0-1.019-.037-2.041.017-3.058a2.923,2.923,0,0,1,2.942-2.778c.528-.007,1.056,0,1.584,0a5.658,5.658,0,0,0,3.858-1.531,2.836,2.836,0,0,1,1.389-.638,2.607,2.607,0,0,1,1.549.182,5.57,5.57,0,0,0,4.247-.006,2.7,2.7,0,0,1,2.134,0,9.1,9.1,0,0,1-.679,2.7,8.154,8.154,0,0,1-4.674,4.687,8.091,8.091,0,0,1-9.928-3.781,1.385,1.385,0,0,0-.955,1.371c-.007.882,0,1.764,0,2.646Zm9.629-5.179a.732.732,0,0,0,.733-.746.739.739,0,1,0-.733.746Zm3.137-.36a.549.549,0,1,0,.562.539A.554.554,0,0,0,110.6,115.615Zm-3.147,2.76a.55.55,0,1,0-.534.564A.553.553,0,0,0,107.453,118.375Zm1.482-.178a.366.366,0,0,0,.02-.732.366.366,0,1,0-.02.732Zm-3.327-1.857a.379.379,0,0,0-.384-.36.367.367,0,0,0-.35.388.355.355,0,0,0,.367.345A.369.369,0,0,0,105.608,116.341Zm-1.109,2.6a.376.376,0,0,0,.368-.375.367.367,0,0,0-.382-.357.354.354,0,0,0-.352.36A.365.365,0,0,0,104.5,118.939Z" transform="translate(0 -156.205)" fill="#d9ae39"/>
      <path id="Path_3175" data-name="Path 3175" d="M268.921-44.662c.115-.531.24-1.034.328-1.543a5.029,5.029,0,0,0,.044-.843q.005-2.743,0-5.485V-52.8h1.476v3.2c.192-.051.348-.1.506-.134a3.733,3.733,0,0,1,3.825,1.262,6.472,6.472,0,0,1,1.556,3.735,1.925,1.925,0,0,1,0,.2c-.2-.031-.38-.064-.564-.089a3.88,3.88,0,0,0-2.02.251,4.287,4.287,0,0,1-3.372,0A4.164,4.164,0,0,0,268.921-44.662Z" transform="translate(-162.58 0)" fill="#d9ae39"/>
    </g>
  </g>
</svg>
