<svg xmlns="http://www.w3.org/2000/svg" width="19.27" height="24.833" viewBox="0 0 19.27 24.833">
  <g id="icon-training" transform="translate(-118.92 79.624)">
    <path id="Path_3314" data-name="Path 3314" d="M136.5-68.067q0,5.292,0,10.583c0,.715-.3,1-1.061,1H119.963c-.729,0-1.043-.29-1.043-.967q0-10.609,0-21.218c0-.668.308-.956,1.021-.956h15.533c.729,0,1.028.283,1.028.973Q136.5-73.359,136.5-68.067Zm-4.083-5.494a4.555,4.555,0,0,0-4.691-4.389A4.567,4.567,0,0,0,123-73.566a4.569,4.569,0,0,0,4.7,4.39A4.559,4.559,0,0,0,132.418-73.561ZM120.6-65.53c0,.351,0,.7,0,1.053,0,.37.176.54.566.543q1.144.007,2.289,0,.566,0,.569-.519.008-1.078,0-2.157c0-.338-.184-.508-.543-.51q-1.172-.006-2.344,0c-.361,0-.532.168-.536.511C120.6-66.249,120.6-65.89,120.6-65.53Zm1.707,3.593c-.395,0-.789,0-1.184,0-.337.005-.518.164-.52.471q-.01,1.115,0,2.231a.46.46,0,0,0,.514.485q1.2.013,2.4,0a.466.466,0,0,0,.512-.491q.01-1.1,0-2.205c0-.319-.189-.485-.533-.49C123.1-61.942,122.7-61.938,122.307-61.937Zm8.205,1.145h2.4c.625,0,1.249,0,1.874,0a.407.407,0,0,0,.455-.385c.006-.231-.156-.384-.433-.4-.073-.005-.147,0-.22,0h-8.1a1.647,1.647,0,0,0-.329.019.36.36,0,0,0-.246.579.733.733,0,0,0,.471.188C127.756-60.787,129.134-60.793,130.512-60.793Zm.016-5.188h4.079c.439,0,.635-.125.631-.4s-.193-.391-.642-.391h-8.13a1.94,1.94,0,0,0-.275.011.378.378,0,0,0-.346.466c.058.242.245.316.494.316Q128.434-65.983,130.529-65.98Zm-1.006,6.88h3.061c.429,0,.641-.133.64-.4s-.209-.4-.645-.4h-6.123a1.588,1.588,0,0,0-.274.014.369.369,0,0,0-.344.374.382.382,0,0,0,.348.4,1.165,1.165,0,0,0,.247.009Zm-.011-5.188q1.6,0,3.2,0c.312,0,.508-.152.514-.388s-.186-.393-.5-.4c-.046,0-.092,0-.138,0h-6.122a1.816,1.816,0,0,0-.275.011.368.368,0,0,0-.355.39.382.382,0,0,0,.365.386,1.452,1.452,0,0,0,.248.006Z" fill="#d9ae39"/>
    <path id="Path_3315" data-name="Path 3315" d="M141.965-33.921h.375q7.216,0,14.431,0a2,2,0,0,0,1.314-.368,1.5,1.5,0,0,0,.6-1.086c.011-.145.013-.291.013-.436q0-10.044,0-20.089v-.355a.759.759,0,0,1,.8.578,1.71,1.71,0,0,1,.029.358q0,10.6,0,21.193c0,.7-.3.981-1.053.981H142.975C142.358-33.144,142.05-33.369,141.965-33.921Z" transform="translate(-21.346 -21.647)" fill="#d9ae39"/>
    <path id="Path_3316" data-name="Path 3316" d="M206.66-22.773c0,.49-.006.939,0,1.388,0,.233-.084.337-.324.33-.349-.01-.7-.012-1.048,0-.25.009-.35-.093-.345-.341.009-.449,0-.9,0-1.378-.461,0-.9,0-1.338,0-.337,0-.376-.041-.377-.385,0-.3,0-.607,0-.911,0-.386.028-.415.4-.415h1.312c0-.42,0-.829,0-1.238,0-.471.006-.477.48-.478.313,0,.625,0,.938,0,.211,0,.3.091.3.3-.005.459,0,.917,0,1.417h1.219c.5,0,.5,0,.5.51,0,.285-.01.571,0,.855.012.267-.1.358-.362.35C207.578-22.783,207.138-22.773,206.66-22.773Z" transform="translate(-78.097 -49.483)" fill="#d9ae39"/>
  </g>
</svg>
