<svg xmlns="http://www.w3.org/2000/svg" width="16.625" height="11.947" viewBox="0 0 16.625 11.947">
  <g id="icon-edu" transform="translate(-58 37.131)">
    <path id="Path_3206" data-name="Path 3206" d="M58-33.374a.751.751,0,0,1,.45-.409q3.8-1.641,7.6-3.293a.674.674,0,0,1,.576.021q3.36,1.46,6.722,2.914c.327.142.655.282.979.43a.485.485,0,0,1,.3.465.491.491,0,0,1-.279.46.182.182,0,0,1-.285-.076.432.432,0,0,0-.36-.216l-5.889-.756c-.467-.06-.933-.122-1.4-.183a.528.528,0,0,0-.617.457.527.527,0,0,0,.492.575l4.955.641c.536.069,1.072.139,1.609.2.149.018.219.081.219.239q0,2.817,0,5.634a.521.521,0,0,1-.511.556.528.528,0,0,1-.526-.56q0-2.655,0-5.31v-.192c-.075.031-.13.052-.183.075q-2.6,1.125-5.189,2.253a.788.788,0,0,1-.682,0q-3.789-1.652-7.585-3.288A.714.714,0,0,1,58-33.114Z" transform="translate(0 0)" fill="#d9ae39"/>
    <path id="Path_3207" data-name="Path 3207" d="M140.189,120.851c0,.352.029.706-.006,1.054a2.461,2.461,0,0,1-1.065,1.713,5.569,5.569,0,0,1-2.362,1.017,8.342,8.342,0,0,1-4.4-.248,4.339,4.339,0,0,1-2.008-1.289,2.209,2.209,0,0,1-.542-1.49c.008-.552,0-1.1,0-1.656,0-.281.08-.335.332-.226,1.378.6,2.758,1.188,4.132,1.793a1.73,1.73,0,0,0,1.471,0c1.369-.6,2.744-1.193,4.117-1.788.263-.114.341-.063.341.228s0,.6,0,.893Z" transform="translate(-68.691 -150.001)" fill="#d9ae39"/>
  </g>
</svg>
