<svg xmlns="http://www.w3.org/2000/svg" width="19.366" height="19.362" viewBox="0 0 19.366 19.362">
  <g id="icon-info" transform="translate(-72.157 -788.436)">
    <path id="Path_3269" data-name="Path 3269" d="M82.406,807.8H81.271a1.016,1.016,0,0,0-.146-.031,8.933,8.933,0,0,1-3.394-.887A9.557,9.557,0,0,1,72.31,799.8c-.072-.368-.1-.745-.153-1.117v-1.134a1.292,1.292,0,0,0,.032-.163,8.959,8.959,0,0,1,1.107-3.813,9.507,9.507,0,0,1,8.137-5.121,8.87,8.87,0,0,1,4.929,1.115A9.488,9.488,0,0,1,91.5,797.71a8.971,8.971,0,0,1-1.12,4.947,9.538,9.538,0,0,1-6.859,4.989C83.156,807.717,82.779,807.749,82.406,807.8Zm.643-6.05v-.227q0-1.976,0-3.951a.607.607,0,0,0-.658-.661q-1.163,0-2.326,0a.606.606,0,1,0,.007,1.208c.181,0,.362,0,.544,0v3.631c-.2,0-.39,0-.578,0a.6.6,0,1,0,0,1.207q1.8.006,3.593,0a.6.6,0,1,0,.008-1.207C83.453,801.745,83.265,801.749,83.049,801.749ZM81.84,795.7a1.209,1.209,0,1,0-1.21-1.216A1.218,1.218,0,0,0,81.84,795.7Z" fill="#d9ae39"/>
  </g>
</svg>
