<svg xmlns="http://www.w3.org/2000/svg" width="19.949" height="22.346" viewBox="0 0 19.949 22.346">
  <g id="icon-solution" transform="translate(-99.944 67.331)">
    <path id="Path_3237" data-name="Path 3237" d="M157.681-5.763h-2.793c0-.59,0-1.169.006-1.748,0-.067.072-.143.127-.2.29-.3.588-.588.879-.884.221-.224.237-.457.052-.632s-.4-.148-.614.066c-.276.275-.546.556-.846.862-.3-.306-.587-.594-.873-.881a.4.4,0,0,0-.471-.126.393.393,0,0,0-.106.674c.294.306.606.594.892.906a.61.61,0,0,1,.148.363c.016.506.006,1.014.005,1.521a.634.634,0,0,1-.01.069H151.3c0-.19-.006-.386,0-.582a.284.284,0,0,0-.16-.3,6.688,6.688,0,0,1-3.3-4.581,6.785,6.785,0,0,1,5.526-7.99,6.774,6.774,0,0,1,7.8,5.438,6.779,6.779,0,0,1-3.191,7.056.468.468,0,0,0-.29.525A3.276,3.276,0,0,1,157.681-5.763Z" transform="translate(-44.57 -44.823)" fill="#d9ae39"/>
    <path id="Path_3238" data-name="Path 3238" d="M206.532,221.932c0,.288,0,.537,0,.786a.792.792,0,0,1-.8.808c-.531.008-1.063.009-1.595,0a.792.792,0,0,1-.791-.795c-.007-.256,0-.512,0-.8-.255,0-.493,0-.731,0a.807.807,0,0,1-.866-.873c0-.231,0-.462,0-.707h6.378c0,.3.022.6-.005.893a.783.783,0,0,1-.766.686c-.133.006-.266,0-.4,0Z" transform="translate(-95.017 -268.517)" fill="#d9ae39"/>
    <path id="Path_3239" data-name="Path 3239" d="M201.919,197.134v-.768h6.354v.768Z" transform="translate(-95.181 -246.13)" fill="#d9ae39"/>
    <path id="Path_3240" data-name="Path 3240" d="M143.476-23.373a2.156,2.156,0,0,1-.331-.211q-.544-.528-1.073-1.071a.39.39,0,0,1-.024-.593.386.386,0,0,1,.576.023c.374.363.742.734,1.107,1.106a.343.343,0,0,1,.084.451A1.782,1.782,0,0,1,143.476-23.373Z" transform="translate(-39.183 -39.17)" fill="#d9ae39"/>
    <path id="Path_3241" data-name="Path 3241" d="M329.11-23.509c-.1-.082-.258-.149-.306-.263a.463.463,0,0,1,.036-.406c.385-.421.792-.824,1.207-1.215a.347.347,0,0,1,.514.036.348.348,0,0,1,.029.515c-.392.415-.8.813-1.211,1.212A1.027,1.027,0,0,1,329.11-23.509Z" transform="translate(-213.585 -39.053)" fill="#d9ae39"/>
    <path id="Path_3242" data-name="Path 3242" d="M143.913,161.453a2.121,2.121,0,0,1-.216.345c-.34.353-.688.7-1.039,1.042a.4.4,0,1,1-.56-.566c.35-.356.7-.707,1.058-1.058a.361.361,0,0,1,.472-.094A1.586,1.586,0,0,1,143.913,161.453Z" transform="translate(-39.193 -213.182)" fill="#d9ae39"/>
    <path id="Path_3243" data-name="Path 3243" d="M244.453-66.157c0,.258,0,.515,0,.773a.4.4,0,0,1-.4.443.4.4,0,0,1-.393-.451q-.006-.748,0-1.5a.4.4,0,0,1,.4-.443.4.4,0,0,1,.394.451C244.457-66.639,244.453-66.4,244.453-66.157Z" transform="translate(-134.135 0)" fill="#d9ae39"/>
    <path id="Path_3244" data-name="Path 3244" d="M101.138,77.149c-.258,0-.515.006-.773,0a.4.4,0,1,1,0-.793q.773-.009,1.546,0a.4.4,0,1,1,0,.793C101.654,77.155,101.4,77.149,101.138,77.149Z" transform="translate(0 -134.109)" fill="#d9ae39"/>
    <path id="Path_3245" data-name="Path 3245" d="M364.715,76.364c.258,0,.515-.005.773,0a.4.4,0,1,1,0,.793q-.773.01-1.546,0a.4.4,0,1,1,0-.793C364.2,76.358,364.457,76.364,364.715,76.364Z" transform="translate(-246.017 -134.12)" fill="#d9ae39"/>
    <path id="Path_3246" data-name="Path 3246" d="M330.273,162.582c-.08.1-.143.256-.251.3a.474.474,0,0,1-.41-.029c-.417-.379-.815-.781-1.2-1.192a.39.39,0,0,1,.555-.54c.4.382.794.78,1.181,1.179A1.037,1.037,0,0,1,330.273,162.582Z" transform="translate(-213.156 -213.137)" fill="#d9ae39"/>
  </g>
</svg>
