<svg xmlns="http://www.w3.org/2000/svg" width="30" height="30" viewBox="0 0 30 30">
  <g id="icon-phu-khoa" transform="translate(-391 -3399)">
    <g id="Ellipse_164" data-name="Ellipse 164" transform="translate(391 3399)" fill="#fff" stroke="#d9ae39" stroke-width="1">
      <circle cx="15" cy="15" r="15" stroke="none"/>
      <circle cx="15" cy="15" r="14.5" fill="none"/>
    </g>
    <g id="Group_1952" data-name="Group 1952" transform="translate(306.124 3434.921)">
      <path id="Path_3177" data-name="Path 3177" d="M100.676-12.377a.208.208,0,0,1-.029.046c-.635.542-.913.54-1.5.032a4.188,4.188,0,0,1-1.187-2.029,10.819,10.819,0,0,1-.417-5.207,7.074,7.074,0,0,1,.241-.9,1.985,1.985,0,0,0-.838-2.437A2.636,2.636,0,0,1,95.75-24.4a2.058,2.058,0,0,1,.126-1.36c-.379-.06-.736-.112-1.092-.176a7.907,7.907,0,0,1-2.609-.971,1.291,1.291,0,0,0-.7-.178.808.808,0,0,0-.756.92,2.474,2.474,0,0,0,.2.78c.128.286.327.339.625.25a1.441,1.441,0,0,1,1.068.107,3.189,3.189,0,0,1,1.871,2.485A1.164,1.164,0,0,1,92.94-21.18a3.317,3.317,0,0,1-2.172-2.659,1.274,1.274,0,0,0-.373-.9,2.014,2.014,0,0,1,.15-2.792,1.6,1.6,0,0,1,1.9-.139,7.991,7.991,0,0,0,3.624,1.108.827.827,0,0,0,.638-.183,4.711,4.711,0,0,1,2.617-.945,5.666,5.666,0,0,1,3.066.53,2.6,2.6,0,0,1,.611.382.879.879,0,0,0,.744.211,8.005,8.005,0,0,0,3.576-1.109,1.59,1.59,0,0,1,1.808.085,1.62,1.62,0,0,1,.692,1.693,1.9,1.9,0,0,1-.795,1.444.2.2,0,0,0-.075.167,2.424,2.424,0,0,1-.494,1.822,2.979,2.979,0,0,1-1.6,1.265,1.156,1.156,0,0,1-1.6-1.242,3.164,3.164,0,0,1,2.37-2.717,1.361,1.361,0,0,1,.617.052.434.434,0,0,0,.5-.135,1.44,1.44,0,0,0,.208-1.386.911.911,0,0,0-1.328-.308,7.418,7.418,0,0,1-2.28.928c-.469.1-.948.17-1.436.255a.616.616,0,0,0,.022.114,2.022,2.022,0,0,1-.413,2.152,3.945,3.945,0,0,1-.741.635,2.012,2.012,0,0,0-.818,2.37c.147.465.252.943.381,1.433a3.606,3.606,0,0,0-3.146,2.787A3.563,3.563,0,0,0,100.676-12.377Z" fill="#d9ae39"/>
      <path id="Path_3178" data-name="Path 3178" d="M252.389,127.082a2.835,2.835,0,1,1-2.831,2.837A2.828,2.828,0,0,1,252.389,127.082Zm-.395,2.437c-.158,0-.282,0-.405,0-.321,0-.493.144-.489.4s.183.393.5.4c.128,0,.256,0,.394,0,0,.186-.005.334,0,.481a.4.4,0,0,0,.412.413.4.4,0,0,0,.381-.418c.005-.153,0-.306,0-.475h.261c.078,0,.156,0,.233,0a.4.4,0,0,0,.4-.423.385.385,0,0,0-.424-.37c-.152,0-.3,0-.472,0,0-.183,0-.33,0-.478a.4.4,0,0,0-.4-.426.4.4,0,0,0-.4.43C251.99,129.193,251.994,129.34,251.994,129.519Z" transform="translate(-149.686 -145.327)" fill="#d9ae39"/>
    </g>
  </g>
</svg>
