<svg xmlns="http://www.w3.org/2000/svg" width="257.549" height="73.602" viewBox="0 0 257.549 73.602">
  <g id="logo" transform="translate(-6.39 -9.554)">
    <g id="XMLID_489_" transform="translate(6.39 9.554)">
      <g id="XMLID_1124_" transform="translate(30.223 35.916)">
        <g id="Group_10498" data-name="Group 10498" transform="translate(0 0)">
          <path id="XMLID_42_" d="M111.365,125.494a4.614,4.614,0,0,1,1.316,5.265,4.532,4.532,0,0,1-1.455,1.938v4.1a1.623,1.623,0,0,1-.572,2.984,1.507,1.507,0,0,1-.27.024,1.79,1.79,0,0,1-.294-.024,1.626,1.626,0,0,1-.572-2.976v-3.058c-2.616,1.3-5.764,1.962-5.731,4.791a4.6,4.6,0,0,0,1.292,3.238,5.469,5.469,0,0,0,5.012,1.406l.131-.025c.147-.033.286-.065.433-.106a9.181,9.181,0,0,0,.711-17.561Z" transform="translate(-103.786 -125.494)" fill="#0a6e40"/>
        </g>
      </g>
      <g id="XMLID_1118_" transform="translate(35.178 6.565)">
        <g id="Group_10499" data-name="Group 10499" transform="translate(0 0)">
          <path id="XMLID_17_" d="M123.015,32.543V47.267a1.631,1.631,0,0,1-1.631,1.631h0a1.631,1.631,0,0,1-1.631-1.631V32.543a1.631,1.631,0,0,1,1.631-1.631h0A1.631,1.631,0,0,1,123.015,32.543Z" transform="translate(-119.753 -30.912)" fill="#0a6e40"/>
        </g>
      </g>
      <g id="XMLID_1095_" transform="translate(7.609 39.538)">
        <g id="Group_10500" data-name="Group 10500">
          <g id="XMLID_69_" transform="translate(30.744)">
            <path id="XMLID_70_" d="M130.457,164.666a14.049,14.049,0,0,1,1.778-11.252c3.637-5.377,9.708-6.4,11.853-7.5,2.2-1.121,3.422-2.126,3.474-2.369.624.554,1.677,1.96.159,3.953a8.882,8.882,0,0,1-4.845,3.277c-1.665.5-3.065,1.573-2.805,2.093s3.978.5,6.685-2.531a31.408,31.408,0,0,0,5.467-7.767c.949-2.321,3.3-5.418,5.459-5.406.07,2.118-1.558,8.284-3.389,11.205-1.251,2-4.542,7.078-9.223,10.041a25.278,25.278,0,0,1-9.938,3.883C132.54,162.705,130.725,164.033,130.457,164.666Z" transform="translate(-129.982 -137.167)" fill="#f2a82f"/>
          </g>
          <g id="XMLID_67_">
            <path id="XMLID_68_" d="M58.138,164.666a14.049,14.049,0,0,0-1.778-11.252c-3.637-5.377-9.708-6.4-11.853-7.5-2.2-1.121-3.423-2.126-3.474-2.369-.624.554-1.677,1.96-.159,3.953a8.882,8.882,0,0,0,4.845,3.277c1.665.5,3.065,1.573,2.805,2.093s-3.978.5-6.685-2.531a31.409,31.409,0,0,1-5.467-7.767c-.949-2.321-3.3-5.418-5.459-5.406-.07,2.118,1.558,8.284,3.389,11.205,1.251,2,4.542,7.078,9.223,10.041a25.278,25.278,0,0,0,9.938,3.883C56.055,162.705,57.869,164.033,58.138,164.666Z" transform="translate(-30.91 -137.167)" fill="#f2a82f"/>
          </g>
        </g>
      </g>
      <g id="XMLID_871_" transform="translate(7.554 7.853)">
        <g id="Group_10501" data-name="Group 10501">
          <g id="XMLID_248_" transform="translate(50.639 15.045)">
            <circle id="XMLID_249_" cx="2.708" cy="2.708" r="2.708" fill="#0a6e40"/>
          </g>
          <g id="XMLID_246_" transform="translate(52.003 22.582)">
            <circle id="XMLID_247_" cx="3.249" cy="3.249" r="3.249" fill="#0a6e40"/>
          </g>
          <g id="XMLID_244_" transform="translate(48.094 9.399)">
            <circle id="XMLID_245_" cx="2.044" cy="2.044" r="2.044" fill="#0a6e40"/>
          </g>
          <g id="XMLID_242_" transform="translate(44.15 4.961)">
            <circle id="XMLID_243_" cx="1.661" cy="1.661" r="1.661" fill="#0a6e40"/>
          </g>
          <g id="XMLID_240_" transform="translate(38.758 1.884)">
            <circle id="XMLID_241_" cx="1.661" cy="1.661" r="1.661" fill="#0a6e40"/>
          </g>
          <g id="XMLID_237_" transform="translate(34.007)">
            <circle id="XMLID_239_" cx="1.05" cy="1.05" r="1.05" fill="#0a6e40"/>
          </g>
          <g id="XMLID_235_" transform="translate(2.445 15.045)">
            <circle id="XMLID_236_" cx="2.708" cy="2.708" r="2.708" fill="#0a6e40"/>
          </g>
          <g id="XMLID_233_" transform="translate(0 22.582)">
            <circle id="XMLID_234_" cx="3.249" cy="3.249" r="3.249" fill="#0a6e40"/>
          </g>
          <g id="XMLID_231_" transform="translate(6.319 9.399)">
            <circle id="XMLID_232_" cx="2.044" cy="2.044" r="2.044" fill="#0a6e40"/>
          </g>
          <g id="XMLID_229_" transform="translate(11.029 4.961)">
            <circle id="XMLID_230_" cx="1.661" cy="1.661" r="1.661" fill="#0a6e40"/>
          </g>
          <g id="XMLID_227_" transform="translate(16.421 1.884)">
            <circle id="XMLID_228_" cx="1.661" cy="1.661" r="1.661" fill="#0a6e40"/>
          </g>
          <g id="XMLID_225_" transform="translate(22.395)">
            <circle id="XMLID_226_" cx="1.05" cy="1.05" r="1.05" fill="#0a6e40"/>
          </g>
        </g>
      </g>
      <g id="XMLID_811_" transform="translate(28.367 24.552)">
        <g id="Group_10502" data-name="Group 10502" transform="translate(0 0)">
          <g id="XMLID_117_" transform="translate(8.161)">
            <path id="XMLID_118_" d="M124.664,88.873v4.521a1.526,1.526,0,0,0-.278-.033,1.618,1.618,0,0,0-.286.033V88.873Z" transform="translate(-124.1 -88.873)" fill="#0a6e40"/>
          </g>
          <g id="XMLID_112_" transform="translate(0 1.109)">
            <g id="XMLID_115_" transform="translate(0 0)">
              <path id="XMLID_116_" d="M112.132,97.466v.057c0,2.412-2.1,3.319-4.325,4.276l-.262.114c-.319.139-.638.278-.948.425-.18.09-.368.18-.548.278a5.515,5.515,0,0,0-2.829,2.747,3.9,3.9,0,0,0,.76,4.6l.957.867-1.226-.417c-4.636-1.627-6.892-6.2-5.5-11.135a9.447,9.447,0,0,1,7.146-6.679l.2-.041v.531l-.123.033a8.912,8.912,0,0,0-6.7,6.3c-1.21,4.276.45,8.233,4.145,10.048a4.662,4.662,0,0,1-.139-4.309c.875-2.126,2.992-3.049,4.865-3.859,2.085-.9,4.031-1.733,4.006-3.834a4.322,4.322,0,0,0-1.218-3.049,4.863,4.863,0,0,0-3.295-1.431l-.155-.008v-.54l.172.008a5.411,5.411,0,0,1,3.663,1.594A4.864,4.864,0,0,1,112.132,97.466Z" transform="translate(-97.802 -92.446)" fill="#0a6e40"/>
            </g>
            <path id="XMLID_114_" d="M124.664,123.559V138.45a1.506,1.506,0,0,1-.27.025,1.789,1.789,0,0,1-.294-.025V123.845A6.1,6.1,0,0,1,124.664,123.559Z" transform="translate(-115.94 -113.904)" fill="#0a6e40"/>
            <path id="XMLID_113_" d="M124.664,171.547v16.83H124.1v-16.83a1.758,1.758,0,0,0,.294.025A1.452,1.452,0,0,0,124.664,171.547Z" transform="translate(-115.94 -147.001)" fill="#0a6e40"/>
          </g>
          <g id="XMLID_110_" transform="translate(6.828 4.488)">
            <path id="XMLID_111_" d="M123.051,104.964a1.615,1.615,0,0,1-1.349,1.586,1.518,1.518,0,0,1-.278.033,1.623,1.623,0,0,1,0-3.246,1.524,1.524,0,0,1,.278.033A1.617,1.617,0,0,1,123.051,104.964Z" transform="translate(-119.806 -103.337)" fill="#0a6e40"/>
          </g>
        </g>
      </g>
      <g id="XMLID_490_" transform="translate(0 0)">
        <g id="Group_10503" data-name="Group 10503">
          <g id="XMLID_303_">
            <g id="XMLID_336_" transform="translate(66.956 36.802)">
              <path id="XMLID_337_" d="M228.787,129.322l-2.681-.07a34.38,34.38,0,0,1-.4,4.483l-.883-.14a36.626,36.626,0,0,0,.416-5.244h-.894a33.028,33.028,0,0,1-.555,5.945l2.636.49a35.971,35.971,0,0,0,.551-4.587l.893.047a36.246,36.246,0,0,1-2.041,10.192l-.842-.3a35.945,35.945,0,0,0,1.262-4.444l-2.623-.56a31.585,31.585,0,0,1-1.466,4.9l.833.323a31.156,31.156,0,0,0,1.309-4.181l.869.21a32.084,32.084,0,0,1-1.345,4.294l2.5.969A36.385,36.385,0,0,0,228.787,129.322Z" transform="translate(-222.158 -128.351)" fill="#0a6e40"/>
            </g>
            <g id="XMLID_334_" transform="translate(60.699 48.484)">
              <path id="XMLID_335_" d="M212.062,168.515l-2.473-1.035a34.365,34.365,0,0,1-2.015,4.025l-.772-.451a31.039,31.039,0,0,0,2.283-4.735l-.833-.323a32.263,32.263,0,0,1-2.66,5.34l2.278,1.414a34.213,34.213,0,0,0,2.167-4.079l.815.367a35.4,35.4,0,0,1-5.593,8.758l-.676-.585a33.881,33.881,0,0,0,2.788-3.682l-2.24-1.473A34.116,34.116,0,0,1,202,176.1l.661.6a34.468,34.468,0,0,0,2.73-3.43l.734.511a35.3,35.3,0,0,1-2.8,3.522l1.981,1.807A37.378,37.378,0,0,0,212.062,168.515Z" transform="translate(-201.995 -165.995)" fill="#0a6e40"/>
            </g>
            <g id="XMLID_332_" transform="translate(51.213 58.588)">
              <path id="XMLID_333_" d="M183.545,202.27l-1.933-1.858a32.329,32.329,0,0,1-3.325,3.034l-.558-.7a34.508,34.508,0,0,0,3.844-3.59l-.66-.6a32.2,32.2,0,0,1-4.413,4.022l1.617,2.139a37.094,37.094,0,0,0,3.493-3.023l.628.636a36.265,36.265,0,0,1-8.371,6.157l-.42-.789a34.477,34.477,0,0,0,3.923-2.438l-1.561-2.18a30.723,30.723,0,0,1-4.382,2.641l.4.8a34.532,34.532,0,0,0,3.788-2.205l.5.74a35.442,35.442,0,0,1-3.89,2.265l1.2,2.4A36.643,36.643,0,0,0,183.545,202.27Z" transform="translate(-171.427 -198.555)" fill="#0a6e40"/>
            </g>
            <g id="XMLID_330_" transform="translate(39.787 65.752)">
              <path id="XMLID_331_" d="M147.151,226.063l-1.133-2.43a35.319,35.319,0,0,1-4.194,1.633l-.267-.853a34.379,34.379,0,0,0,4.873-1.971l-.4-.8a32.177,32.177,0,0,1-5.562,2.153l.733,2.58a34,34,0,0,0,4.351-1.551l.356.82a35.674,35.674,0,0,1-10.036,2.7l-.105-.887a35.816,35.816,0,0,0,4.544-.836l-.663-2.6a34.165,34.165,0,0,1-5.043.863l.081.89a32.286,32.286,0,0,0,4.328-.69l.2.872a33.188,33.188,0,0,1-4.445.708l.244,2.67A36.528,36.528,0,0,0,147.151,226.063Z" transform="translate(-134.605 -221.641)" fill="#0a6e40"/>
            </g>
            <g id="XMLID_328_" transform="translate(26.729 67.905)">
              <path id="XMLID_329_" d="M105.021,234.2l-.174-2.675a33.054,33.054,0,0,1-4.5,0l.058-.892a33.447,33.447,0,0,0,5.261-.067l-.081-.89a31.594,31.594,0,0,1-5.973,0l-.244,2.67a35.824,35.824,0,0,0,4.617.119l.035.893a36.346,36.346,0,0,1-10.335-1.081l.221-.866a35.725,35.725,0,0,0,4.543.836l.315-2.663a30.493,30.493,0,0,1-5.015-1l-.244.86a32.652,32.652,0,0,0,4.284.92l-.128.884a33.535,33.535,0,0,1-4.4-.944l-.732,2.579A36.682,36.682,0,0,0,105.021,234.2Z" transform="translate(-92.524 -228.58)" fill="#0a6e40"/>
            </g>
            <g id="XMLID_326_" transform="translate(14.619 62.609)">
              <path id="XMLID_327_" d="M64.675,220.841l.8-2.559a35.337,35.337,0,0,1-4.195-1.633l.378-.81a31.5,31.5,0,0,0,4.927,1.832l.244-.86a32.181,32.181,0,0,1-5.562-2.153l-1.2,2.4a33.273,33.273,0,0,0,4.261,1.781l-.289.846a35.333,35.333,0,0,1-9.238-4.76l.52-.727a34.5,34.5,0,0,0,3.923,2.439l1.26-2.367a34.094,34.094,0,0,1-4.314-2.753l-.539.713a33.242,33.242,0,0,0,3.666,2.4l-.441.777a34.17,34.17,0,0,1-3.764-2.469L53.5,215.08A37.205,37.205,0,0,0,64.675,220.841Z" transform="translate(-53.5 -211.515)" fill="#0a6e40"/>
            </g>
            <g id="XMLID_324_" transform="translate(5.507 53.824)">
              <path id="XMLID_325_" d="M32.486,194.953l1.673-2.1a32.379,32.379,0,0,1-3.325-3.034l.644-.62a33.291,33.291,0,0,0,3.929,3.5l.539-.713a32.165,32.165,0,0,1-4.413-4.022l-1.981,1.807a37.184,37.184,0,0,0,3.334,3.2l-.576.684a36.132,36.132,0,0,1-6.9-7.769l.747-.491a33.876,33.876,0,0,0,2.788,3.682l2.028-1.754a31.323,31.323,0,0,1-3.036-4.12l-.76.471a35.193,35.193,0,0,0,2.549,3.568l-.691.567a36.1,36.1,0,0,1-2.617-3.663l-2.278,1.414A36.875,36.875,0,0,0,32.486,194.953Z" transform="translate(-24.138 -183.203)" fill="#0a6e40"/>
            </g>
            <g id="XMLID_322_" transform="translate(0.622 42.746)">
              <path id="XMLID_323_" d="M12.781,160.106l2.315-1.353a34.289,34.289,0,0,1-2.015-4.025l.824-.345a34.99,34.99,0,0,0,2.412,4.672l.76-.471a32.228,32.228,0,0,1-2.66-5.34l-2.5.969a34.955,34.955,0,0,0,1.946,4.19l-.783.431a35.962,35.962,0,0,1-3.625-9.742l.874-.187a36.008,36.008,0,0,0,1.262,4.444l2.525-.9a31.639,31.639,0,0,1-1.327-4.939l-.879.163a31.248,31.248,0,0,0,1.084,4.246l-.85.278a32.123,32.123,0,0,1-1.112-4.361l-2.636.49A36.3,36.3,0,0,0,12.781,160.106Z" transform="translate(-8.395 -147.507)" fill="#0a6e40"/>
            </g>
            <g id="XMLID_320_" transform="translate(0 30.041)">
              <path id="XMLID_321_" d="M6.842,119.128l2.648-.42a34.325,34.325,0,0,1-.4-4.483l.893-.023a31.493,31.493,0,0,0,.547,5.23l.879-.163a33.014,33.014,0,0,1-.555-5.944H8.17a36.7,36.7,0,0,0,.311,4.608l-.886.117a36.4,36.4,0,0,1,.13-10.389l.883.14a35.262,35.262,0,0,0-.414,4.6l2.681.07a30.592,30.592,0,0,1,.533-5.09l-.879-.163A34.213,34.213,0,0,0,10,111.569l-.893-.047a35.019,35.019,0,0,1,.537-4.469l-2.636-.49A37.19,37.19,0,0,0,6.842,119.128Z" transform="translate(-6.39 -106.563)" fill="#0a6e40"/>
            </g>
            <g id="XMLID_318_" transform="translate(0.808 17.424)">
              <path id="XMLID_319_" d="M8.995,77.568l2.622.56a35.049,35.049,0,0,1,1.23-4.33l.841.3a32.58,32.58,0,0,0-1.364,5.077l.879.163A32.227,32.227,0,0,1,14.832,73.6l-2.5-.969a32.977,32.977,0,0,0-1.381,4.408l-.869-.21a35.491,35.491,0,0,1,3.884-9.64l.772.451a35.181,35.181,0,0,0-2.068,4.131l2.473,1.035a34.085,34.085,0,0,1,2.347-4.546l-.76-.471a32.382,32.382,0,0,0-2.056,3.87l-.815-.367a33.276,33.276,0,0,1,2.112-3.975l-2.278-1.414A36.743,36.743,0,0,0,8.995,77.568Z" transform="translate(-8.995 -65.906)" fill="#0a6e40"/>
            </g>
            <g id="XMLID_316_" transform="translate(6.032 7.43)">
              <path id="XMLID_317_" d="M25.827,42.875l2.24,1.473a32.96,32.96,0,0,1,2.717-3.589l.676.585a32.235,32.235,0,0,0-3.12,4.234l.76.471a32.5,32.5,0,0,1,3.6-4.764l-1.981-1.807a36.21,36.21,0,0,0-2.877,3.614l-.734-.511A35.955,35.955,0,0,1,34.208,35l.558.7a33.255,33.255,0,0,0-3.411,3.113l1.933,1.858a32.4,32.4,0,0,1,3.823-3.4l-.539-.713a35.369,35.369,0,0,0-3.316,2.869l-.628-.636a36.225,36.225,0,0,1,3.4-2.946L34.415,33.7A37.136,37.136,0,0,0,25.827,42.875Z" transform="translate(-25.827 -33.699)" fill="#0a6e40"/>
            </g>
            <g id="XMLID_314_" transform="translate(15.405 1.4)">
              <path id="XMLID_315_" d="M56.032,19.726l1.561,2.18a33.583,33.583,0,0,1,3.823-2.376l.42.789a34.966,34.966,0,0,0-4.433,2.83l.539.713a32.359,32.359,0,0,1,5.073-3.142l-1.2-2.4a36.315,36.315,0,0,0-3.992,2.324l-.5-.74a36.31,36.31,0,0,1,9.364-4.515l.267.853a36.247,36.247,0,0,0-4.305,1.676l1.133,2.43a30.632,30.632,0,0,1,4.793-1.782l-.244-.86a32.2,32.2,0,0,0-4.127,1.471l-.356-.82a33.119,33.119,0,0,1,4.239-1.511l-.732-2.579A36.217,36.217,0,0,0,56.032,19.726Z" transform="translate(-56.032 -14.267)" fill="#0a6e40"/>
            </g>
            <g id="XMLID_312_" transform="translate(27.665)">
              <path id="XMLID_313_" d="M95.542,10.893l.663,2.6a34.865,34.865,0,0,1,4.427-.815l.1.888a31.448,31.448,0,0,0-5.155,1.03l.244.86a32.466,32.466,0,0,1,5.865-1.094l-.244-2.67a34.078,34.078,0,0,0-4.562.727l-.2-.872a35.812,35.812,0,0,1,10.357-.817l-.058.892a33.873,33.873,0,0,0-4.618,0l.174,2.676a32.564,32.564,0,0,1,5.121.064l.081-.89a33.972,33.972,0,0,0-4.384-.113l-.035-.893a34.925,34.925,0,0,1,4.5.116l.244-2.67A37.392,37.392,0,0,0,95.542,10.893Z" transform="translate(-95.542 -9.755)" fill="#0a6e40"/>
            </g>
            <g id="XMLID_310_" transform="translate(39.787 0.259)">
              <path id="XMLID_311_" d="M135.978,10.589l-.315,2.663a34.86,34.86,0,0,1,4.427.815l-.221.866a35.028,35.028,0,0,0-5.183-.887l-.081.89a32.48,32.48,0,0,1,5.865,1.094l.733-2.579a34.446,34.446,0,0,0-4.516-.969l.128-.884a35.8,35.8,0,0,1,9.96,2.975l-.378.81a36.2,36.2,0,0,0-4.305-1.676l-.8,2.559a33.552,33.552,0,0,1,4.742,1.918l.4-.8a31.468,31.468,0,0,0-4.043-1.69l.29-.846a32.359,32.359,0,0,1,4.152,1.736l1.2-2.4A36.4,36.4,0,0,0,135.978,10.589Z" transform="translate(-134.605 -10.589)" fill="#0a6e40"/>
            </g>
            <g id="XMLID_308_" transform="translate(51.213 4.297)">
              <path id="XMLID_309_" d="M174.287,23.6l-1.26,2.367a33.579,33.579,0,0,1,3.823,2.376l-.52.727a31.6,31.6,0,0,0-4.5-2.714l-.4.8A32.386,32.386,0,0,1,176.5,30.3l1.617-2.139a35.027,35.027,0,0,0-3.862-2.533l.441-.778a35.7,35.7,0,0,1,8.2,6.376l-.644.619a33.226,33.226,0,0,0-3.412-3.113l-1.673,2.1a33.555,33.555,0,0,1,3.742,3.494l.66-.6a35.372,35.372,0,0,0-3.165-3.035l.576-.684a36.26,36.26,0,0,1,3.249,3.117l1.981-1.807A37.326,37.326,0,0,0,174.287,23.6Z" transform="translate(-171.427 -23.601)" fill="#0a6e40"/>
            </g>
            <g id="XMLID_306_" transform="translate(60.699 12.737)">
              <path id="XMLID_307_" d="M205.937,50.8l-2.028,1.754a32.959,32.959,0,0,1,2.717,3.589l-.747.491a35.012,35.012,0,0,0-3.222-4.157l-.66.6a32.523,32.523,0,0,1,3.6,4.764l2.278-1.414a36.976,36.976,0,0,0-2.685-3.759l.691-.567a36.372,36.372,0,0,1,5.361,8.9l-.825.345a35.171,35.171,0,0,0-2.068-4.131l-2.315,1.353a30.164,30.164,0,0,1,2.222,4.607l.833-.323a33.118,33.118,0,0,0-1.846-3.975l.783-.431a34.011,34.011,0,0,1,1.9,4.082l2.5-.969A36.427,36.427,0,0,0,205.937,50.8Z" transform="translate(-201.996 -50.799)" fill="#0a6e40"/>
            </g>
            <g id="XMLID_304_" transform="translate(66.956 24.414)">
              <path id="XMLID_305_" d="M226.668,88.431l-2.525.9a35.05,35.05,0,0,1,1.229,4.33l-.874.187a32.474,32.474,0,0,0-1.507-5.036l-.833.323a32.233,32.233,0,0,1,1.629,5.737l2.636-.49a33.01,33.01,0,0,0-1.142-4.476l.849-.278a35.506,35.506,0,0,1,1.763,10.241l-.894.023a35.22,35.22,0,0,0-.414-4.6l-2.648.42a35.745,35.745,0,0,1,.4,5.1h.894a34.878,34.878,0,0,0-.3-4.375l.886-.116a35.717,35.717,0,0,1,.3,4.492h2.681A37.2,37.2,0,0,0,226.668,88.431Z" transform="translate(-222.158 -88.431)" fill="#0a6e40"/>
            </g>
          </g>
        </g>
      </g>
    </g>
    <g id="XMLID_1_" transform="translate(89.208 31.554)">
      <g id="Group_10505" data-name="Group 10505" transform="translate(0.042)">
        <g id="Group_10504" data-name="Group 10504">
          <path id="Path_5138" data-name="Path 5138" d="M281.535,59.354l-.132.511-.18.8-.073.458-.25.026a1.243,1.243,0,0,0-.582-.538,3.107,3.107,0,0,0-1.12-.186,4.566,4.566,0,0,0-.512.025l-.038,1.075-.021,4.495a9.381,9.381,0,0,0,.233,2.477h-.667l-1.489,0H276.1q.036-.236.084-.589.061-.956.063-1.9l-.013-5.556h-.083a6.727,6.727,0,0,0-1.192.076,2.69,2.69,0,0,0-.5.143,2.406,2.406,0,0,0-.811.562l-.238-.131.1-.511.12-.668.084-.576q1.8.069,3.824.073Q279.652,59.416,281.535,59.354Z" transform="translate(-273.407 -57.565)" fill="#0a6e40"/>
          <path id="Path_5139" data-name="Path 5139" d="M303.976,67.518l-.121.747-.133.891-.073.694-.238.039a.968.968,0,0,0-.8-.565.71.71,0,0,0-.626.366,1.879,1.879,0,0,0-.235,1.008l0,.891-.012.2q-.013.223-.013.446a6.482,6.482,0,0,0,.247,1.835l-.667,0-1.084,0-.619,0q.048-.275.085-.589.048-.445.075-1.9l.027-1.481a6,6,0,0,0-.1-1.363.477.477,0,0,0-.511-.407h-.1l.239-.655.6-.025.989-.024.691-.038-.039,1.467.454-.667a2.851,2.851,0,0,1,.686-.765,1.288,1.288,0,0,1,.745-.215A1.406,1.406,0,0,1,303.976,67.518Z" transform="translate(-291.112 -63.124)" fill="#0a6e40"/>
          <path id="Path_5140" data-name="Path 5140" d="M322.362,73.845l-.252.655h-.489l-1.072.051-.691.051-.094-1.114-.5.457a2.385,2.385,0,0,1-1.622.7,1.575,1.575,0,0,1-1.345-.608,2.63,2.63,0,0,1-.39-1.619l0-1.868a15.3,15.3,0,0,0-.1-1.869,2.329,2.329,0,0,0-.14-.605l.691.041,1.1-.011.607-.025q-.052.354-.065.6-.079.734-.094,1.9l0,1.376a2.763,2.763,0,0,0,.058.682.683.683,0,0,0,.725.526.893.893,0,0,0,.751-.381,2.139,2.139,0,0,0,.253-1.224l0-1a14.506,14.506,0,0,0-.1-1.87,3.648,3.648,0,0,0-.154-.606l.691.04,1.1-.011.608-.025q-.036.236-.085.6-.073.708-.075,1.9l0,1.481q0,.943.021,1.088.107.681.571.682h.107Z" transform="translate(-302.553 -63.593)" fill="#0a6e40"/>
          <path id="Path_5141" data-name="Path 5141" d="M344.949,74.445l-.667,0-1.1,0h-.608q.036-.262.073-.59.072-.655.075-1.9l0-1.258a3.1,3.1,0,0,0-.069-.8.692.692,0,0,0-.738-.526.959.959,0,0,0-.787.392,2.014,2.014,0,0,0-.265,1.205l0,1a9.393,9.393,0,0,0,.233,2.477l-.667,0-1.1,0h-.607q.036-.288.073-.59.061-.563.075-1.9l.015-1.481a6.722,6.722,0,0,0-.08-1.363.475.475,0,0,0-.524-.407h-.1l.251-.655.6-.025,1.108-.024.691-.038-.038,1.088.489-.444a2.416,2.416,0,0,1,1.657-.691,1.689,1.689,0,0,1,1.393.593,2.516,2.516,0,0,1,.389,1.613l-.016,1.861A9,9,0,0,0,344.949,74.445Z" transform="translate(-318.09 -63.471)" fill="#0a6e40"/>
          <path id="Path_5142" data-name="Path 5142" d="M368.188,67.9l-.215.419-.192.459-.524-.027h-.119a.916.916,0,0,1-.131.013h-.119a1.791,1.791,0,0,1,.189.839,1.945,1.945,0,0,1-.736,1.63,3.339,3.339,0,0,1-2.092.566,5.041,5.041,0,0,1-.81-.067.7.7,0,0,0-.239.458q0,.538,1.44.54h.238l.691-.012q2.12,0,2.117,1.865a2.479,2.479,0,0,1-.981,2.042,4.069,4.069,0,0,1-2.6.768,3.569,3.569,0,0,1-2.006-.515,1.544,1.544,0,0,1-.766-1.337,1.384,1.384,0,0,1,.968-1.254l.286-.13-.262-.105a1,1,0,0,1-.736-.944,1.354,1.354,0,0,1,.526-.967l.668-.614a1.93,1.93,0,0,1-1.021-1.769,1.908,1.908,0,0,1,.724-1.595,3.231,3.231,0,0,1,2.032-.558,5.193,5.193,0,0,1,.751.051,2.671,2.671,0,0,1,.714.187l1.12-.024.56-.025.417-.038Zm-2.219,7.425a.644.644,0,0,0-.38-.63,1.614,1.614,0,0,0-.4-.132,3.757,3.757,0,0,0-1.012-.067l-.31.025c-.159.008-.314.022-.464.038a.588.588,0,0,0-.3.1.812.812,0,0,0-.419.694.849.849,0,0,0,.433.741,2.059,2.059,0,0,0,1.137.284,2.291,2.291,0,0,0,1.233-.3A.882.882,0,0,0,365.969,75.324Zm-.834-5.466q0-1.454-.724-1.456l-.024.013a.59.59,0,0,0-.525.267,1.744,1.744,0,0,0-.157.858q0,1.442.724,1.443Q365.132,70.985,365.135,69.858Z" transform="translate(-334.049 -63.265)" fill="#0a6e40"/>
          <path id="Path_5143" data-name="Path 5143" d="M396.794,64.28l-.168.537-.144.576a8.565,8.565,0,0,0-.965-.067h-.477L395,66.373l-.015,1.52a4.26,4.26,0,0,0,.093,1.062.691.691,0,0,0,.725.565,1.171,1.171,0,0,0,.68-.222l.2.118-.144.472-.168.629a6.086,6.086,0,0,1-1.585.311,1.537,1.537,0,0,1-1.689-1.235,5.593,5.593,0,0,1-.093-1.232l0-1.717a7,7,0,0,0-.087-1.369.464.464,0,0,0-.506-.388h-.214l.239-.707.655,0v-.223q-.028-.42-.07-.774l.56-.2.942-.443.477-.287.178.2a12.31,12.31,0,0,0-.147,1.756l.858.015a2.766,2.766,0,0,0,.786-.1Z" transform="translate(-355.341 -59.579)" fill="#0a6e40"/>
          <path id="Path_5144" data-name="Path 5144" d="M412.949,69.4l-.228.668h-.477l-1.048.056-.632.071-.034-.9-.513.458a2.04,2.04,0,0,1-1.383.574,1.5,1.5,0,0,1-1.22-.566,2.166,2.166,0,0,1-.456-1.416,1.694,1.694,0,0,1,1.41-1.845q.369-.078,1.2-.22a2.206,2.206,0,0,0,.477-.117.431.431,0,0,0,.227-.419q0-.917-1.07-.919a1.99,1.99,0,0,0-1.467.626l-.2-.105.17-1.454a5.879,5.879,0,0,1,2.139-.4q1.839,0,2.255,1.184a4.169,4.169,0,0,1,.117,1.232l0,1.822,0,.812q.023.865.552.866h.185Zm-1.511-6.372-.227.17-.191.157-.642-.6-.654-.578-.644.576-.645.6-.19-.16-.226-.174.263-.4.359-.624.2-.4.429-.026.81,0,.524-.038.214.485.356.617Zm-1.105,4.584v-.537a2.482,2.482,0,0,0-.986.208.858.858,0,0,0-.386.812,1.03,1.03,0,0,0,.172.6.565.565,0,0,0,.494.25.628.628,0,0,0,.548-.3A2.143,2.143,0,0,0,410.333,67.613Z" transform="translate(-365.516 -59.079)" fill="#0a6e40"/>
          <path id="Path_5145" data-name="Path 5145" d="M437.564,74.635l-.655,0-1.1,0-.62,0a4.461,4.461,0,0,0,.072-.589q.073-.59.087-1.9l.014-1.311a2.823,2.823,0,0,0-.07-.747.677.677,0,0,0-.714-.526.887.887,0,0,0-.751.392.843.843,0,0,0-.18.334,4.207,4.207,0,0,0-.073.871l-.014,1.14a8.853,8.853,0,0,0,.233,2.333h-.667l-1.1,0h-.607q.036-.236.084-.59.073-.668.076-1.9l0-1.311a3.054,3.054,0,0,0-.058-.747.676.676,0,0,0-.714-.526.916.916,0,0,0-.763.392,2.132,2.132,0,0,0-.241,1.2l0,1a9.584,9.584,0,0,0,.221,2.477l-.667,0-1.084,0h-.62q.048-.275.085-.589.048-.445.075-1.9l.027-1.481a6.008,6.008,0,0,0-.1-1.363.478.478,0,0,0-.512-.407h-.1l.24-.654.6-.025,1.12-.024.691-.038-.038,1.1.477-.458a2.294,2.294,0,0,1,1.622-.691,1.541,1.541,0,0,1,1.642,1.183l.513-.484a2.319,2.319,0,0,1,1.622-.691,1.518,1.518,0,0,1,1.57.973,3.537,3.537,0,0,1,.152,1.232l0,1.861A9.56,9.56,0,0,0,437.564,74.635Z" transform="translate(-379.434 -63.597)" fill="#0a6e40"/>
          <path id="Path_5146" data-name="Path 5146" d="M482.275,55.332a1.257,1.257,0,0,1-.449.857,5.827,5.827,0,0,1-.626.49q0,.223-.013.682t-.013.682l-.008,3.839A2.8,2.8,0,0,1,480,64.317a4.376,4.376,0,0,1-2.543.676,7.33,7.33,0,0,1-1.044-.081,2.635,2.635,0,0,1-2.466-1.892,7.028,7.028,0,0,1-.163-1.717l0-.786.005-2.463a6.256,6.256,0,0,0-.093-1.363q-.082-.406-.606-.407h-.1l.251-.746h.679l1.644,0h.691q-.122,1.507-.123,2.162l-.006,2.752a10.367,10.367,0,0,0,.057,1.534A1.946,1.946,0,0,0,476.8,63.3a1.445,1.445,0,0,0,.947.317,1.575,1.575,0,0,0,1.694-1.466,12.5,12.5,0,0,0,.1-1.706l0-2.415a10.118,10.118,0,0,0-.175-1.851,3.419,3.419,0,0,0-.165-.63h.667l1.179-.011a1.178,1.178,0,0,0-.272-.782l.024-.128c.1-.034.2-.064.3-.089l.047-.013a2.363,2.363,0,0,1,.619-.114.491.491,0,0,1,.4.322A1.178,1.178,0,0,1,482.275,55.332Zm-2.3-1.551-.645.483-1.563,1.294-.2-.184-.238-.17.275-.419.382-.654.2-.419.465-.025.953-.024.274-.039Z" transform="translate(-411.058 -53.624)" fill="#0a6e40"/>
          <path id="Path_5147" data-name="Path 5147" d="M509.481,74.781l-.667,0-1.1,0-.608,0c.024-.175.049-.371.073-.589q.072-.655.075-1.9l0-1.258a3.1,3.1,0,0,0-.069-.8.692.692,0,0,0-.738-.526.959.959,0,0,0-.787.391,2.012,2.012,0,0,0-.264,1.2l0,1a9.4,9.4,0,0,0,.233,2.477l-.667,0-1.1,0h-.607q.036-.288.073-.589.061-.563.075-1.9l.015-1.481a6.719,6.719,0,0,0-.08-1.363.475.475,0,0,0-.524-.407h-.1l.251-.654.6-.025,1.108-.024.691-.038-.038,1.088.489-.444a2.416,2.416,0,0,1,1.657-.691,1.688,1.688,0,0,1,1.393.593,2.519,2.519,0,0,1,.39,1.613l-.016,1.86A9,9,0,0,0,509.481,74.781Z" transform="translate(-431.565 -63.703)" fill="#0a6e40"/>
          <path id="Path_5148" data-name="Path 5148" d="M532.719,68.233l-.215.419-.192.459-.524-.027h-.119a.846.846,0,0,1-.131.013h-.119a1.791,1.791,0,0,1,.189.839,1.945,1.945,0,0,1-.735,1.63,3.341,3.341,0,0,1-2.092.566,5.047,5.047,0,0,1-.81-.067.7.7,0,0,0-.239.458q0,.538,1.44.54h.238l.691-.011q2.12,0,2.117,1.865a2.479,2.479,0,0,1-.981,2.042,4.069,4.069,0,0,1-2.6.768,3.565,3.565,0,0,1-2.006-.514,1.544,1.544,0,0,1-.766-1.337,1.383,1.383,0,0,1,.968-1.254l.286-.131-.262-.105a1,1,0,0,1-.737-.944,1.354,1.354,0,0,1,.526-.967l.668-.614a1.93,1.93,0,0,1-1.021-1.769,1.907,1.907,0,0,1,.724-1.595,3.23,3.23,0,0,1,2.032-.559,5.31,5.31,0,0,1,.751.051,2.686,2.686,0,0,1,.714.188l1.12-.024.56-.025.418-.038ZM530.5,75.659a.644.644,0,0,0-.38-.63,1.6,1.6,0,0,0-.4-.132,3.755,3.755,0,0,0-1.012-.067l-.31.025q-.238.012-.464.038a.589.589,0,0,0-.3.1.813.813,0,0,0-.418.694.849.849,0,0,0,.433.741,2.059,2.059,0,0,0,1.137.284,2.291,2.291,0,0,0,1.233-.3A.884.884,0,0,0,530.5,75.659Zm-.835-5.466q0-1.454-.724-1.456l-.024.013a.59.59,0,0,0-.525.267,1.744,1.744,0,0,0-.157.858q0,1.442.724,1.443Q529.663,71.319,529.666,70.193Z" transform="translate(-447.523 -63.496)" fill="#0a6e40"/>
          <path id="Path_5149" data-name="Path 5149" d="M563.475,67.62l-.524.013-.929.037-.631.038-.106-1.088-.477.413a2.74,2.74,0,0,1-.942.594,2.122,2.122,0,0,1-.608.076,1.764,1.764,0,0,1-1.541-.788,4.767,4.767,0,0,1,.308-4.91,3.077,3.077,0,0,1,2.415-.93,6.331,6.331,0,0,1,.774.054l0-.865a6.444,6.444,0,0,0-.087-1.291.472.472,0,0,0-.517-.388h-.1l.251-.654.6-.012,1.251-.036.7-.038q-.11,1.507-.112,2.2l-.022,4.848a14.952,14.952,0,0,0,.115,1.874A4.874,4.874,0,0,0,563.475,67.62ZM561.242,64.5l0-.865a3.03,3.03,0,0,0-.188-1.3.7.7,0,0,0-.678-.355q-1.061,0-1.065,2.239,0,2.11,1.008,2.112a.747.747,0,0,0,.572-.261A2.476,2.476,0,0,0,561.242,64.5Z" transform="translate(-469.12 -56.535)" fill="#0a6e40"/>
          <path id="Path_5150" data-name="Path 5150" d="M587.546,74.387l-.252.654-.489.025-1.072.037-.691.038-.094-1.114-.5.457a2.384,2.384,0,0,1-1.622.7q-1.763,0-1.735-2.227l0-1.868a14.812,14.812,0,0,0-.1-1.869,2.5,2.5,0,0,0-.14-.605l.691.04,1.1-.011.607-.025q-.026.17-.065.6-.08.878-.094,1.9l0,1.376a2.849,2.849,0,0,0,.059.682.687.687,0,0,0,.73.525q1.007,0,1.01-1.6l0-1a14.086,14.086,0,0,0-.109-1.871,3.155,3.155,0,0,0-.161-.606l.691.041,1.1-.011.608-.025a17.124,17.124,0,0,0-.16,2.5l0,1.481q0,.943.021,1.088.106.681.571.682ZM584.6,76.412a1.325,1.325,0,0,1-.192.865,1.171,1.171,0,0,1-.81.195q-.417,0-.542-.171a1.158,1.158,0,0,1-.124-.642,1.736,1.736,0,0,1,.175-.963q.173-.216.828-.214a.682.682,0,0,1,.559.185,1.277,1.277,0,0,1,.106.642Z" transform="translate(-485.446 -63.967)" fill="#0a6e40"/>
          <path id="Path_5151" data-name="Path 5151" d="M610.134,74.987h-.667l-1.1,0h-.608q.037-.262.073-.59.072-.654.075-1.9l0-1.258a3.11,3.11,0,0,0-.069-.8.692.692,0,0,0-.738-.526.96.96,0,0,0-.787.392,2.014,2.014,0,0,0-.265,1.205l0,1a9.4,9.4,0,0,0,.233,2.477h-.667l-1.1,0h-.608q.036-.288.073-.59.061-.563.075-1.9L604.079,71a6.721,6.721,0,0,0-.08-1.363.475.475,0,0,0-.524-.407h-.1l.251-.655.6-.025,1.108-.024.691-.038-.038,1.088.489-.445a2.417,2.417,0,0,1,1.657-.691,1.687,1.687,0,0,1,1.393.593,2.517,2.517,0,0,1,.39,1.613L609.9,72.51A8.993,8.993,0,0,0,610.134,74.987Z" transform="translate(-500.984 -63.845)" fill="#0a6e40"/>
          <path id="Path_5152" data-name="Path 5152" d="M633.372,68.439l-.215.419-.191.459-.524-.027h-.119a.971.971,0,0,1-.131.013h-.119a1.788,1.788,0,0,1,.189.839,1.946,1.946,0,0,1-.736,1.63,3.345,3.345,0,0,1-2.092.566,5.046,5.046,0,0,1-.81-.067.7.7,0,0,0-.239.458q0,.538,1.44.54h.238l.691-.011q2.12,0,2.117,1.865a2.478,2.478,0,0,1-.981,2.042,4.067,4.067,0,0,1-2.6.768,3.569,3.569,0,0,1-2.006-.514,1.544,1.544,0,0,1-.766-1.337,1.383,1.383,0,0,1,.968-1.254l.286-.131-.262-.105a1,1,0,0,1-.736-.944,1.354,1.354,0,0,1,.526-.967l.668-.614a1.93,1.93,0,0,1-1.021-1.769,1.908,1.908,0,0,1,.724-1.6,3.23,3.23,0,0,1,2.032-.558,5.251,5.251,0,0,1,.75.051,2.671,2.671,0,0,1,.714.188l1.12-.024.56-.025.417-.038Zm-2.219,7.426a.643.643,0,0,0-.38-.63,1.584,1.584,0,0,0-.4-.132,3.773,3.773,0,0,0-1.012-.068l-.31.026q-.238.012-.464.038a.588.588,0,0,0-.3.1.812.812,0,0,0-.419.694.85.85,0,0,0,.433.741,2.067,2.067,0,0,0,1.137.284,2.3,2.3,0,0,0,1.233-.3A.882.882,0,0,0,631.153,75.865Zm-.834-5.466q0-1.454-.724-1.456l-.023.013a.59.59,0,0,0-.525.268,1.745,1.745,0,0,0-.157.858q0,1.442.724,1.443Q630.316,71.525,630.319,70.4Z" transform="translate(-516.942 -63.638)" fill="#0a6e40"/>
        </g>
      </g>
      <g id="Group_10507" data-name="Group 10507" transform="translate(0.369 14.199)">
        <g id="Group_10506" data-name="Group 10506">
          <path id="Path_5153" data-name="Path 5153" d="M275.561,116.139l-1.1,0,0-1.836,1.1.174,0-1.7a13.693,13.693,0,0,0-.04-1.493q-.141-.823-.785-.825h-.114l.288-.977h.471l1.472,0,1.687,0,1.058,0q.872,0,1.5.02a4.584,4.584,0,0,1,2.815.829,5.379,5.379,0,0,1,1.635,4.4,8.24,8.24,0,0,1-.794,3.686,5.212,5.212,0,0,1-2.378,2.465,6.811,6.811,0,0,1-3.032.577.963.963,0,0,1-.214-.018l-3.216-.041-.572.051a13.831,13.831,0,0,0,.174-2.013l.033-1.256Zm4.9.181-2.058-.176,0,1.424q0,.189.013.824a2.013,2.013,0,0,0,.312,1.184,1.319,1.319,0,0,0,1.014.311q2.645.006,2.654-4.369a6.605,6.605,0,0,0-.625-3.277,2.662,2.662,0,0,0-2.493-1.274,4.043,4.043,0,0,0-.818.084l-.046,1.492,0,1.938,2.059,0Z" transform="translate(-274.461 -106.347)" fill="#0a6e40"/>
          <path id="Path_5154" data-name="Path 5154" d="M323.748,108.665a6.848,6.848,0,0,1-1.668,4.851,5.436,5.436,0,0,1-4.192,1.724,4.983,4.983,0,0,1-3.928-1.638,6.637,6.637,0,0,1-1.492-4.617,6.834,6.834,0,0,1,1.639-4.765,5.313,5.313,0,0,1,4.121-1.793,4.879,4.879,0,0,1,4.883,3.029A7.851,7.851,0,0,1,323.748,108.665Zm-3.159.3a9.936,9.936,0,0,0-.437-3.226q-.611-1.8-2.012-1.805-2.5-.005-2.511,4.764a9.77,9.77,0,0,0,.451,3.26q.626,1.768,2.055,1.771Q320.579,113.736,320.589,108.967Zm-.3-7.137-.272.223-.229.2-.77-.791-.785-.756-.774.753-.773.788-.228-.211-.271-.228.315-.526.431-.823.244-.525.515-.035.972,0,.629-.033.256.635.427.807Z" transform="translate(-300.675 -99.72)" fill="#0a6e40"/>
          <path id="Path_5155" data-name="Path 5155" d="M361.36,121.663l-1.227,0-1.2,0q-.654-1.219-.953-1.7l-4.125-6.51,0,.892.064,3.98a18.208,18.208,0,0,0,.2,2.419,4.748,4.748,0,0,0,.2.824l-.8,0-.758,0-.744,0c.038-.228.073-.486.1-.772q.073-.771.091-2.487l.011-5.4a10.846,10.846,0,0,0-.107-1.785.625.625,0,0,0-.706-.533h-.111l.3-.994.814.053,1.973-.013.887-.032q.654,1.39.954,1.889l3.277,5.427-.012-1.224-.066-2.827a19.012,19.012,0,0,0-.181-2.431,5.138,5.138,0,0,0-.212-.827l.8.053.772,0,.744-.05a7.475,7.475,0,0,0-.1.757q-.03.362-.06,1.255l-.031,1.239-.025,5.436q0,.362.026,1.05A22,22,0,0,0,361.36,121.663Z" transform="translate(-327.449 -106.417)" fill="#0a6e40"/>
          <path id="Path_5156" data-name="Path 5156" d="M397.848,115.253q-.1,1.42-.1,1.847l0,1.06.025,1.9.027.445q-.458.136-1.187.34a12.276,12.276,0,0,1-2.9.37,5.774,5.774,0,0,1-3.572-1.053,5.079,5.079,0,0,1-1.6-2.122,7.538,7.538,0,0,1-.558-2.977,6.573,6.573,0,0,1,1.682-4.722,5.923,5.923,0,0,1,4.506-1.749,7.62,7.62,0,0,1,1.8.227,10.37,10.37,0,0,1,1.714.6l-.216.892-.318,1.784-.357.033a5.281,5.281,0,0,0-.969-1.323,2.642,2.642,0,0,0-1.842-.725,2.316,2.316,0,0,0-2.076,1.205,6.436,6.436,0,0,0-.75,3.369,8.322,8.322,0,0,0,.671,3.689,2.06,2.06,0,0,0,1.848,1.359,1.438,1.438,0,0,0,.973-.307,1.416,1.416,0,0,0,.317-1.08,3.25,3.25,0,0,0-.014-.343l-.027-.669a1.637,1.637,0,0,0-.191-.85.728.728,0,0,0-.607-.216H394l.288-.995.844,0Z" transform="translate(-352.747 -105.732)" fill="#0a6e40"/>
          <path id="Path_5157" data-name="Path 5157" d="M443.835,113a3.766,3.766,0,0,1-1.207,3.051,4.364,4.364,0,0,1-2.9.835h-1.072l.13-.694.1-.781a3.981,3.981,0,0,0,.558.053,1.228,1.228,0,0,0,1.073-.564,2.739,2.739,0,0,0,.389-1.56q0-2.144-1.754-2.148a5.443,5.443,0,0,0-.729.067l-.046,1.389-.026,5.884a13.386,13.386,0,0,0,.279,3.243l-.8,0-1.787,0-.729,0q.044-.342.087-.772.073-.772.091-2.487l.04-5.4a10.553,10.553,0,0,0-.111-1.785.641.641,0,0,0-.728-.533h-.114l.3-.977.815,0,3.5.007,1.73,0a2.687,2.687,0,0,1,2.2.811A3.629,3.629,0,0,1,443.835,113Z" transform="translate(-384.89 -106.571)" fill="#0a6e40"/>
          <path id="Path_5158" data-name="Path 5158" d="M476.824,121.849l-.8,0-1.787,0h-.729q.044-.343.087-.772.088-.858.091-2.487l.005-2.384h-.729l-.786.016-.886,0-.629.016-.615,0,0,2.367a13.361,13.361,0,0,0,.279,3.243l-.8,0-1.787,0H467q.043-.343.087-.772.074-.772.091-2.487l.04-5.4a10.509,10.509,0,0,0-.11-1.785.641.641,0,0,0-.728-.533h-.115l.3-.977.815,0,1.973,0,.829,0q-.118,1.75-.12,2.831l0,1.853,1.272.037.886,0,.729-.033.758-.016,0-1.429a13.128,13.128,0,0,0-.279-3.237l.8,0,1.63,0,.829,0-.059.961q-.059,1.132-.061,1.869l-.026,5.884A13.391,13.391,0,0,0,476.824,121.849Z" transform="translate(-406.747 -106.616)" fill="#0a6e40"/>
          <path id="Path_5159" data-name="Path 5159" d="M515.321,106.406a1.7,1.7,0,0,1-.538,1.122,7.12,7.12,0,0,1-.752.642q0,.292-.016.892t-.016.892l-.011,5.026a3.786,3.786,0,0,1-1.4,3.188,4.929,4.929,0,0,1-3.051.886,8.052,8.052,0,0,1-1.254-.106,3.229,3.229,0,0,1-2.959-2.476,9.958,9.958,0,0,1-.195-2.248l0-1.029.006-3.225a8.969,8.969,0,0,0-.111-1.785.641.641,0,0,0-.728-.533h-.114l.3-.977.815,0,1.973,0,.829,0q-.146,1.973-.149,2.831l-.007,3.6a14.947,14.947,0,0,0,.068,2.007,2.645,2.645,0,0,0,.731,1.717,1.647,1.647,0,0,0,1.136.414q1.713,0,2.034-1.921a17.744,17.744,0,0,0,.12-2.233l.007-3.161a14.454,14.454,0,0,0-.21-2.423,4.763,4.763,0,0,0-.2-.825l.8,0,1.416-.014a1.636,1.636,0,0,0-.327-1.023l.029-.168c.123-.045.243-.083.357-.117l.057-.017a2.638,2.638,0,0,1,.744-.149.6.6,0,0,1,.478.421A1.667,1.667,0,0,1,515.321,106.406Z" transform="translate(-432.896 -103.396)" fill="#0a6e40"/>
          <path id="Path_5160" data-name="Path 5160" d="M552.066,106.483a1.673,1.673,0,0,1-.56,1.148q-.115.12-.444.411a4.926,4.926,0,0,1-.515.359,7.279,7.279,0,0,1,1.135,4.137,6.849,6.849,0,0,1-1.668,4.851,5.436,5.436,0,0,1-4.192,1.724,4.982,4.982,0,0,1-3.928-1.638,6.636,6.636,0,0,1-1.492-4.617,6.835,6.835,0,0,1,1.639-4.765,5.314,5.314,0,0,1,4.12-1.793,5.138,5.138,0,0,1,3.914,1.5,1.548,1.548,0,0,0,.517-.959,1.7,1.7,0,0,0-.326-1.1l.029-.172c.123-.045.243-.085.357-.119l.057-.017a2.6,2.6,0,0,1,.744-.153.6.6,0,0,1,.478.421A1.669,1.669,0,0,1,552.066,106.483Zm-3.544,6.357a9.942,9.942,0,0,0-.437-3.226q-.611-1.8-2.012-1.805-2.5-.005-2.511,4.764a9.771,9.771,0,0,0,.451,3.26q.626,1.769,2.055,1.771Q548.512,117.609,548.522,112.84Z" transform="translate(-457.877 -103.449)" fill="#0a6e40"/>
          <path id="Path_5161" data-name="Path 5161" d="M589.293,122.128l-1.227,0-1.2,0q-.655-1.219-.953-1.7l-4.125-6.51,0,.892.063,3.98a18.221,18.221,0,0,0,.2,2.419,4.75,4.75,0,0,0,.2.824l-.8,0-.758,0-.743,0q.057-.343.1-.772.073-.772.09-2.487l.011-5.4a10.848,10.848,0,0,0-.107-1.785.625.625,0,0,0-.706-.533h-.111l.3-.994.814.053,1.972-.013.887-.032q.654,1.39.954,1.889l3.277,5.427-.012-1.224-.066-2.827a18.986,18.986,0,0,0-.181-2.431,5.091,5.091,0,0,0-.212-.828l.8.053.772,0,.744-.05a7.451,7.451,0,0,0-.1.757q-.03.362-.06,1.256l-.031,1.239-.025,5.436q0,.362.026,1.05A21.941,21.941,0,0,0,589.293,122.128Z" transform="translate(-484.651 -106.738)" fill="#0a6e40"/>
          <path id="Path_5162" data-name="Path 5162" d="M625.782,115.719q-.1,1.42-.1,1.847l0,1.06.025,1.9.027.445q-.458.135-1.187.339a12.272,12.272,0,0,1-2.9.37,5.772,5.772,0,0,1-3.572-1.053,5.078,5.078,0,0,1-1.6-2.122,7.542,7.542,0,0,1-.559-2.977,6.574,6.574,0,0,1,1.682-4.722,5.921,5.921,0,0,1,4.506-1.749,7.6,7.6,0,0,1,1.8.227,10.443,10.443,0,0,1,1.714.6l-.216.892-.318,1.784-.357.033a5.292,5.292,0,0,0-.969-1.323,2.642,2.642,0,0,0-1.842-.724,2.315,2.315,0,0,0-2.075,1.205,6.434,6.434,0,0,0-.75,3.369,8.329,8.329,0,0,0,.671,3.69,2.06,2.06,0,0,0,1.848,1.359,1.438,1.438,0,0,0,.973-.307,1.416,1.416,0,0,0,.317-1.08,3.274,3.274,0,0,0-.014-.343l-.027-.669a1.635,1.635,0,0,0-.191-.85.727.727,0,0,0-.607-.216h-.114l.288-.995.844,0Z" transform="translate(-509.949 -106.053)" fill="#0a6e40"/>
          <path id="Path_5163" data-name="Path 5163" d="M670.251,110.545q-.287.411-.359.532a13.051,13.051,0,0,0-1.219,2.265l-1.236,2.952-.575,1.459-.018,1.443a12.523,12.523,0,0,0,.28,3.041l-.8,0-1.772,0-.744,0q.044-.309.1-.772.087-.874.09-2.487l0-1.269-.583-1.356-1.721-3.983a3.053,3.053,0,0,0-.541-.962.718.718,0,0,0-.515-.156h-.115l.288-.977.815,0,1.958,0,.786,0a9.938,9.938,0,0,0,.539,2.214l1.18,3.21,1.035-2.8a6.443,6.443,0,0,0,.433-2.219c0-.138,0-.27-.013-.4l.815,0,1.13,0,.729,0Z" transform="translate(-540.726 -106.889)" fill="#0a6e40"/>
          <path id="Path_5164" data-name="Path 5164" d="M713.412,113.549a3.767,3.767,0,0,1-1.207,3.051,4.366,4.366,0,0,1-2.9.835H708.23l.13-.694.1-.781a3.871,3.871,0,0,0,.558.053,1.226,1.226,0,0,0,1.073-.564,2.742,2.742,0,0,0,.389-1.56q0-2.144-1.754-2.148a5.5,5.5,0,0,0-.729.067l-.046,1.39-.026,5.884a13.383,13.383,0,0,0,.279,3.243l-.8,0-1.787,0-.729,0q.043-.343.087-.772.073-.771.091-2.487l.039-5.4a10.542,10.542,0,0,0-.11-1.785.641.641,0,0,0-.728-.533h-.115l.3-.977.815,0,3.5.007,1.73,0a2.687,2.687,0,0,1,2.2.811A3.633,3.633,0,0,1,713.412,113.549Z" transform="translate(-570.813 -106.951)" fill="#0a6e40"/>
          <path id="Path_5165" data-name="Path 5165" d="M746.4,122.4l-.8,0-1.787,0-.729,0q.043-.343.087-.772.088-.857.091-2.487l.005-2.384-.729,0-.786.016-.886,0-.629.016h-.615l0,2.367a13.352,13.352,0,0,0,.28,3.243l-.8,0-1.787,0-.729,0q.043-.343.087-.772.074-.772.091-2.487l.039-5.4a10.509,10.509,0,0,0-.11-1.784.641.641,0,0,0-.728-.533h-.115l.3-.977.815,0,1.973,0,.829,0q-.118,1.749-.12,2.83l0,1.853,1.272.037.886,0,.729-.033.758-.016,0-1.429a13.13,13.13,0,0,0-.279-3.238l.8,0,1.63,0,.829,0-.059.961q-.059,1.132-.061,1.87l-.026,5.884A13.386,13.386,0,0,0,746.4,122.4Z" transform="translate(-592.671 -106.995)" fill="#0a6e40"/>
          <path id="Path_5166" data-name="Path 5166" d="M782.284,114.807l-.786,0-1.844,0-1.058,0a10.337,10.337,0,0,0-.31-2.356l-.312-1.265-1.072,0-1.258,0-1.086,0-.332,1.3a5.868,5.868,0,0,0-.189,1.454,3.373,3.373,0,0,0,.113.866h-.486l-1.387,0-.743,0-.057-.188.043-.1.273-.583q.057-.119.374-.994.129-.308.4-1.063l2.287-6.908a19.992,19.992,0,0,0,.591-2.16l.758-.033,1.645-.168.858-.153a16.855,16.855,0,0,0,.382,1.767l2.115,7.569A20.489,20.489,0,0,0,782.284,114.807Zm-4.649-5.139-1.205-5.011L775,109.663l.829,0,.815,0Zm2.007-10.082-.773.633-1.876,1.695-.242-.241-.286-.223.33-.549.459-.856.244-.549.557-.033,1.144-.032.329-.051Z" transform="translate(-617.245 -99.38)" fill="#0a6e40"/>
          <path id="Path_5167" data-name="Path 5167" d="M815.771,113.758a3.767,3.767,0,0,1-1.207,3.051,4.365,4.365,0,0,1-2.9.835h-1.072l.13-.694.1-.781a3.987,3.987,0,0,0,.558.053,1.227,1.227,0,0,0,1.073-.564,2.74,2.74,0,0,0,.389-1.56q0-2.144-1.754-2.148a5.487,5.487,0,0,0-.729.067l-.046,1.39-.026,5.884a13.394,13.394,0,0,0,.279,3.243l-.8,0-1.787,0-.729,0q.043-.343.087-.772.073-.772.091-2.487l.04-5.4a10.529,10.529,0,0,0-.111-1.784.641.641,0,0,0-.728-.533h-.115l.3-.977.815,0,3.5.007,1.73,0a2.689,2.689,0,0,1,2.2.811A3.633,3.633,0,0,1,815.771,113.758Z" transform="translate(-641.408 -107.094)" fill="#0a6e40"/>
        </g>
      </g>
    </g>
  </g>
</svg>
