<svg xmlns="http://www.w3.org/2000/svg" width="291" height="83.162" viewBox="0 0 291 83.162">
  <g id="logo_footer" transform="translate(-6.39 -9.755)">
    <g id="XMLID_489_" transform="translate(6.39 9.755)">
      <g id="XMLID_1124_" transform="translate(34.149 40.58)">
        <g id="Group_10498" data-name="Group 10498" transform="translate(0)">
          <path id="XMLID_42_" d="M112.35,125.494a5.213,5.213,0,0,1,1.487,5.949,5.121,5.121,0,0,1-1.644,2.189v4.637a1.833,1.833,0,0,1-.647,3.372,1.7,1.7,0,0,1-.3.028,2.02,2.02,0,0,1-.333-.028,1.837,1.837,0,0,1-.647-3.362v-3.455c-2.956,1.469-6.512,2.217-6.475,5.413a5.194,5.194,0,0,0,1.46,3.658,6.179,6.179,0,0,0,5.663,1.589l.148-.028c.166-.037.323-.074.49-.12a10.374,10.374,0,0,0,.8-19.842Z" transform="translate(-103.786 -125.494)" fill="#048449"/>
        </g>
      </g>
      <g id="XMLID_1118_" transform="translate(39.747 7.418)">
        <g id="Group_10499" data-name="Group 10499">
          <path id="XMLID_17_" d="M123.439,32.755V49.392a1.843,1.843,0,0,1-1.843,1.843h0a1.843,1.843,0,0,1-1.843-1.843V32.755a1.843,1.843,0,0,1,1.843-1.843h0A1.843,1.843,0,0,1,123.439,32.755Z" transform="translate(-119.753 -30.912)" fill="#048449"/>
        </g>
      </g>
      <g id="XMLID_1095_" transform="translate(8.597 44.673)">
        <g id="Group_10500" data-name="Group 10500">
          <g id="XMLID_69_" transform="translate(34.737)">
            <path id="XMLID_70_" d="M130.519,168.237a15.874,15.874,0,0,1,2.009-12.714c4.109-6.075,10.969-7.234,13.393-8.471,2.48-1.266,3.867-2.4,3.926-2.676.706.626,1.9,2.215.179,4.466a10.036,10.036,0,0,1-5.475,3.7c-1.882.563-3.464,1.778-3.169,2.365s4.495.562,7.554-2.86a35.489,35.489,0,0,0,6.178-8.776c1.072-2.623,3.724-6.122,6.168-6.108.079,2.394-1.76,9.36-3.83,12.661-1.414,2.254-5.132,8-10.421,11.345A28.562,28.562,0,0,1,135.8,165.56C132.872,166.022,130.822,167.522,130.519,168.237Z" transform="translate(-129.982 -137.167)" fill="#f2a82f"/>
          </g>
          <g id="XMLID_67_">
            <path id="XMLID_68_" d="M61.674,168.237a15.874,15.874,0,0,0-2.009-12.714c-4.109-6.075-10.969-7.234-13.393-8.471-2.48-1.266-3.867-2.4-3.926-2.676-.706.626-1.9,2.215-.179,4.466a10.036,10.036,0,0,0,5.475,3.7c1.882.563,3.464,1.778,3.169,2.365s-4.495.562-7.554-2.86a35.489,35.489,0,0,1-6.178-8.776c-1.072-2.623-3.724-6.122-6.168-6.108-.079,2.394,1.76,9.36,3.83,12.661,1.414,2.254,5.132,8,10.421,11.345a28.562,28.562,0,0,0,11.229,4.388C59.321,166.022,61.371,167.522,61.674,168.237Z" transform="translate(-30.91 -137.167)" fill="#f2a82f"/>
          </g>
        </g>
      </g>
      <g id="XMLID_871_" transform="translate(8.535 8.873)">
        <g id="Group_10501" data-name="Group 10501">
          <g id="XMLID_248_" transform="translate(57.217 16.999)">
            <circle id="XMLID_249_" cx="3.06" cy="3.06" r="3.06" fill="#048449"/>
          </g>
          <g id="XMLID_246_" transform="translate(58.757 25.515)">
            <circle id="XMLID_247_" cx="3.671" cy="3.671" r="3.671" fill="#048449"/>
          </g>
          <g id="XMLID_244_" transform="translate(54.341 10.62)">
            <circle id="XMLID_245_" cx="2.309" cy="2.309" r="2.309" fill="#048449"/>
          </g>
          <g id="XMLID_242_" transform="translate(49.884 5.605)">
            <circle id="XMLID_243_" cx="1.876" cy="1.876" r="1.876" fill="#048449"/>
          </g>
          <g id="XMLID_240_" transform="translate(43.792 2.129)">
            <circle id="XMLID_241_" cx="1.876" cy="1.876" r="1.876" fill="#048449"/>
          </g>
          <g id="XMLID_237_" transform="translate(38.424)">
            <circle id="XMLID_239_" cx="1.186" cy="1.186" r="1.186" fill="#048449"/>
          </g>
          <g id="XMLID_235_" transform="translate(2.763 16.999)">
            <circle id="XMLID_236_" cx="3.06" cy="3.06" r="3.06" fill="#048449"/>
          </g>
          <g id="XMLID_233_" transform="translate(0 25.515)">
            <circle id="XMLID_234_" cx="3.671" cy="3.671" r="3.671" fill="#048449"/>
          </g>
          <g id="XMLID_231_" transform="translate(7.14 10.62)">
            <circle id="XMLID_232_" cx="2.309" cy="2.309" r="2.309" fill="#048449"/>
          </g>
          <g id="XMLID_229_" transform="translate(12.462 5.605)">
            <circle id="XMLID_230_" cx="1.876" cy="1.876" r="1.876" fill="#048449"/>
          </g>
          <g id="XMLID_227_" transform="translate(18.554 2.129)">
            <circle id="XMLID_228_" cx="1.876" cy="1.876" r="1.876" fill="#048449"/>
          </g>
          <g id="XMLID_225_" transform="translate(25.304)">
            <circle id="XMLID_226_" cx="1.186" cy="1.186" r="1.186" fill="#048449"/>
          </g>
        </g>
      </g>
      <g id="XMLID_811_" transform="translate(32.051 27.741)">
        <g id="Group_10502" data-name="Group 10502">
          <g id="XMLID_117_" transform="translate(9.22)">
            <path id="XMLID_118_" d="M124.738,88.873v5.108a1.723,1.723,0,0,0-.314-.037,1.827,1.827,0,0,0-.323.037V88.873Z" transform="translate(-124.1 -88.873)" fill="#048449"/>
          </g>
          <g id="XMLID_112_" transform="translate(0 1.253)">
            <g id="XMLID_115_">
              <path id="XMLID_116_" d="M113.993,98.118v.065c0,2.725-2.374,3.75-4.887,4.831l-.3.129c-.36.157-.721.314-1.072.48-.2.1-.416.2-.619.314a6.232,6.232,0,0,0-3.2,3.1,4.4,4.4,0,0,0,.859,5.2l1.081.979-1.386-.471c-5.238-1.838-7.787-7-6.217-12.581a10.674,10.674,0,0,1,8.074-7.547l.222-.046v.6l-.139.037a10.07,10.07,0,0,0-7.575,7.122c-1.367,4.831.508,9.3,4.683,11.353a5.268,5.268,0,0,1-.157-4.868c.988-2.4,3.381-3.446,5.5-4.36,2.355-1.016,4.554-1.958,4.526-4.332a4.884,4.884,0,0,0-1.376-3.446,5.5,5.5,0,0,0-3.723-1.617l-.175-.009v-.61l.194.009a6.114,6.114,0,0,1,4.138,1.8A5.5,5.5,0,0,1,113.993,98.118Z" transform="translate(-97.802 -92.446)" fill="#048449"/>
            </g>
            <path id="XMLID_114_" d="M124.738,123.559v16.826a1.7,1.7,0,0,1-.3.028,2.024,2.024,0,0,1-.333-.028v-16.5A6.887,6.887,0,0,1,124.738,123.559Z" transform="translate(-114.88 -112.65)" fill="#048449"/>
            <path id="XMLID_113_" d="M124.738,171.547v19.016H124.1V171.547a1.987,1.987,0,0,0,.333.028A1.641,1.641,0,0,0,124.738,171.547Z" transform="translate(-114.88 -143.813)" fill="#048449"/>
          </g>
          <g id="XMLID_110_" transform="translate(7.715 5.071)">
            <path id="XMLID_111_" d="M123.473,105.175a1.824,1.824,0,0,1-1.524,1.792,1.715,1.715,0,0,1-.314.037,1.834,1.834,0,0,1,0-3.667,1.723,1.723,0,0,1,.314.037A1.827,1.827,0,0,1,123.473,105.175Z" transform="translate(-119.806 -103.337)" fill="#048449"/>
          </g>
        </g>
      </g>
      <g id="XMLID_490_">
        <g id="Group_10503" data-name="Group 10503">
          <g id="XMLID_303_">
            <g id="XMLID_336_" transform="translate(75.653 41.582)">
              <path id="XMLID_337_" d="M229.649,129.448l-3.029-.079a38.841,38.841,0,0,1-.456,5.066l-1-.158a41.385,41.385,0,0,0,.47-5.925h-1.01a37.31,37.31,0,0,1-.627,6.717l2.979.553a40.645,40.645,0,0,0,.622-5.182l1.009.053a40.954,40.954,0,0,1-2.306,11.516l-.951-.34a40.613,40.613,0,0,0,1.426-5.021l-2.963-.632a35.689,35.689,0,0,1-1.656,5.536l.942.365a35.2,35.2,0,0,0,1.48-4.724l.982.237a36.254,36.254,0,0,1-1.52,4.852l2.825,1.1A41.11,41.11,0,0,0,229.649,129.448Z" transform="translate(-222.158 -128.351)" fill="#048449"/>
            </g>
            <g id="XMLID_334_" transform="translate(68.583 54.781)">
              <path id="XMLID_335_" d="M213.369,168.842l-2.795-1.17a38.827,38.827,0,0,1-2.277,4.548l-.872-.509a35.069,35.069,0,0,0,2.58-5.35l-.942-.365a36.451,36.451,0,0,1-3,6.033l2.574,1.6a38.65,38.65,0,0,0,2.449-4.609l.921.414a40,40,0,0,1-6.319,9.9l-.764-.661a38.281,38.281,0,0,0,3.15-4.161l-2.531-1.665A38.552,38.552,0,0,1,202,177.412l.746.68a38.937,38.937,0,0,0,3.085-3.876l.829.577a39.878,39.878,0,0,1-3.168,3.979l2.238,2.042A42.233,42.233,0,0,0,213.369,168.842Z" transform="translate(-201.995 -165.995)" fill="#048449"/>
            </g>
            <g id="XMLID_332_" transform="translate(57.865 66.197)">
              <path id="XMLID_333_" d="M185.119,202.753l-2.184-2.1a36.527,36.527,0,0,1-3.757,3.428l-.63-.789a38.992,38.992,0,0,0,4.344-4.056l-.746-.68a36.38,36.38,0,0,1-4.986,4.544l1.827,2.416a41.909,41.909,0,0,0,3.947-3.415l.709.719a40.973,40.973,0,0,1-9.459,6.957l-.475-.891a38.961,38.961,0,0,0,4.432-2.755l-1.763-2.464a34.714,34.714,0,0,1-4.951,2.984l.45.9a39.023,39.023,0,0,0,4.28-2.491l.566.836a40.041,40.041,0,0,1-4.4,2.559l1.353,2.711A41.4,41.4,0,0,0,185.119,202.753Z" transform="translate(-171.427 -198.555)" fill="#048449"/>
            </g>
            <g id="XMLID_330_" transform="translate(44.955 74.292)">
              <path id="XMLID_331_" d="M148.781,226.637l-1.28-2.746a39.908,39.908,0,0,1-4.739,1.845l-.3-.964a38.845,38.845,0,0,0,5.506-2.227l-.45-.9a36.354,36.354,0,0,1-6.284,2.433l.828,2.915a38.418,38.418,0,0,0,4.916-1.752l.4.926a40.307,40.307,0,0,1-11.34,3.055l-.119-1a40.461,40.461,0,0,0,5.134-.945l-.75-2.935a38.6,38.6,0,0,1-5.7.975l.092,1.005a36.49,36.49,0,0,0,4.89-.779l.224.985a37.5,37.5,0,0,1-5.022.8l.276,3.017A41.274,41.274,0,0,0,148.781,226.637Z" transform="translate(-134.605 -221.641)" fill="#048449"/>
            </g>
            <g id="XMLID_328_" transform="translate(30.2 76.725)">
              <path id="XMLID_329_" d="M106.644,234.928l-.2-3.023a37.347,37.347,0,0,1-5.087,0l.066-1.008a37.79,37.79,0,0,0,5.944-.075l-.092-1.005a35.7,35.7,0,0,1-6.749,0l-.276,3.017a40.471,40.471,0,0,0,5.217.135l.039,1.009a41.067,41.067,0,0,1-11.678-1.222l.25-.979a40.374,40.374,0,0,0,5.133.945l.355-3.009A34.456,34.456,0,0,1,93.9,228.58l-.276.971a36.886,36.886,0,0,0,4.841,1.039l-.145,1a37.894,37.894,0,0,1-4.972-1.067l-.827,2.914A41.446,41.446,0,0,0,106.644,234.928Z" transform="translate(-92.524 -228.58)" fill="#048449"/>
            </g>
            <g id="XMLID_326_" transform="translate(16.517 70.741)">
              <path id="XMLID_327_" d="M66.127,222.052l.905-2.891a39.926,39.926,0,0,1-4.739-1.845l.427-.915a35.594,35.594,0,0,0,5.567,2.07l.276-.971a36.364,36.364,0,0,1-6.284-2.433l-1.352,2.711a37.6,37.6,0,0,0,4.815,2.013l-.327.956a39.921,39.921,0,0,1-10.438-5.379l.588-.821A38.971,38.971,0,0,0,60,217.3l1.424-2.674a38.526,38.526,0,0,1-4.874-3.111l-.609.805a37.557,37.557,0,0,0,4.142,2.716l-.5.878a38.607,38.607,0,0,1-4.253-2.789L53.5,215.543A42.038,42.038,0,0,0,66.127,222.052Z" transform="translate(-53.5 -211.515)" fill="#048449"/>
            </g>
            <g id="XMLID_324_" transform="translate(6.223 60.814)">
              <path id="XMLID_325_" d="M33.57,196.479l1.89-2.368a36.587,36.587,0,0,1-3.757-3.428l.728-.7a37.616,37.616,0,0,0,4.439,3.951l.609-.805a36.339,36.339,0,0,1-4.986-4.544l-2.238,2.042a42.012,42.012,0,0,0,3.767,3.613l-.651.772a40.826,40.826,0,0,1-7.8-8.778l.844-.555a38.277,38.277,0,0,0,3.15,4.161l2.291-1.982a35.392,35.392,0,0,1-3.43-4.655l-.858.532a39.759,39.759,0,0,0,2.88,4.031l-.781.641a40.786,40.786,0,0,1-2.957-4.139l-2.574,1.6A41.665,41.665,0,0,0,33.57,196.479Z" transform="translate(-24.138 -183.203)" fill="#048449"/>
            </g>
            <g id="XMLID_322_" transform="translate(0.703 48.299)">
              <path id="XMLID_323_" d="M13.351,161.742l2.616-1.529a38.744,38.744,0,0,1-2.277-4.548l.931-.39a39.531,39.531,0,0,0,2.725,5.279l.858-.532a36.414,36.414,0,0,1-3.005-6.033l-2.825,1.095a39.5,39.5,0,0,0,2.2,4.734l-.885.486a40.633,40.633,0,0,1-4.1-11.008l.988-.211a40.685,40.685,0,0,0,1.425,5.021l2.853-1.02a35.749,35.749,0,0,1-1.5-5.58l-.993.184a35.307,35.307,0,0,0,1.224,4.8l-.96.314a36.294,36.294,0,0,1-1.257-4.927l-2.979.553A41.016,41.016,0,0,0,13.351,161.742Z" transform="translate(-8.395 -147.507)" fill="#048449"/>
            </g>
            <g id="XMLID_320_" transform="translate(0 33.943)">
              <path id="XMLID_321_" d="M6.9,120.76l2.992-.474a38.783,38.783,0,0,1-.456-5.066l1.009-.026a35.583,35.583,0,0,0,.618,5.909l.993-.184a37.3,37.3,0,0,1-.627-6.717H8.4a41.465,41.465,0,0,0,.352,5.207l-1,.132A41.13,41.13,0,0,1,7.9,107.8l1,.158a39.842,39.842,0,0,0-.468,5.2l3.029.079a34.565,34.565,0,0,1,.6-5.751l-.993-.184a38.656,38.656,0,0,0-.591,4.918l-1.009-.053a39.568,39.568,0,0,1,.607-5.05l-2.979-.553A42.021,42.021,0,0,0,6.9,120.76Z" transform="translate(-6.39 -106.563)" fill="#048449"/>
            </g>
            <g id="XMLID_318_" transform="translate(0.913 19.688)">
              <path id="XMLID_319_" d="M8.995,79.083l2.963.632a39.6,39.6,0,0,1,1.389-4.892l.951.34A36.812,36.812,0,0,0,12.756,80.9l.993.184A36.413,36.413,0,0,1,15.59,74.6l-2.825-1.095a37.26,37.26,0,0,0-1.56,4.981l-.981-.237a40.1,40.1,0,0,1,4.389-10.892l.872.51a39.749,39.749,0,0,0-2.336,4.667l2.794,1.17a38.512,38.512,0,0,1,2.652-5.136l-.858-.532a36.588,36.588,0,0,0-2.323,4.373l-.921-.414A37.6,37.6,0,0,1,16.879,67.5l-2.574-1.6A41.515,41.515,0,0,0,8.995,79.083Z" transform="translate(-8.995 -65.906)" fill="#048449"/>
            </g>
            <g id="XMLID_316_" transform="translate(6.815 8.395)">
              <path id="XMLID_317_" d="M25.827,44.067l2.531,1.665a37.241,37.241,0,0,1,3.07-4.055l.764.661a36.421,36.421,0,0,0-3.525,4.784l.858.532a36.725,36.725,0,0,1,4.064-5.383l-2.238-2.042a40.912,40.912,0,0,0-3.25,4.083l-.829-.577A40.625,40.625,0,0,1,35.3,35.167l.63.789a37.573,37.573,0,0,0-3.855,3.517l2.184,2.1a36.607,36.607,0,0,1,4.32-3.846l-.609-.805a39.964,39.964,0,0,0-3.746,3.242l-.709-.719a40.931,40.931,0,0,1,3.846-3.329L35.53,33.7A41.959,41.959,0,0,0,25.827,44.067Z" transform="translate(-25.827 -33.699)" fill="#048449"/>
            </g>
            <g id="XMLID_314_" transform="translate(17.405 1.582)">
              <path id="XMLID_315_" d="M56.032,20.435,57.8,22.9a37.945,37.945,0,0,1,4.319-2.685l.474.891a39.508,39.508,0,0,0-5.008,3.2l.609.805a36.561,36.561,0,0,1,5.732-3.55L62.57,18.846a41.033,41.033,0,0,0-4.511,2.626l-.566-.836a41.026,41.026,0,0,1,10.58-5.1l.3.964a40.954,40.954,0,0,0-4.864,1.893l1.28,2.746a34.61,34.61,0,0,1,5.416-2.014l-.276-.972a36.378,36.378,0,0,0-4.664,1.662l-.4-.926a37.421,37.421,0,0,1,4.79-1.707l-.827-2.914A40.921,40.921,0,0,0,56.032,20.435Z" transform="translate(-56.032 -14.267)" fill="#048449"/>
            </g>
            <g id="XMLID_312_" transform="translate(31.258)">
              <path id="XMLID_313_" d="M95.542,11.041l.75,2.936a39.394,39.394,0,0,1,5-.92l.118,1a35.533,35.533,0,0,0-5.825,1.164l.276.972a36.683,36.683,0,0,1,6.626-1.236l-.276-3.017a38.5,38.5,0,0,0-5.154.821l-.224-.985a40.464,40.464,0,0,1,11.7-.923l-.066,1.008a38.273,38.273,0,0,0-5.218,0l.2,3.023a36.794,36.794,0,0,1,5.786.073l.092-1.005a38.384,38.384,0,0,0-4.954-.128l-.039-1.009a39.462,39.462,0,0,1,5.085.131L109.7,9.93A42.248,42.248,0,0,0,95.542,11.041Z" transform="translate(-95.542 -9.755)" fill="#048449"/>
            </g>
            <g id="XMLID_310_" transform="translate(44.955 0.292)">
              <path id="XMLID_311_" d="M136.156,10.589,135.8,13.6a39.388,39.388,0,0,1,5,.92l-.25.978a39.578,39.578,0,0,0-5.856-1L134.6,15.5a36.7,36.7,0,0,1,6.626,1.236l.828-2.914a38.918,38.918,0,0,0-5.1-1.095l.145-1a40.448,40.448,0,0,1,11.253,3.361l-.427.915a40.9,40.9,0,0,0-4.864-1.893l-.9,2.891a37.911,37.911,0,0,1,5.358,2.167l.45-.9a35.556,35.556,0,0,0-4.568-1.909l.327-.955a36.564,36.564,0,0,1,4.692,1.961l1.352-2.711A41.127,41.127,0,0,0,136.156,10.589Z" transform="translate(-134.605 -10.589)" fill="#048449"/>
            </g>
            <g id="XMLID_308_" transform="translate(57.865 4.855)">
              <path id="XMLID_309_" d="M174.658,23.6l-1.424,2.674a37.942,37.942,0,0,1,4.319,2.685l-.588.821a35.709,35.709,0,0,0-5.089-3.066l-.45.9a36.593,36.593,0,0,1,5.732,3.55l1.827-2.416a39.575,39.575,0,0,0-4.364-2.862l.5-.879a40.341,40.341,0,0,1,9.271,7.2l-.728.7a37.539,37.539,0,0,0-3.855-3.517l-1.89,2.367a37.911,37.911,0,0,1,4.228,3.947l.746-.68a39.97,39.97,0,0,0-3.576-3.429l.651-.773a40.97,40.97,0,0,1,3.671,3.521l2.238-2.042A42.175,42.175,0,0,0,174.658,23.6Z" transform="translate(-171.427 -23.601)" fill="#048449"/>
            </g>
            <g id="XMLID_306_" transform="translate(68.583 14.391)">
              <path id="XMLID_307_" d="M206.448,50.8l-2.291,1.982a37.239,37.239,0,0,1,3.07,4.055l-.844.555a39.562,39.562,0,0,0-3.641-4.7l-.746.68a36.747,36.747,0,0,1,4.064,5.383l2.574-1.6a41.782,41.782,0,0,0-3.034-4.247l.781-.64a41.1,41.1,0,0,1,6.057,10.061l-.932.39a39.744,39.744,0,0,0-2.336-4.667l-2.615,1.528a34.089,34.089,0,0,1,2.51,5.206l.942-.365a37.42,37.42,0,0,0-2.086-4.491l.885-.486a38.431,38.431,0,0,1,2.143,4.612l2.825-1.095A41.158,41.158,0,0,0,206.448,50.8Z" transform="translate(-201.996 -50.799)" fill="#048449"/>
            </g>
            <g id="XMLID_304_" transform="translate(75.653 27.585)">
              <path id="XMLID_305_" d="M227.254,88.431l-2.853,1.02a39.6,39.6,0,0,1,1.389,4.892l-.988.211a36.689,36.689,0,0,0-1.7-5.69l-.942.365A36.421,36.421,0,0,1,224,95.711l2.979-.553a37.3,37.3,0,0,0-1.29-5.057l.96-.315a40.119,40.119,0,0,1,1.992,11.571l-1.01.026a39.794,39.794,0,0,0-.468-5.2l-2.992.474a40.382,40.382,0,0,1,.457,5.767h1.01a39.41,39.41,0,0,0-.335-4.944l1-.132a40.363,40.363,0,0,1,.343,5.075h3.03A42.029,42.029,0,0,0,227.254,88.431Z" transform="translate(-222.158 -88.431)" fill="#048449"/>
            </g>
          </g>
        </g>
      </g>
    </g>
    <g id="XMLID_1_" transform="translate(99.965 34.754)">
      <g id="Group_10505" data-name="Group 10505" transform="translate(0.047)">
        <g id="Group_10504" data-name="Group 10504">
          <path id="Path_5138" data-name="Path 5138" d="M282.59,59.356l-.149.577-.2.9-.082.518-.283.029a1.4,1.4,0,0,0-.658-.608,3.51,3.51,0,0,0-1.265-.21,5.16,5.16,0,0,0-.579.028l-.043,1.214-.023,5.079a10.6,10.6,0,0,0,.263,2.8h-.754l-1.682,0h-.686q.041-.266.1-.666.069-1.081.072-2.147l-.014-6.278H276.5a7.6,7.6,0,0,0-1.347.086,3.037,3.037,0,0,0-.565.161,2.719,2.719,0,0,0-.917.635l-.269-.148.109-.577.136-.755.1-.651q2.032.078,4.321.083Q280.463,59.427,282.59,59.356Z" transform="translate(-273.407 -57.335)" fill="#048449"/>
          <path id="Path_5139" data-name="Path 5139" d="M304.612,67.533l-.136.844-.15,1.006-.082.784-.269.044a1.093,1.093,0,0,0-.9-.639.8.8,0,0,0-.708.413,2.123,2.123,0,0,0-.265,1.139l0,1.007-.014.222q-.015.252-.015.5a7.324,7.324,0,0,0,.279,2.074l-.754,0-1.225,0-.7,0q.055-.311.1-.666.054-.5.085-2.147l.031-1.673a6.782,6.782,0,0,0-.118-1.54.539.539,0,0,0-.578-.46h-.108l.271-.74.673-.028,1.117-.027.781-.043-.044,1.658.513-.754a3.221,3.221,0,0,1,.775-.865,1.455,1.455,0,0,1,.842-.243A1.588,1.588,0,0,1,304.612,67.533Z" transform="translate(-290.077 -62.569)" fill="#048449"/>
          <path id="Path_5140" data-name="Path 5140" d="M323.231,74.594l-.284.74h-.552l-1.211.057-.781.058-.106-1.258-.566.517a2.7,2.7,0,0,1-1.832.8,1.779,1.779,0,0,1-1.52-.687,2.971,2.971,0,0,1-.44-1.829l0-2.111a17.286,17.286,0,0,0-.119-2.111,2.627,2.627,0,0,0-.159-.684l.781.046,1.238-.012.686-.028q-.059.4-.074.681-.089.83-.107,2.147l0,1.555a3.12,3.12,0,0,0,.066.77.772.772,0,0,0,.82.594,1.009,1.009,0,0,0,.849-.43,2.416,2.416,0,0,0,.286-1.383l0-1.131a16.371,16.371,0,0,0-.117-2.113,4.119,4.119,0,0,0-.173-.685l.781.046,1.238-.012.687-.028q-.041.266-.1.681-.082.8-.085,2.147l0,1.673q0,1.065.024,1.229.12.77.645.771h.121Z" transform="translate(-300.849 -63.011)" fill="#048449"/>
          <path id="Path_5141" data-name="Path 5141" d="M345.826,75.3l-.754,0-1.238,0h-.687q.041-.3.082-.666.082-.74.085-2.147l0-1.421a3.515,3.515,0,0,0-.078-.9.782.782,0,0,0-.834-.594,1.084,1.084,0,0,0-.889.442,2.276,2.276,0,0,0-.3,1.362l0,1.126a10.615,10.615,0,0,0,.263,2.8l-.754,0-1.239,0H338.8q.041-.325.082-.666.068-.636.085-2.147l.017-1.673a7.592,7.592,0,0,0-.091-1.54.537.537,0,0,0-.592-.46h-.108l.284-.74.673-.028L340.4,68l.781-.043-.043,1.229.553-.5a2.73,2.73,0,0,1,1.873-.781,1.908,1.908,0,0,1,1.574.67,2.843,2.843,0,0,1,.44,1.822l-.018,2.1A10.177,10.177,0,0,0,345.826,75.3Z" transform="translate(-315.479 -62.896)" fill="#048449"/>
          <path id="Path_5142" data-name="Path 5142" d="M369.078,67.937l-.243.473-.216.518-.592-.031h-.135a1.036,1.036,0,0,1-.148.015h-.135a2.023,2.023,0,0,1,.213.948,2.2,2.2,0,0,1-.831,1.842,3.773,3.773,0,0,1-2.364.639,5.7,5.7,0,0,1-.915-.076.793.793,0,0,0-.27.518q0,.608,1.627.61h.269l.781-.013q2.4.005,2.392,2.107a2.8,2.8,0,0,1-1.108,2.307,4.6,4.6,0,0,1-2.936.868,4.032,4.032,0,0,1-2.267-.581,1.745,1.745,0,0,1-.865-1.51,1.563,1.563,0,0,1,1.094-1.417l.323-.147-.3-.119a1.13,1.13,0,0,1-.832-1.066,1.53,1.53,0,0,1,.594-1.093l.755-.693a2.181,2.181,0,0,1-1.153-2,2.156,2.156,0,0,1,.818-1.8,3.651,3.651,0,0,1,2.3-.631,5.868,5.868,0,0,1,.848.058,3.018,3.018,0,0,1,.807.212l1.265-.027.633-.028.472-.043Zm-2.507,8.39a.727.727,0,0,0-.429-.712,1.823,1.823,0,0,0-.457-.149,4.245,4.245,0,0,0-1.144-.076l-.351.029c-.179.009-.354.024-.525.043a.665.665,0,0,0-.337.118.918.918,0,0,0-.473.784.96.96,0,0,0,.49.837,2.327,2.327,0,0,0,1.285.321,2.589,2.589,0,0,0,1.393-.337A1,1,0,0,0,366.571,76.327Zm-.942-6.176q0-1.643-.818-1.645l-.027.015a.667.667,0,0,0-.593.3,1.971,1.971,0,0,0-.177.969q0,1.629.818,1.63Q365.625,71.424,365.628,70.151Z" transform="translate(-330.505 -62.702)" fill="#048449"/>
          <path id="Path_5143" data-name="Path 5143" d="M397.39,64.542l-.189.607-.163.651a9.675,9.675,0,0,0-1.09-.076h-.538l-.043,1.185-.017,1.717a4.81,4.81,0,0,0,.105,1.2.78.78,0,0,0,.82.639,1.324,1.324,0,0,0,.768-.251l.228.134-.163.533-.19.71a6.878,6.878,0,0,1-1.791.351,1.737,1.737,0,0,1-1.909-1.4,6.314,6.314,0,0,1-.1-1.392l0-1.939a7.915,7.915,0,0,0-.1-1.547.524.524,0,0,0-.571-.438h-.242l.271-.8.74,0v-.252q-.031-.474-.079-.874l.633-.221,1.064-.5.539-.325.2.222a13.919,13.919,0,0,0-.166,1.984l.969.016a3.124,3.124,0,0,0,.888-.116Z" transform="translate(-350.553 -59.231)" fill="#048449"/>
          <path id="Path_5144" data-name="Path 5144" d="M413.727,70.422l-.257.755h-.538l-1.184.064-.714.081L411,70.3l-.58.518a2.305,2.305,0,0,1-1.563.648,1.689,1.689,0,0,1-1.378-.64,2.447,2.447,0,0,1-.515-1.6,1.914,1.914,0,0,1,1.593-2.085q.417-.088,1.36-.249a2.494,2.494,0,0,0,.538-.132.487.487,0,0,0,.257-.473q0-1.036-1.209-1.039a2.248,2.248,0,0,0-1.657.708l-.228-.119.192-1.643a6.642,6.642,0,0,1,2.416-.454q2.078,0,2.547,1.338a4.714,4.714,0,0,1,.132,1.392l0,2.058,0,.918q.026.977.624.979h.209Zm-1.708-7.2-.256.192-.216.178-.725-.682-.739-.654-.728.65-.728.679-.215-.181-.256-.2.3-.45.405-.705.23-.45.484-.029.915,0,.592-.043.241.548.4.7ZM410.771,68.4V67.8a2.805,2.805,0,0,0-1.115.235.97.97,0,0,0-.436.917,1.165,1.165,0,0,0,.194.681.639.639,0,0,0,.558.283.709.709,0,0,0,.619-.339A2.422,2.422,0,0,0,410.771,68.4Z" transform="translate(-360.133 -58.76)" fill="#048449"/>
          <path id="Path_5145" data-name="Path 5145" d="M438.918,75.486l-.74,0-1.238,0-.7,0a5.032,5.032,0,0,0,.082-.666q.082-.666.1-2.147l.016-1.481a3.188,3.188,0,0,0-.079-.844.764.764,0,0,0-.807-.594,1,1,0,0,0-.849.442.951.951,0,0,0-.2.377,4.742,4.742,0,0,0-.082.984l-.016,1.288a10,10,0,0,0,.263,2.636h-.754l-1.238,0h-.686q.041-.266.1-.666.082-.755.085-2.146l0-1.481a3.454,3.454,0,0,0-.066-.844.764.764,0,0,0-.807-.594,1.035,1.035,0,0,0-.862.442,2.409,2.409,0,0,0-.272,1.361l0,1.126a10.832,10.832,0,0,0,.25,2.8l-.754,0-1.225,0h-.7q.054-.311.1-.666.054-.5.085-2.147l.031-1.673a6.789,6.789,0,0,0-.118-1.54.54.54,0,0,0-.578-.46h-.108l.271-.739.673-.028,1.265-.027.781-.043-.043,1.244.539-.518a2.592,2.592,0,0,1,1.832-.781,1.741,1.741,0,0,1,1.855,1.336l.58-.547a2.621,2.621,0,0,1,1.832-.781,1.715,1.715,0,0,1,1.774,1.1,4,4,0,0,1,.172,1.392l0,2.1A10.8,10.8,0,0,0,438.918,75.486Z" transform="translate(-373.238 -63.014)" fill="#048449"/>
          <path id="Path_5146" data-name="Path 5146" d="M483.48,55.554a1.42,1.42,0,0,1-.507.969,6.588,6.588,0,0,1-.708.554q0,.252-.015.77t-.015.77l-.009,4.338a3.159,3.159,0,0,1-1.32,2.751,4.945,4.945,0,0,1-2.873.764,8.282,8.282,0,0,1-1.18-.091,2.978,2.978,0,0,1-2.786-2.138,7.94,7.94,0,0,1-.184-1.939l0-.888.006-2.783a7.064,7.064,0,0,0-.1-1.541q-.093-.458-.685-.46h-.108l.284-.843h.767l1.858,0h.781q-.138,1.7-.139,2.443l-.006,3.109a11.712,11.712,0,0,0,.064,1.733,2.2,2.2,0,0,0,.688,1.482,1.632,1.632,0,0,0,1.07.358,1.779,1.779,0,0,0,1.915-1.657,14.11,14.11,0,0,0,.113-1.928l.005-2.729a11.434,11.434,0,0,0-.2-2.092,3.867,3.867,0,0,0-.187-.712h.754l1.332-.012a1.331,1.331,0,0,0-.307-.883l.027-.144c.116-.038.229-.072.337-.1l.054-.015a2.67,2.67,0,0,1,.7-.129.555.555,0,0,1,.45.364A1.332,1.332,0,0,1,483.48,55.554ZM480.887,53.8l-.728.546-1.766,1.462-.229-.208-.269-.193.311-.473.432-.739.23-.473.525-.028,1.076-.027.31-.044Z" transform="translate(-403.014 -53.624)" fill="#048449"/>
          <path id="Path_5147" data-name="Path 5147" d="M510.358,75.631l-.754,0-1.238,0-.687,0c.028-.2.055-.419.082-.666q.082-.74.085-2.147l0-1.421a3.508,3.508,0,0,0-.078-.9.782.782,0,0,0-.834-.594,1.083,1.083,0,0,0-.889.442,2.274,2.274,0,0,0-.3,1.361l0,1.126a10.621,10.621,0,0,0,.263,2.8l-.754,0-1.239,0h-.686q.041-.325.082-.666.068-.636.085-2.147l.017-1.673a7.583,7.583,0,0,0-.091-1.54.536.536,0,0,0-.592-.46h-.108l.284-.739.673-.028,1.252-.027.781-.043-.043,1.229.553-.5a2.73,2.73,0,0,1,1.873-.781,1.907,1.907,0,0,1,1.574.67,2.845,2.845,0,0,1,.44,1.823l-.018,2.1A10.166,10.166,0,0,0,510.358,75.631Z" transform="translate(-422.322 -63.114)" fill="#048449"/>
          <path id="Path_5148" data-name="Path 5148" d="M533.609,68.272l-.243.473-.217.518-.592-.031h-.135a.956.956,0,0,1-.148.014h-.135a2.023,2.023,0,0,1,.213.948,2.2,2.2,0,0,1-.831,1.842,3.776,3.776,0,0,1-2.364.639,5.7,5.7,0,0,1-.915-.076.793.793,0,0,0-.27.518q0,.608,1.627.61h.269l.781-.013q2.4,0,2.392,2.107a2.8,2.8,0,0,1-1.108,2.307A4.6,4.6,0,0,1,529,79a4.029,4.029,0,0,1-2.267-.581,1.745,1.745,0,0,1-.865-1.51,1.563,1.563,0,0,1,1.094-1.417l.323-.147-.3-.119a1.13,1.13,0,0,1-.832-1.066,1.53,1.53,0,0,1,.594-1.093l.755-.694a2.18,2.18,0,0,1-1.154-2,2.155,2.155,0,0,1,.818-1.8,3.65,3.65,0,0,1,2.3-.631,6,6,0,0,1,.848.058,3.033,3.033,0,0,1,.807.212l1.265-.027.633-.028.472-.043Zm-2.507,8.39a.727.727,0,0,0-.429-.712,1.8,1.8,0,0,0-.457-.149,4.244,4.244,0,0,0-1.144-.076l-.351.029q-.269.014-.525.043a.665.665,0,0,0-.337.118.918.918,0,0,0-.473.784.959.959,0,0,0,.49.837,2.326,2.326,0,0,0,1.285.321,2.589,2.589,0,0,0,1.394-.337A1,1,0,0,0,531.1,76.662Zm-.943-6.176q0-1.643-.818-1.645l-.027.015a.666.666,0,0,0-.593.3,1.97,1.97,0,0,0-.177.969q0,1.629.818,1.63Q530.156,71.759,530.159,70.486Z" transform="translate(-437.348 -62.919)" fill="#048449"/>
          <path id="Path_5149" data-name="Path 5149" d="M564.293,68.89l-.592.014-1.05.042-.713.043-.119-1.229-.539.467a3.1,3.1,0,0,1-1.065.671,2.4,2.4,0,0,1-.686.086,1.993,1.993,0,0,1-1.742-.89,5.387,5.387,0,0,1,.348-5.548,3.477,3.477,0,0,1,2.728-1.051,7.153,7.153,0,0,1,.875.061l0-.977a7.287,7.287,0,0,0-.1-1.458.533.533,0,0,0-.584-.438h-.108l.284-.739.673-.014,1.414-.041.794-.043q-.124,1.7-.126,2.487l-.025,5.478a16.893,16.893,0,0,0,.13,2.117A5.5,5.5,0,0,0,564.293,68.89Zm-2.523-3.529,0-.977a3.426,3.426,0,0,0-.213-1.466.794.794,0,0,0-.766-.4q-1.2,0-1.2,2.53-.005,2.384,1.139,2.386a.844.844,0,0,0,.647-.294A2.8,2.8,0,0,0,561.77,65.361Z" transform="translate(-457.683 -56.364)" fill="#048449"/>
          <path id="Path_5150" data-name="Path 5150" d="M588.415,75.136l-.284.739-.552.029-1.211.042-.781.043-.106-1.259-.566.517a2.694,2.694,0,0,1-1.832.8q-1.992,0-1.96-2.516l0-2.111a16.694,16.694,0,0,0-.119-2.111,2.831,2.831,0,0,0-.159-.684l.781.046,1.238-.012.686-.028q-.029.193-.074.681-.09.992-.107,2.146l0,1.555a3.224,3.224,0,0,0,.066.77.776.776,0,0,0,.825.593q1.138,0,1.142-1.813l0-1.131a15.91,15.91,0,0,0-.123-2.114,3.571,3.571,0,0,0-.181-.685l.781.046,1.238-.012.687-.028a19.346,19.346,0,0,0-.181,2.827l0,1.673q0,1.065.024,1.229.12.77.645.771Zm-3.33,2.288a1.5,1.5,0,0,1-.217.977,1.323,1.323,0,0,1-.916.22q-.471,0-.612-.193a1.308,1.308,0,0,1-.14-.726,1.961,1.961,0,0,1,.2-1.088q.2-.244.936-.242a.77.77,0,0,1,.632.209,1.443,1.443,0,0,1,.12.726Z" transform="translate(-473.054 -63.363)" fill="#048449"/>
          <path id="Path_5151" data-name="Path 5151" d="M611.011,75.837h-.754l-1.238,0h-.687q.041-.3.082-.666.082-.739.085-2.146l0-1.421a3.519,3.519,0,0,0-.078-.9.782.782,0,0,0-.834-.594,1.084,1.084,0,0,0-.889.442,2.276,2.276,0,0,0-.3,1.362l0,1.126a10.622,10.622,0,0,0,.264,2.8h-.754l-1.238,0h-.686q.041-.325.082-.666.068-.636.085-2.146l.017-1.673a7.6,7.6,0,0,0-.091-1.54.536.536,0,0,0-.592-.46h-.108l.284-.74.673-.028,1.252-.027.781-.043-.043,1.229.553-.5a2.731,2.731,0,0,1,1.873-.781,1.906,1.906,0,0,1,1.574.67,2.843,2.843,0,0,1,.44,1.822l-.018,2.1A10.162,10.162,0,0,0,611.011,75.837Z" transform="translate(-487.684 -63.248)" fill="#048449"/>
          <path id="Path_5152" data-name="Path 5152" d="M634.262,68.477l-.243.473-.216.518-.592-.031h-.134a1.094,1.094,0,0,1-.148.014h-.135a2.022,2.022,0,0,1,.214.948,2.2,2.2,0,0,1-.831,1.842,3.779,3.779,0,0,1-2.364.639,5.7,5.7,0,0,1-.915-.076.794.794,0,0,0-.27.518q0,.608,1.627.611h.269l.781-.013q2.4,0,2.392,2.107a2.8,2.8,0,0,1-1.108,2.307,4.6,4.6,0,0,1-2.936.868,4.032,4.032,0,0,1-2.267-.581,1.745,1.745,0,0,1-.865-1.51,1.563,1.563,0,0,1,1.094-1.417l.323-.147-.3-.119a1.13,1.13,0,0,1-.832-1.066,1.53,1.53,0,0,1,.594-1.093l.755-.694a2.181,2.181,0,0,1-1.154-2,2.156,2.156,0,0,1,.818-1.8,3.65,3.65,0,0,1,2.3-.631,5.932,5.932,0,0,1,.848.058,3.02,3.02,0,0,1,.807.212l1.265-.027.633-.028.472-.043Zm-2.507,8.39a.727.727,0,0,0-.429-.712,1.788,1.788,0,0,0-.458-.149,4.263,4.263,0,0,0-1.144-.077l-.351.029q-.269.014-.525.043a.665.665,0,0,0-.337.118.918.918,0,0,0-.473.784.96.96,0,0,0,.49.837,2.334,2.334,0,0,0,1.285.321,2.593,2.593,0,0,0,1.393-.338A1,1,0,0,0,631.755,76.868Zm-.943-6.176q0-1.643-.818-1.645l-.027.015a.667.667,0,0,0-.593.3,1.972,1.972,0,0,0-.177.969q0,1.629.818,1.63Q630.809,71.964,630.812,70.691Z" transform="translate(-502.71 -63.053)" fill="#048449"/>
        </g>
      </g>
      <g id="Group_10507" data-name="Group 10507" transform="translate(0.416 16.043)">
        <g id="Group_10506" data-name="Group 10506">
          <path id="Path_5153" data-name="Path 5153" d="M275.7,117l-1.244,0,0-2.074,1.243.2,0-1.919a15.464,15.464,0,0,0-.045-1.687q-.159-.93-.886-.932h-.129l.325-1.1h.533l1.664,0,1.906,0,1.2,0q.985,0,1.7.023a5.18,5.18,0,0,1,3.18.937Q287,111.988,287,115.418a9.311,9.311,0,0,1-.9,4.165,5.888,5.888,0,0,1-2.687,2.786,7.7,7.7,0,0,1-3.426.652,1.087,1.087,0,0,1-.242-.02l-3.634-.046-.646.057a15.622,15.622,0,0,0,.2-2.275l.038-1.419Zm5.539.2-2.326-.2,0,1.609q0,.213.015.931a2.275,2.275,0,0,0,.352,1.338,1.49,1.49,0,0,0,1.146.351q2.988.007,3-4.936a7.463,7.463,0,0,0-.706-3.7,3.008,3.008,0,0,0-2.817-1.44,4.569,4.569,0,0,0-.925.1l-.052,1.686,0,2.19,2.326,0Z" transform="translate(-274.461 -105.94)" fill="#048449"/>
          <path id="Path_5154" data-name="Path 5154" d="M325.213,109.807a7.738,7.738,0,0,1-1.885,5.481,6.142,6.142,0,0,1-4.736,1.948,5.63,5.63,0,0,1-4.438-1.851,7.5,7.5,0,0,1-1.685-5.217,7.721,7.721,0,0,1,1.852-5.384,6,6,0,0,1,4.656-2.026,5.512,5.512,0,0,1,5.517,3.422A8.871,8.871,0,0,1,325.213,109.807Zm-3.57.342a11.227,11.227,0,0,0-.493-3.645q-.691-2.036-2.273-2.04-2.827-.006-2.838,5.383a11.04,11.04,0,0,0,.509,3.683q.707,2,2.322,2Q321.632,115.536,321.644,110.148Zm-.339-8.064-.308.252-.259.232-.871-.894-.887-.854-.874.851-.874.89-.258-.238-.306-.258.356-.594.487-.93.276-.593.581-.039,1.1,0,.711-.037.29.717.483.912Z" transform="translate(-299.143 -99.7)" fill="#048449"/>
          <path id="Path_5155" data-name="Path 5155" d="M362.668,123.232l-1.387,0-1.354,0q-.739-1.378-1.076-1.921l-4.66-7.356,0,1.008.072,4.5a20.592,20.592,0,0,0,.221,2.733,5.376,5.376,0,0,0,.224.931l-.9,0-.856,0-.84,0c.043-.258.082-.549.115-.872q.082-.871.1-2.81l.012-6.1a12.253,12.253,0,0,0-.121-2.017.706.706,0,0,0-.8-.6h-.125l.342-1.123.92.06,2.229-.015,1-.036q.739,1.571,1.078,2.134l3.7,6.132-.013-1.382-.074-3.194a21.483,21.483,0,0,0-.2-2.746,5.791,5.791,0,0,0-.24-.935l.9.06.872,0,.84-.056a8.445,8.445,0,0,0-.115.855q-.034.408-.068,1.418l-.035,1.4-.029,6.142q0,.408.03,1.186A24.868,24.868,0,0,0,362.668,123.232Z" transform="translate(-324.352 -106.006)" fill="#048449"/>
          <path id="Path_5156" data-name="Path 5156" d="M399.131,116.119q-.116,1.6-.117,2.087l0,1.2.028,2.145.031.5q-.517.153-1.341.384a13.869,13.869,0,0,1-3.28.418,6.524,6.524,0,0,1-4.036-1.19,5.738,5.738,0,0,1-1.812-2.4,8.517,8.517,0,0,1-.631-3.364,7.427,7.427,0,0,1,1.9-5.336,6.692,6.692,0,0,1,5.092-1.977,8.61,8.61,0,0,1,2.035.256,11.719,11.719,0,0,1,1.937.682l-.244,1.007-.36,2.015-.4.038a5.965,5.965,0,0,0-1.1-1.494,2.985,2.985,0,0,0-2.082-.819,2.617,2.617,0,0,0-2.345,1.362,7.271,7.271,0,0,0-.847,3.807,9.4,9.4,0,0,0,.758,4.169,2.328,2.328,0,0,0,2.088,1.536,1.624,1.624,0,0,0,1.1-.347,1.6,1.6,0,0,0,.358-1.22,3.691,3.691,0,0,0-.016-.388l-.031-.756a1.85,1.85,0,0,0-.216-.96.823.823,0,0,0-.685-.244h-.129l.325-1.124.953,0Z" transform="translate(-348.171 -105.361)" fill="#048449"/>
          <path id="Path_5157" data-name="Path 5157" d="M445.038,113.413a4.255,4.255,0,0,1-1.364,3.447,4.931,4.931,0,0,1-3.28.943h-1.211l.147-.784.115-.882a4.5,4.5,0,0,0,.63.059,1.387,1.387,0,0,0,1.213-.637,3.1,3.1,0,0,0,.44-1.763q.005-2.423-1.982-2.427a6.149,6.149,0,0,0-.824.076l-.052,1.57-.03,6.648a15.124,15.124,0,0,0,.315,3.664l-.9,0-2.019,0-.824,0q.049-.387.1-.872.082-.872.1-2.81l.045-6.1a11.924,11.924,0,0,0-.125-2.017.725.725,0,0,0-.823-.6h-.129l.341-1.1.921,0,3.957.008,1.955,0a3.036,3.036,0,0,1,2.486.916A4.1,4.1,0,0,1,445.038,113.413Z" transform="translate(-378.437 -106.151)" fill="#048449"/>
          <path id="Path_5158" data-name="Path 5158" d="M478.2,123.4l-.9,0-2.019,0h-.824q.049-.387.1-.872.1-.969.1-2.81l.006-2.694h-.824l-.888.018-1,0-.711.018-.695,0-.005,2.675a15.1,15.1,0,0,0,.316,3.664l-.9,0-2.019,0H467.1q.049-.387.1-.872.083-.872.1-2.81l.045-6.1a11.878,11.878,0,0,0-.125-2.017.724.724,0,0,0-.823-.6h-.129l.341-1.1.921,0,2.229,0,.937,0q-.134,1.977-.135,3.2l0,2.093,1.437.042,1,0,.824-.037.856-.018,0-1.614a14.832,14.832,0,0,0-.316-3.658l.9,0,1.842,0,.937,0-.067,1.086q-.066,1.279-.069,2.112l-.03,6.648A15.125,15.125,0,0,0,478.2,123.4Z" transform="translate(-399.017 -106.193)" fill="#048449"/>
          <path id="Path_5159" data-name="Path 5159" d="M516.768,106.563a1.918,1.918,0,0,1-.608,1.268,8.069,8.069,0,0,1-.849.725q0,.329-.019,1.008t-.018,1.008l-.012,5.679a4.278,4.278,0,0,1-1.585,3.6,5.569,5.569,0,0,1-3.447,1,9.1,9.1,0,0,1-1.417-.12,3.649,3.649,0,0,1-3.343-2.8,11.255,11.255,0,0,1-.22-2.539l0-1.163.007-3.644a10.144,10.144,0,0,0-.125-2.017.724.724,0,0,0-.823-.6h-.129l.341-1.1.921,0,2.229,0,.937,0q-.165,2.229-.168,3.2l-.008,4.07a16.915,16.915,0,0,0,.077,2.268,2.989,2.989,0,0,0,.825,1.94,1.861,1.861,0,0,0,1.284.468q1.936,0,2.3-2.17a20.087,20.087,0,0,0,.136-2.523l.007-3.572a16.351,16.351,0,0,0-.237-2.738,5.384,5.384,0,0,0-.224-.933l.9,0,1.6-.016a1.851,1.851,0,0,0-.369-1.156l.033-.19c.139-.05.274-.094.4-.132l.065-.019a2.982,2.982,0,0,1,.84-.169.679.679,0,0,1,.54.476A1.882,1.882,0,0,1,516.768,106.563Z" transform="translate(-423.637 -103.161)" fill="#048449"/>
          <path id="Path_5160" data-name="Path 5160" d="M553.581,106.64a1.89,1.89,0,0,1-.633,1.3q-.13.136-.5.464a5.584,5.584,0,0,1-.582.406,8.226,8.226,0,0,1,1.282,4.674,7.74,7.74,0,0,1-1.885,5.481,6.143,6.143,0,0,1-4.736,1.948,5.629,5.629,0,0,1-4.438-1.851,7.5,7.5,0,0,1-1.685-5.217,7.722,7.722,0,0,1,1.852-5.384,6,6,0,0,1,4.656-2.026,5.806,5.806,0,0,1,4.422,1.7,1.749,1.749,0,0,0,.584-1.084,1.924,1.924,0,0,0-.369-1.242l.033-.194c.14-.051.275-.1.4-.135l.065-.019a2.943,2.943,0,0,1,.841-.173.679.679,0,0,1,.54.476A1.882,1.882,0,0,1,553.581,106.64Zm-4,7.183a11.227,11.227,0,0,0-.494-3.645q-.69-2.036-2.273-2.04-2.827-.006-2.838,5.383a11.046,11.046,0,0,0,.509,3.683q.707,2,2.322,2Q549.565,119.211,549.577,113.822Z" transform="translate(-447.158 -103.211)" fill="#048449"/>
          <path id="Path_5161" data-name="Path 5161" d="M590.6,123.7l-1.387,0-1.354,0q-.739-1.378-1.076-1.921l-4.66-7.355,0,1.008.072,4.5a20.592,20.592,0,0,0,.221,2.733,5.371,5.371,0,0,0,.224.931l-.9,0-.856,0-.84,0c.043-.258.082-.549.115-.872q.082-.872.1-2.81l.012-6.1a12.239,12.239,0,0,0-.121-2.017.706.706,0,0,0-.8-.6h-.125l.342-1.123.92.06,2.229-.015,1-.036q.739,1.571,1.078,2.134l3.7,6.132-.013-1.382-.074-3.194a21.485,21.485,0,0,0-.2-2.746,5.77,5.77,0,0,0-.24-.935l.9.06.872,0,.84-.057a8.429,8.429,0,0,0-.115.855q-.034.408-.068,1.419l-.035,1.4-.029,6.142q0,.408.03,1.186A24.829,24.829,0,0,0,590.6,123.7Z" transform="translate(-472.367 -106.308)" fill="#048449"/>
          <path id="Path_5162" data-name="Path 5162" d="M627.065,116.584q-.116,1.6-.117,2.087l0,1.2.028,2.146.031.5q-.517.153-1.341.383a13.867,13.867,0,0,1-3.28.418,6.521,6.521,0,0,1-4.036-1.19,5.737,5.737,0,0,1-1.812-2.4,8.521,8.521,0,0,1-.631-3.364,7.427,7.427,0,0,1,1.9-5.336,6.69,6.69,0,0,1,5.092-1.976,8.585,8.585,0,0,1,2.035.256,11.8,11.8,0,0,1,1.937.682L626.624,111l-.359,2.015-.4.038a5.977,5.977,0,0,0-1.1-1.494,2.985,2.985,0,0,0-2.082-.818,2.616,2.616,0,0,0-2.345,1.362,7.27,7.27,0,0,0-.848,3.807,9.407,9.407,0,0,0,.759,4.169,2.328,2.328,0,0,0,2.088,1.535,1.625,1.625,0,0,0,1.1-.347,1.6,1.6,0,0,0,.358-1.22,3.7,3.7,0,0,0-.016-.388l-.031-.756a1.847,1.847,0,0,0-.216-.96.821.821,0,0,0-.685-.244h-.129l.325-1.124.953,0Z" transform="translate(-496.187 -105.663)" fill="#048449"/>
          <path id="Path_5163" data-name="Path 5163" d="M671.514,110.581q-.324.465-.405.6a14.75,14.75,0,0,0-1.377,2.559l-1.4,3.336-.649,1.649-.02,1.63a14.137,14.137,0,0,0,.316,3.436l-.9,0-2,0-.84,0q.049-.349.115-.872.1-.988.1-2.81l0-1.434-.659-1.533-1.945-4.5a3.45,3.45,0,0,0-.611-1.087.811.811,0,0,0-.582-.176h-.129l.326-1.1.921,0,2.213,0,.888,0a11.239,11.239,0,0,0,.609,2.5l1.333,3.627,1.169-3.167a7.281,7.281,0,0,0,.489-2.507c0-.156,0-.3-.015-.448l.921,0,1.276,0,.824,0Z" transform="translate(-525.165 -106.451)" fill="#048449"/>
          <path id="Path_5164" data-name="Path 5164" d="M714.615,113.964a4.257,4.257,0,0,1-1.364,3.447,4.934,4.934,0,0,1-3.28.943h-1.211l.147-.784.115-.883a4.373,4.373,0,0,0,.63.059,1.386,1.386,0,0,0,1.213-.637,3.1,3.1,0,0,0,.44-1.763q.005-2.423-1.982-2.427a6.206,6.206,0,0,0-.823.076l-.052,1.57-.03,6.648a15.113,15.113,0,0,0,.315,3.664l-.9,0-2.019,0-.824,0q.049-.387.1-.872.082-.871.1-2.81l.045-6.1a11.923,11.923,0,0,0-.125-2.017.724.724,0,0,0-.823-.6h-.129l.341-1.1.921,0,3.957.008,1.954,0a3.036,3.036,0,0,1,2.486.916A4.106,4.106,0,0,1,714.615,113.964Z" transform="translate(-553.495 -106.509)" fill="#048449"/>
          <path id="Path_5165" data-name="Path 5165" d="M747.773,123.955l-.9,0-2.019,0-.824,0q.049-.387.1-.872.1-.968.1-2.81l.006-2.694-.824,0-.888.018-1,0-.711.018h-.695l-.005,2.675a15.087,15.087,0,0,0,.316,3.664l-.9,0-2.019,0-.824,0q.049-.387.1-.872.083-.872.1-2.811l.045-6.1a11.867,11.867,0,0,0-.125-2.016.724.724,0,0,0-.823-.6h-.129l.341-1.1.921,0,2.229,0,.937,0q-.133,1.977-.135,3.2l0,2.093,1.437.042,1,0,.824-.037.856-.018,0-1.614a14.833,14.833,0,0,0-.316-3.658l.9,0,1.842,0,.937,0-.067,1.086q-.067,1.279-.069,2.113l-.03,6.648A15.122,15.122,0,0,0,747.773,123.955Z" transform="translate(-574.075 -106.55)" fill="#048449"/>
          <path id="Path_5166" data-name="Path 5166" d="M783.688,116.811l-.888,0-2.084,0-1.2,0a11.673,11.673,0,0,0-.35-2.662l-.352-1.429-1.211,0-1.422,0-1.227,0-.375,1.467a6.625,6.625,0,0,0-.213,1.643,3.809,3.809,0,0,0,.127.979h-.549l-1.567,0-.84,0-.064-.213.049-.116.308-.658q.064-.135.422-1.123.146-.348.455-1.2l2.584-7.806a22.583,22.583,0,0,0,.667-2.441l.856-.037,1.858-.19.97-.173a19.1,19.1,0,0,0,.432,2l2.39,8.552A23.142,23.142,0,0,0,783.688,116.811ZM778.434,111l-1.362-5.662L775.462,111l.937,0,.921,0ZM780.7,99.612l-.874.715-2.12,1.915-.274-.272-.323-.252.373-.62.518-.968.276-.62.63-.037,1.292-.036.372-.057Z" transform="translate(-597.213 -99.38)" fill="#048449"/>
          <path id="Path_5167" data-name="Path 5167" d="M816.973,114.172a4.255,4.255,0,0,1-1.364,3.447,4.932,4.932,0,0,1-3.28.943h-1.211l.147-.784.115-.882a4.5,4.5,0,0,0,.63.059,1.387,1.387,0,0,0,1.213-.637,3.1,3.1,0,0,0,.44-1.763q.005-2.423-1.982-2.427a6.208,6.208,0,0,0-.823.076l-.052,1.57-.03,6.648a15.134,15.134,0,0,0,.315,3.664l-.9,0-2.019,0-.823,0q.049-.387.1-.872.082-.872.1-2.811l.045-6.1a11.906,11.906,0,0,0-.125-2.016.724.724,0,0,0-.823-.6h-.129l.341-1.1.921,0,3.957.008,1.955,0a3.038,3.038,0,0,1,2.485.917A4.106,4.106,0,0,1,816.973,114.172Z" transform="translate(-619.964 -106.644)" fill="#048449"/>
        </g>
      </g>
    </g>
  </g>
</svg>
